<?xml version="1.0" encoding="UTF-8"?>
<svg id="Layer_2" xmlns="http://www.w3.org/2000/svg" version="1.1" viewBox="0 0 461 165.3">
  <!-- Generator: Adobe Illustrator 30.1.0, SVG Export Plug-In . SVG Version: 2.1.1 Build 136)  -->
  <defs>
    <style>
      .st0, .st1, .st2, .st3, .st4, .st5, .st6, .st7, .st8, .st9 {
        fill: #c1fc0a;
      }

      .st1 {
        opacity: .9;
      }

      .st1, .st2, .st3, .st4, .st5, .st6, .st7, .st8, .st9 {
        isolation: isolate;
      }

      .st2 {
        opacity: .5;
      }

      .st3 {
        opacity: .8;
      }

      .st4 {
        opacity: .3;
      }

      .st5 {
        opacity: .4;
      }

      .st6 {
        opacity: .1;
      }

      .st7 {
        opacity: .7;
      }

      .st8 {
        opacity: .6;
      }

      .st9 {
        opacity: .2;
      }
    </style>
  </defs>
  <g id="Layer_2-2">
    <polygon class="st0" points="23.9 165.3 0 165.3 41 82.7 0 0 23.9 0 64.9 82.4 23.9 165.3"/>
    <polygon class="st1" points="67.9 165.3 44 165.3 85 82.7 44 0 67.9 0 108.9 82.4 67.9 165.3"/>
    <polygon class="st3" points="112 165.3 88 165.3 129 82.7 88 0 112 0 153 82.4 112 165.3"/>
    <polygon class="st7" points="156 165.3 132 165.3 173 82.7 132 0 156 0 197 82.4 156 165.3"/>
    <polygon class="st8" points="200 165.3 176.1 165.3 217.1 82.7 176.1 0 200 0 241 82.4 200 165.3"/>
    <polygon class="st2" points="244 165.3 220.1 165.3 261.1 82.7 220.1 0 244 0 285 82.4 244 165.3"/>
    <polygon class="st5" points="288 165.3 264.1 165.3 305.1 82.7 264.1 0 288 0 329 82.4 288 165.3"/>
    <polygon class="st4" points="332 165.3 308.1 165.3 349.1 82.7 308.1 0 332 0 373 82.4 332 165.3"/>
    <polygon class="st9" points="376 165.3 352.1 165.3 393.1 82.7 352.1 0 376 0 417 82.4 376 165.3"/>
    <polygon class="st6" points="420 165.3 396.1 165.3 437.1 82.7 396.1 0 420 0 461 82.4 420 165.3"/>
    <polygon class="st0" points=".2 39.4 .2 125.7 21.6 82.4 .2 39.4"/>
  </g>
</svg>