<?xml version="1.0" encoding="UTF-8"?>
<svg id="uuid-b6eb14b7-f91f-4c9b-a67a-f1579ff32c6a" data-name="Layer 2" xmlns="http://www.w3.org/2000/svg" viewBox="0 0 461.05 165.29">
  <g id="uuid-915b8ef8-9a22-4c25-a211-1c27b063989e" data-name="Layer 2">
    <g id="uuid-2f151b89-346a-4dd6-bf53-a76d53896672" data-name="Layer 2-2">
      <polygon points="23.94 165.29 0 165.29 41 82.65 0 0 23.94 0 64.94 82.43 23.94 165.29" style="fill: #8a2be2;"/>
      <polygon points="67.95 165.29 44.01 165.29 85.01 82.65 44.01 0 67.95 0 108.95 82.43 67.95 165.29" style="fill: #8a2be2; isolation: isolate; opacity: .9;"/>
      <polygon points="111.96 165.29 88.03 165.29 129.03 82.65 88.03 0 111.96 0 152.96 82.43 111.96 165.29" style="fill: #8a2be2; isolation: isolate; opacity: .8;"/>
      <polygon points="155.97 165.29 132.04 165.29 173.04 82.65 132.04 0 155.97 0 196.97 82.43 155.97 165.29" style="fill: #8a2be2; isolation: isolate; opacity: .7;"/>
      <polygon points="199.99 165.29 176.05 165.29 217.05 82.65 176.05 0 199.99 0 240.99 82.43 199.99 165.29" style="fill: #8a2be2; isolation: isolate; opacity: .6;"/>
      <polygon points="244 165.29 220.06 165.29 261.06 82.65 220.06 0 244 0 285 82.43 244 165.29" style="fill: #8a2be2; isolation: isolate; opacity: .5;"/>
      <polygon points="288.01 165.29 264.08 165.29 305.08 82.65 264.08 0 288.01 0 329.01 82.43 288.01 165.29" style="fill: #8a2be2; isolation: isolate; opacity: .4;"/>
      <polygon points="332.02 165.29 308.09 165.29 349.09 82.65 308.09 0 332.02 0 373.02 82.43 332.02 165.29" style="fill: #8a2be2; isolation: isolate; opacity: .3;"/>
      <polygon points="376.04 165.29 352.1 165.29 393.1 82.65 352.1 0 376.04 0 417.04 82.43 376.04 165.29" style="fill: #8a2be2; isolation: isolate; opacity: .2;"/>
      <polygon points="420.05 165.29 396.11 165.29 437.11 82.65 396.11 0 420.05 0 461.05 82.43 420.05 165.29" style="fill: #8a2be2; isolation: isolate; opacity: .1;"/>
      <polygon points=".19 39.43 .19 125.65 21.58 82.43 .19 39.43" style="fill: #8a2be2;"/>
    </g>
  </g>
</svg>