<?xml version="1.0" encoding="UTF-8"?>
<svg id="Layer_2" data-name="Layer 2" xmlns="http://www.w3.org/2000/svg" viewBox="0 0 461.05 165.29">
  <defs>
    <style>
      .cls-1 {
        opacity: .3;
      }

      .cls-1, .cls-2, .cls-3, .cls-4, .cls-5, .cls-6, .cls-7, .cls-8, .cls-9, .cls-10 {
        fill: #c3dc7c;
      }

      .cls-2 {
        opacity: .2;
      }

      .cls-3 {
        opacity: .1;
      }

      .cls-4 {
        opacity: .6;
      }

      .cls-5 {
        opacity: .7;
      }

      .cls-7 {
        opacity: .4;
      }

      .cls-8 {
        opacity: .8;
      }

      .cls-9 {
        opacity: .9;
      }

      .cls-10 {
        opacity: .5;
      }
    </style>
  </defs>
  <g id="Layer_2-2" data-name="Layer 2">
    <polygon class="cls-6" points="23.94 165.29 0 165.29 41 82.65 0 0 23.94 0 64.94 82.43 23.94 165.29"/>
    <polygon class="cls-9" points="67.95 165.29 44.01 165.29 85.01 82.65 44.01 0 67.95 0 108.95 82.43 67.95 165.29"/>
    <polygon class="cls-8" points="111.96 165.29 88.03 165.29 129.03 82.65 88.03 0 111.96 0 152.96 82.43 111.96 165.29"/>
    <polygon class="cls-5" points="155.97 165.29 132.04 165.29 173.04 82.65 132.04 0 155.97 0 196.97 82.43 155.97 165.29"/>
    <polygon class="cls-4" points="199.99 165.29 176.05 165.29 217.05 82.65 176.05 0 199.99 0 240.99 82.43 199.99 165.29"/>
    <polygon class="cls-10" points="244 165.29 220.06 165.29 261.06 82.65 220.06 0 244 0 285 82.43 244 165.29"/>
    <polygon class="cls-7" points="288.01 165.29 264.08 165.29 305.08 82.65 264.08 0 288.01 0 329.01 82.43 288.01 165.29"/>
    <polygon class="cls-1" points="332.02 165.29 308.09 165.29 349.09 82.65 308.09 0 332.02 0 373.02 82.43 332.02 165.29"/>
    <polygon class="cls-2" points="376.04 165.29 352.1 165.29 393.1 82.65 352.1 0 376.04 0 417.04 82.43 376.04 165.29"/>
    <polygon class="cls-3" points="420.05 165.29 396.11 165.29 437.11 82.65 396.11 0 420.05 0 461.05 82.43 420.05 165.29"/>
    <polygon class="cls-6" points=".19 39.43 .19 125.65 21.58 82.43 .19 39.43"/>
  </g>
</svg>