
<svg fill="currentColor" xmlns="http://www.w3.org/2000/svg" viewBox="0 0 637.67 23.87">
  <defs>
    <style>
      .cls-1 {
        opacity: .31;
      }

      .cls-2 {
        opacity: .32;
      }
    </style>
  </defs>
  <g>
    <rect class="cls-2" x="26.6" y="7.65" width="193.55" height="8.52"/>
    <rect class="cls-2" x="418.79" y="7.65" width="193.55" height="8.52"/>
    <path d="M625.74,6.54c-4.9-1.8-9.33-2.73-12.9-3.23h-204.84v-.48c0-1.39-1.13-2.52-2.52-2.52h-1.71c-1.39,0-2.52,1.13-2.52,2.52v3.38h-73.95l4.5,4.5c.98.98.98,2.58,0,3.56l-3.69,3.69h73.14v3.38c0,1.39,1.13,2.52,2.52,2.52h1.71c1.39,0,2.52-1.13,2.52-2.52v-.48h204.84c3.49-.42,7.96-1.28,12.9-3.1,4.71-1.73,8.52-3.83,11.39-5.68-2.95-1.83-6.76-3.85-11.39-5.55ZM605.3,14.6h-179.53c-1.38,0-2.52-1.13-2.52-2.52s1.13-2.52,2.52-2.52h179.53c1.38,0,2.52,1.13,2.52,2.52s-1.13,2.52-2.52,2.52Z"/>
    <path d="M305.99,14.27c-.98-.98-.98-2.58,0-3.56l4.5-4.5h-74.53v-3.38c0-1.39-1.13-2.52-2.52-2.52h-1.71c-1.39,0-2.52,1.13-2.52,2.52v.48H24.38c-3.57.5-8.01,1.43-12.9,3.23C6.84,8.24,3.04,10.26.09,12.09c2.87,1.85,6.67,3.95,11.39,5.68,4.95,1.81,9.41,2.68,12.9,3.1h204.84v.48c0,1.39,1.13,2.52,2.52,2.52h1.71c1.39,0,2.52-1.13,2.52-2.52v-3.38h73.72l-3.69-3.69ZM211.44,14.6H31.91c-1.38,0-2.52-1.13-2.52-2.52s1.13-2.52,2.52-2.52h179.53c1.38,0,2.52,1.13,2.52,2.52s-1.13,2.52-2.52,2.52Z"/>
  </g>
  <g>
    <path d="M328.68,10.71l-8.3-8.3c-.98-.98-2.58-.98-3.56,0l-8.3,8.3c-.98.98-.98,2.58,0,3.56l8.3,8.3c.98.98,2.58.98,3.56,0l8.3-8.3c.98-.98.98-2.58,0-3.56ZM325.09,14.27l-4.71,4.71c-.98.98-2.58.98-3.56,0l-4.71-4.71c-.98-.98-.98-2.58,0-3.56l4.71-4.71c.98-.98,2.58-.98,3.56,0l4.71,4.71c.98.98.98,2.58,0,3.56Z"/>
    <g class="cls-1">
      <rect x="312.15" y="6.27" width="12.91" height="12.44" rx="2.51" ry="2.51" transform="translate(84.48 228.95) rotate(-45)"/>
    </g>
  </g>
</svg>