<?xml version="1.0" encoding="UTF-8"?>
<svg id="a" data-name="Layer 2" xmlns="http://www.w3.org/2000/svg" xmlns:xlink="http://www.w3.org/1999/xlink" viewBox="0 0 635.04 25.29">
  <defs>
    <linearGradient id="c" x1="-245.42" y1="78.11" x2="-125.54" y2="197.99" gradientTransform="translate(305.35 150.29) scale(1 -1)" gradientUnits="userSpaceOnUse">
      <stop offset="0" stop-color="#b2bec0"/>
      <stop offset=".2" stop-color="#d1d8d9"/>
      <stop offset=".3" stop-color="#657d80"/>
      <stop offset=".3" stop-color="#6f8588"/>
      <stop offset=".4" stop-color="#a3b1b3"/>
      <stop offset=".5" stop-color="#c4cdce"/>
      <stop offset=".6" stop-color="#d1d8d9"/>
      <stop offset=".6" stop-color="#bdc7c8"/>
      <stop offset=".7" stop-color="#8b9d9f"/>
      <stop offset=".8" stop-color="#657d80"/>
      <stop offset=".8" stop-color="#778c8f"/>
      <stop offset=".9" stop-color="#a1b0b2"/>
      <stop offset="1" stop-color="#b2bec0"/>
    </linearGradient>
    <linearGradient id="d" x1="115.38" y1="26.14" x2="115.75" y2="4.97" gradientTransform="translate(0 28.01) scale(1 -1)" gradientUnits="userSpaceOnUse">
      <stop offset="0" stop-color="#fff"/>
      <stop offset="1" stop-color="#4e5e63"/>
    </linearGradient>
    <linearGradient id="e" x1="14.62" y1="143.92" x2="14.62" y2="132.18" gradientTransform="translate(305.35 150.29) scale(1 -1)" gradientUnits="userSpaceOnUse">
      <stop offset="0" stop-color="#b2bec0"/>
      <stop offset=".2" stop-color="#d1d8d9"/>
      <stop offset=".3" stop-color="#657d80"/>
      <stop offset=".3" stop-color="#6f8588"/>
      <stop offset=".4" stop-color="#a3b1b3"/>
      <stop offset=".5" stop-color="#c4cdce"/>
      <stop offset=".6" stop-color="#d1d8d9"/>
      <stop offset=".6" stop-color="#bdc7c8"/>
      <stop offset=".7" stop-color="#8b9d9f"/>
      <stop offset=".8" stop-color="#657d80"/>
      <stop offset=".8" stop-color="#778c8f"/>
      <stop offset=".9" stop-color="#a1b0b2"/>
      <stop offset="1" stop-color="#b2bec0"/>
    </linearGradient>
    <linearGradient id="f" x1="-72.85" y1="126.29" x2="-72.85" y2="149.82" gradientTransform="translate(305.35 150.29) scale(1 -1)" gradientUnits="userSpaceOnUse">
      <stop offset="0" stop-color="#b2bec0"/>
      <stop offset=".2" stop-color="#d1d8d9"/>
      <stop offset=".3" stop-color="#657d80"/>
      <stop offset=".3" stop-color="#6f8588"/>
      <stop offset=".4" stop-color="#a3b1b3"/>
      <stop offset=".5" stop-color="#c4cdce"/>
      <stop offset=".6" stop-color="#d1d8d9"/>
      <stop offset=".6" stop-color="#bdc7c8"/>
      <stop offset=".7" stop-color="#8b9d9f"/>
      <stop offset=".8" stop-color="#657d80"/>
      <stop offset=".8" stop-color="#778c8f"/>
      <stop offset=".9" stop-color="#a1b0b2"/>
      <stop offset="1" stop-color="#b2bec0"/>
    </linearGradient>
    <linearGradient id="g" x1="225.67" y1="8.93" x2="239.34" y2="22.6" gradientTransform="translate(0 28.01) scale(1 -1)" gradientUnits="userSpaceOnUse">
      <stop offset="0" stop-color="#b2bec0"/>
      <stop offset=".2" stop-color="#d1d8d9"/>
      <stop offset=".3" stop-color="#657d80"/>
      <stop offset=".3" stop-color="#6f8588"/>
      <stop offset=".4" stop-color="#a3b1b3"/>
      <stop offset=".5" stop-color="#c4cdce"/>
      <stop offset=".6" stop-color="#d1d8d9"/>
      <stop offset=".6" stop-color="#bdc7c8"/>
      <stop offset=".7" stop-color="#8b9d9f"/>
      <stop offset=".8" stop-color="#657d80"/>
      <stop offset=".8" stop-color="#778c8f"/>
      <stop offset=".9" stop-color="#a1b0b2"/>
      <stop offset="1" stop-color="#b2bec0"/>
    </linearGradient>
    <linearGradient id="h" x1="-183.76" y1="135.04" x2="-183.76" y2="141.07" gradientTransform="translate(305.35 150.29) scale(1 -1)" gradientUnits="userSpaceOnUse">
      <stop offset="0" stop-color="#d1d7d8"/>
      <stop offset="1" stop-color="#6a7c80"/>
    </linearGradient>
    <linearGradient id="i" x1="-1503.3" y1="-105.77" x2="-1383.42" y2="14.11" gradientTransform="translate(-928.19 -33.59) rotate(-180)" gradientUnits="userSpaceOnUse">
      <stop offset="0" stop-color="#b2bec0"/>
      <stop offset=".2" stop-color="#d1d8d9"/>
      <stop offset=".3" stop-color="#657d80"/>
      <stop offset=".3" stop-color="#6f8588"/>
      <stop offset=".4" stop-color="#a3b1b3"/>
      <stop offset=".5" stop-color="#c4cdce"/>
      <stop offset=".6" stop-color="#d1d8d9"/>
      <stop offset=".6" stop-color="#bdc7c8"/>
      <stop offset=".7" stop-color="#8b9d9f"/>
      <stop offset=".8" stop-color="#657d80"/>
      <stop offset=".8" stop-color="#778c8f"/>
      <stop offset=".9" stop-color="#a1b0b2"/>
      <stop offset="1" stop-color="#b2bec0"/>
    </linearGradient>
    <linearGradient id="j" x1="519.66" y1="26.15" x2="519.29" y2="4.98" gradientTransform="translate(0 28.01) scale(1 -1)" gradientUnits="userSpaceOnUse">
      <stop offset="0" stop-color="#fff"/>
      <stop offset="1" stop-color="#4e5e63"/>
    </linearGradient>
    <linearGradient id="k" x1="-1330.73" y1="-57.59" x2="-1330.73" y2="-34.06" gradientTransform="translate(-928.19 -33.59) rotate(-180)" gradientUnits="userSpaceOnUse">
      <stop offset="0" stop-color="#b2bec0"/>
      <stop offset=".2" stop-color="#d1d8d9"/>
      <stop offset=".3" stop-color="#657d80"/>
      <stop offset=".3" stop-color="#6f8588"/>
      <stop offset=".4" stop-color="#a3b1b3"/>
      <stop offset=".5" stop-color="#c4cdce"/>
      <stop offset=".6" stop-color="#d1d8d9"/>
      <stop offset=".6" stop-color="#bdc7c8"/>
      <stop offset=".7" stop-color="#8b9d9f"/>
      <stop offset=".8" stop-color="#657d80"/>
      <stop offset=".8" stop-color="#778c8f"/>
      <stop offset=".9" stop-color="#a1b0b2"/>
      <stop offset="1" stop-color="#b2bec0"/>
    </linearGradient>
    <linearGradient id="l" x1="409.37" y1="8.93" x2="395.7" y2="22.6" gradientTransform="translate(0 28.01) scale(1 -1)" gradientUnits="userSpaceOnUse">
      <stop offset="0" stop-color="#b2bec0"/>
      <stop offset=".2" stop-color="#d1d8d9"/>
      <stop offset=".3" stop-color="#657d80"/>
      <stop offset=".3" stop-color="#6f8588"/>
      <stop offset=".4" stop-color="#a3b1b3"/>
      <stop offset=".5" stop-color="#c4cdce"/>
      <stop offset=".6" stop-color="#d1d8d9"/>
      <stop offset=".6" stop-color="#bdc7c8"/>
      <stop offset=".7" stop-color="#8b9d9f"/>
      <stop offset=".8" stop-color="#657d80"/>
      <stop offset=".8" stop-color="#778c8f"/>
      <stop offset=".9" stop-color="#a1b0b2"/>
      <stop offset="1" stop-color="#b2bec0"/>
    </linearGradient>
    <linearGradient id="m" x1="-1441.64" y1="-48.84" x2="-1441.64" y2="-42.81" gradientTransform="translate(-928.19 -33.59) rotate(-180)" xlink:href="#h"/>
    <linearGradient id="n" x1="-246.03" y1="-264.89" x2="-246.03" y2="-284.24" gradientTransform="translate(563.54 -261.92) scale(1 -1)" gradientUnits="userSpaceOnUse">
      <stop offset="0" stop-color="#dadcdd"/>
      <stop offset="1" stop-color="#5b666b"/>
    </linearGradient>
    <linearGradient id="o" x1="-252.01" y1="-265.78" x2="-239.75" y2="-283.77" gradientTransform="translate(563.54 -261.93) scale(1 -1)" gradientUnits="userSpaceOnUse">
      <stop offset=".2" stop-color="#d1d8d9"/>
      <stop offset=".3" stop-color="#657d80"/>
      <stop offset=".3" stop-color="#6f8588"/>
      <stop offset=".4" stop-color="#a3b1b3"/>
      <stop offset=".5" stop-color="#c4cdce"/>
      <stop offset=".6" stop-color="#d1d8d9"/>
      <stop offset=".6" stop-color="#bdc7c8"/>
      <stop offset=".7" stop-color="#8b9d9f"/>
      <stop offset=".8" stop-color="#657d80"/>
      <stop offset=".8" stop-color="#778c8f"/>
      <stop offset=".9" stop-color="#a1b0b2"/>
      <stop offset=".96" stop-color="#b2bec0"/>
    </linearGradient>
    <linearGradient id="p" x1="-244.32" y1="-280.94" x2="-247.74" y2="-268.2" gradientTransform="translate(563.55 -261.92) scale(1 -1)" gradientUnits="userSpaceOnUse">
      <stop offset="0" stop-color="#dadcdd"/>
      <stop offset="1" stop-color="#5b666b"/>
    </linearGradient>
    <radialGradient id="q" cx="-246.03" cy="-274.56" fx="-246.03" fy="-274.56" r="4.53" gradientTransform="translate(563.54 -261.92) scale(1 -1)" gradientUnits="userSpaceOnUse">
      <stop offset=".17" stop-color="#fff"/>
      <stop offset=".86" stop-color="#34f9df"/>
    </radialGradient>
  </defs>
  <g id="b" data-name="Layer 1-2">
    <g>
      <g>
        <g>
          <path d="M24.29,21.02h206.68V3.47H24.29c-3.57.5-8.01,1.43-12.9,3.23-4.63,1.7-8.44,3.72-11.39,5.55,2.87,1.85,6.67,3.95,11.39,5.68,4.95,1.81,9.41,2.68,12.9,3.1h0Z" style="fill: url(#c);"/>
          <path d="M228.97,5.47v13.55H24.41c-4.21-.52-8.36-1.52-12.34-2.97-2.81-1.03-5.55-2.29-8.16-3.77,2.62-1.43,5.36-2.67,8.16-3.7,3.99-1.46,8.14-2.51,12.35-3.1h204.54M230.97,3.47H24.29c-3.57.5-8.01,1.43-12.9,3.23C6.76,8.4,2.95,10.42,0,12.25c2.87,1.85,6.67,3.95,11.39,5.68,4.95,1.81,9.41,2.68,12.9,3.1h206.68V3.47h0Z" style="fill: url(#d);"/>
        </g>
        <path d="M400.96,18.12h-165.09V6.38h165.09c1.32,1.2,3.1,3.25,3.11,5.86,0,2.62-1.78,4.68-3.11,5.88Z" style="fill: url(#e);"/>
        <g>
          <rect x="229.13" y=".48" width="6.74" height="23.53" rx="2.52" ry="2.52" style="fill: url(#f);"/>
          <path d="M233.36,1.48c.84,0,1.52.68,1.52,1.52v18.5c0,.84-.68,1.52-1.52,1.52h-1.71c-.84,0-1.52-.68-1.52-1.52V3c0-.84.68-1.52,1.52-1.52h1.71M233.36.48h-1.71c-1.39,0-2.52,1.13-2.52,2.52v18.5c0,1.39,1.13,2.52,2.52,2.52h1.71c1.39,0,2.52-1.13,2.52-2.52V3c0-1.39-1.13-2.52-2.52-2.52h0Z" style="fill: url(#g);"/>
        </g>
        <path d="M31.83,9.73h179.52c1.39,0,2.52,1.13,2.52,2.52h0c0,1.39-1.13,2.51-2.52,2.51H31.83c-1.39,0-2.52-1.13-2.52-2.52h0c0-1.39,1.13-2.51,2.52-2.51Z" style="fill: #34f9df; stroke: url(#h); stroke-linecap: round; stroke-linejoin: bevel;"/>
        <g style="opacity: .8;">
          <path d="M203.74,12.75H39c-.28,0-.5-.23-.5-.51s.22-.5.5-.5h164.74c.28,0,.5.23.5.51s-.22.5-.5.5Z" style="fill: #e6fefb;"/>
        </g>
      </g>
      <g>
        <g>
          <path d="M610.75,21.02h-206.68V3.47h206.68c3.57.5,8.01,1.43,12.9,3.23,4.63,1.7,8.44,3.72,11.39,5.55-2.87,1.85-6.67,3.95-11.39,5.68-4.95,1.81-9.41,2.68-12.9,3.1h0Z" style="fill: url(#i);"/>
          <path d="M610.61,5.47c4.21.6,8.37,1.64,12.35,3.1,2.8,1.03,5.54,2.27,8.16,3.7-2.61,1.47-5.35,2.74-8.16,3.77-3.98,1.46-8.13,2.46-12.34,2.97h-204.56V5.47h204.54M610.75,3.47h-206.68v17.55h206.68c3.49-.42,7.96-1.28,12.9-3.1,4.71-1.73,8.52-3.83,11.39-5.68-2.95-1.83-6.76-3.85-11.39-5.55-4.9-1.8-9.33-2.73-12.9-3.23h0Z" style="fill: url(#j);"/>
        </g>
        <g>
          <rect x="399.17" y=".48" width="6.74" height="23.53" rx="2.52" ry="2.52" style="fill: url(#k);"/>
          <path d="M403.39,1.48c.84,0,1.52.68,1.52,1.52v18.5c0,.84-.68,1.52-1.52,1.52h-1.71c-.84,0-1.52-.68-1.52-1.52V3c0-.84.68-1.52,1.52-1.52h1.71M403.39.48h-1.71c-1.39,0-2.52,1.13-2.52,2.52v18.5c0,1.39,1.13,2.52,2.52,2.52h1.71c1.39,0,2.52-1.13,2.52-2.52V3c0-1.39-1.13-2.52-2.52-2.52h0Z" style="fill: url(#l);"/>
        </g>
        <path d="M603.21,14.76h-179.52c-1.39,0-2.52-1.13-2.52-2.52h0c0-1.39,1.13-2.51,2.52-2.51h179.52c1.39,0,2.52,1.13,2.52,2.52h0c0,1.39-1.13,2.51-2.52,2.51Z" style="fill: #34f9df; stroke: url(#m); stroke-linecap: round; stroke-linejoin: bevel;"/>
        <g style="opacity: .8;">
          <path d="M430.3,12.75h165.74c.28,0,.5-.23.5-.51s-.22-.5-.5-.5h-165.74c-.28,0-.5.23-.5.51s.22.5.5.5Z" style="fill: #e6fefb;"/>
        </g>
      </g>
      <rect x="307.84" y="2.97" width="19.35" height="19.35" rx="2.51" ry="2.51" transform="translate(84.06 228.22) rotate(-45)" style="fill: url(#n);"/>
      <rect x="309.14" y="4.26" width="16.77" height="16.77" rx="2.51" ry="2.51" transform="translate(84.06 228.23) rotate(-45)" style="fill: url(#o);"/>
      <rect x="311.67" y="6.8" width="11.69" height="11.69" rx="2.51" ry="2.51" transform="translate(84.05 228.22) rotate(-45)" style="fill: url(#p);"/>
      <rect x="312.99" y="8.12" width="9.05" height="9.05" rx="2.51" ry="2.51" transform="translate(84.06 228.22) rotate(-45)" style="fill: url(#q);"/>
    </g>
  </g>
</svg>