<?xml version="1.0" encoding="UTF-8"?>
<svg id="Layer_2" data-name="Layer 2" xmlns="http://www.w3.org/2000/svg" viewBox="0 0 637.04 23.53">
  <g id="Layer_1-2" data-name="Layer 1">
    <g id="divider-swords-flat">
      <path d="M226.17,2.99H24.29c-3.57.5-8.01,1.43-12.9,3.23C6.76,7.92,2.95,9.94,0,11.77c2.87,1.85,6.67,3.95,11.39,5.68,4.95,1.81,9.41,2.68,12.9,3.1h201.88V2.99ZM211.36,14.28H31.82c-1.38,0-2.52-1.13-2.52-2.52s1.13-2.52,2.52-2.52h179.53c1.38,0,2.52,1.13,2.52,2.52s-1.13,2.52-2.52,2.52Z"/>
      <path d="M233.36,0h-1.71c-1.36,0-2.45,1.08-2.51,2.42v18.69c.05,1.34,1.15,2.42,2.51,2.42h1.71c1.37,0,2.48-1.09,2.51-2.45V2.45c-.03-1.36-1.14-2.45-2.51-2.45Z"/>
      <path d="M305.9,10.39l3.5-4.5h-70.55v11.74h69.74l-2.69-3.69c-.98-.98-.98-2.58,0-3.56Z"/>
      <path d="M625.65,6.22c-4.9-1.8-9.33-2.73-12.9-3.23h-201.87v17.55h201.87c3.49-.42,7.96-1.28,12.9-3.1,4.71-1.73,8.52-3.83,11.39-5.68-2.95-1.83-6.76-3.85-11.39-5.55ZM605.22,14.28h-179.53c-1.38,0-2.52-1.13-2.52-2.52s1.13-2.52,2.52-2.52h179.53c1.38,0,2.52,1.13,2.52,2.52s-1.13,2.52-2.52,2.52Z"/>
      <path d="M407.91,2.99h0v-.48c0-1.39-1.13-2.52-2.52-2.52h-1.71c-1.35,0-2.43,1.06-2.5,2.39v18.76c.07,1.33,1.16,2.39,2.5,2.39h1.71c1.39,0,2.52-1.13,2.52-2.52v-.48h0V2.99Z"/>
      <path d="M329.03,17.64h69.17V5.9h-69.98l3.5,4.5c.98.98.98,2.58,0,3.56l-2.69,3.69Z"/>
      <path d="M327.49,10.18l-7.39-7.39c-.87-.87-2.29-.87-3.16,0l-7.39,7.39c-.87.87-.87,2.29,0,3.16l7.39,7.39c.87.87,2.29.87,3.16,0l7.39-7.39c.87-.87.87-2.29,0-3.16ZM324.29,13.35l-4.19,4.19c-.87.87-2.29.87-3.16,0l-4.19-4.19c-.87-.87-.87-2.29,0-3.16l4.19-4.19c.87-.87,2.29-.87,3.16,0l4.19,4.19c.87.87.87,2.29,0,3.16Z"/>
    </g>
  </g>
</svg>