<?xml version="1.0" encoding="UTF-8"?>
<svg id="Layer_2" data-name="Layer 2" xmlns="http://www.w3.org/2000/svg" xmlns:xlink="http://www.w3.org/1999/xlink" viewBox="0 0 635.04 25.28">
  <defs>
    <style>
      .cls-1 {
        fill: url(#linear-gradient-2);
      }

      .cls-2 {
        fill: url(#linear-gradient-10);
      }

      .cls-3 {
        fill: url(#linear-gradient-12);
      }

      .cls-4 {
        fill: #fff;
      }

      .cls-5 {
        fill: url(#linear-gradient-4);
      }

      .cls-6 {
        fill: url(#radial-gradient);
      }

      .cls-7 {
        fill: url(#New_Gradient_Swatch-2);
      }

      .cls-8 {
        opacity: .8;
      }

      .cls-9 {
        fill: url(#linear-gradient-3);
      }

      .cls-10 {
        fill: url(#linear-gradient-8);
      }

      .cls-11 {
        stroke: url(#linear-gradient-5);
      }

      .cls-11, .cls-12 {
        fill: #40c3d8;
        stroke-linecap: round;
        stroke-linejoin: bevel;
      }

      .cls-12 {
        stroke: url(#linear-gradient-9);
      }

      .cls-13 {
        fill: url(#linear-gradient-7);
      }

      .cls-14 {
        fill: url(#New_Gradient_Swatch);
      }

      .cls-15 {
        fill: url(#linear-gradient-11);
      }

      .cls-16 {
        fill: url(#linear-gradient-6);
      }

      .cls-17 {
        fill: url(#linear-gradient);
      }
    </style>
    <linearGradient id="New_Gradient_Swatch" data-name="New Gradient Swatch" x1="-245.42" y1="-50.11" x2="-125.55" y2="-169.98" gradientTransform="translate(305.35 122.28)" gradientUnits="userSpaceOnUse">
      <stop offset="0" stop-color="#b2bec0"/>
      <stop offset=".2" stop-color="#d1d8d9"/>
      <stop offset=".3" stop-color="#657d80"/>
      <stop offset=".3" stop-color="#6f8588"/>
      <stop offset=".4" stop-color="#a3b1b3"/>
      <stop offset=".5" stop-color="#c4cdce"/>
      <stop offset=".6" stop-color="#d1d8d9"/>
      <stop offset=".6" stop-color="#bdc7c8"/>
      <stop offset=".7" stop-color="#8b9d9f"/>
      <stop offset=".8" stop-color="#657d80"/>
      <stop offset=".8" stop-color="#778c8f"/>
      <stop offset=".9" stop-color="#a1b0b2"/>
      <stop offset="1" stop-color="#b2bec0"/>
    </linearGradient>
    <linearGradient id="linear-gradient" x1="115.38" y1="1.87" x2="115.75" y2="23.02" gradientUnits="userSpaceOnUse">
      <stop offset="0" stop-color="#fff"/>
      <stop offset="1" stop-color="#4e5e63"/>
    </linearGradient>
    <linearGradient id="linear-gradient-2" x1="14.62" y1="-115.92" x2="14.62" y2="-104.17" gradientTransform="translate(305.35 122.28)" gradientUnits="userSpaceOnUse">
      <stop offset="0" stop-color="#b2bec0"/>
      <stop offset=".2" stop-color="#d1d8d9"/>
      <stop offset=".3" stop-color="#657d80"/>
      <stop offset=".3" stop-color="#6f8588"/>
      <stop offset=".4" stop-color="#a3b1b3"/>
      <stop offset=".5" stop-color="#c4cdce"/>
      <stop offset=".6" stop-color="#d1d8d9"/>
      <stop offset=".6" stop-color="#bdc7c8"/>
      <stop offset=".7" stop-color="#8b9d9f"/>
      <stop offset=".8" stop-color="#657d80"/>
      <stop offset=".8" stop-color="#778c8f"/>
      <stop offset=".9" stop-color="#a1b0b2"/>
      <stop offset="1" stop-color="#b2bec0"/>
    </linearGradient>
    <linearGradient id="linear-gradient-3" x1="-72.85" y1="-98.28" x2="-72.85" y2="-121.81" xlink:href="#linear-gradient-2"/>
    <linearGradient id="linear-gradient-4" x1="225.67" y1="19.07" x2="239.33" y2="5.41" gradientTransform="matrix(1,0,0,1,0,0)" xlink:href="#linear-gradient-2"/>
    <linearGradient id="linear-gradient-5" x1="-183.76" y1="-107.03" x2="-183.76" y2="-113.06" gradientTransform="translate(305.35 122.28)" gradientUnits="userSpaceOnUse">
      <stop offset="0" stop-color="#d1d7d8"/>
      <stop offset="1" stop-color="#6a7c80"/>
    </linearGradient>
    <linearGradient id="New_Gradient_Swatch-2" data-name="New Gradient Swatch" x1="-221.3" y1="133.77" x2="-101.43" y2="13.9" gradientTransform="translate(353.81 -61.6) rotate(-180) scale(1 -1)" xlink:href="#New_Gradient_Swatch"/>
    <linearGradient id="linear-gradient-6" x1="519.66" y1="1.87" x2="519.29" y2="23.02" xlink:href="#linear-gradient"/>
    <linearGradient id="linear-gradient-7" x1="-48.73" y1="85.6" x2="-48.73" y2="62.07" gradientTransform="translate(353.81 -61.6) rotate(-180) scale(1 -1)" xlink:href="#linear-gradient-2"/>
    <linearGradient id="linear-gradient-8" x1="409.37" y1="19.07" x2="395.71" y2="5.41" gradientTransform="matrix(1,0,0,1,0,0)" xlink:href="#linear-gradient-2"/>
    <linearGradient id="linear-gradient-9" x1="-159.64" y1="76.85" x2="-159.64" y2="70.82" gradientTransform="translate(673.09 86.07) scale(1 -1)" xlink:href="#linear-gradient-5"/>
    <linearGradient id="linear-gradient-10" x1="313.66" y1="-6.3" x2="313.66" y2="13.06" gradientTransform="translate(3.86 9.26)" gradientUnits="userSpaceOnUse">
      <stop offset="0" stop-color="#dadcdd"/>
      <stop offset="1" stop-color="#5b666b"/>
    </linearGradient>
    <linearGradient id="linear-gradient-11" x1="307.67" y1="-5.41" x2="319.93" y2="12.58" gradientTransform="translate(3.86 9.26)" gradientUnits="userSpaceOnUse">
      <stop offset=".2" stop-color="#d1d8d9"/>
      <stop offset=".3" stop-color="#657d80"/>
      <stop offset=".3" stop-color="#6f8588"/>
      <stop offset=".4" stop-color="#a3b1b3"/>
      <stop offset=".5" stop-color="#c4cdce"/>
      <stop offset=".6" stop-color="#d1d8d9"/>
      <stop offset=".6" stop-color="#bdc7c8"/>
      <stop offset=".7" stop-color="#8b9d9f"/>
      <stop offset=".8" stop-color="#657d80"/>
      <stop offset=".8" stop-color="#778c8f"/>
      <stop offset=".9" stop-color="#a1b0b2"/>
      <stop offset=".96" stop-color="#b2bec0"/>
    </linearGradient>
    <linearGradient id="linear-gradient-12" x1="315.37" y1="9.75" x2="311.95" y2="-2.99" gradientTransform="translate(3.86 9.26)" xlink:href="#linear-gradient-10"/>
    <radialGradient id="radial-gradient" cx="313.66" cy="3.38" fx="313.66" fy="3.38" r="4.53" gradientTransform="translate(3.86 9.26)" gradientUnits="userSpaceOnUse">
      <stop offset=".17" stop-color="#fff"/>
      <stop offset=".86" stop-color="#40c3d8"/>
    </radialGradient>
  </defs>
  <g id="Layer_1-2" data-name="Layer 1">
    <g>
      <g>
        <g>
          <path class="cls-14" d="M24.29,21.01h206.68V3.46H24.29c-3.57.5-8.01,1.43-12.9,3.23C6.76,8.39,2.95,10.41,0,12.24c2.87,1.85,6.67,3.95,11.39,5.68,4.95,1.81,9.41,2.68,12.9,3.1Z"/>
          <path class="cls-17" d="M228.97,5.46v13.55H24.41c-4.21-.52-8.36-1.52-12.34-2.97-2.81-1.03-5.55-2.29-8.16-3.77,2.62-1.43,5.36-2.67,8.16-3.7,3.99-1.46,8.14-2.51,12.35-3.1h204.54M230.97,3.46H24.29c-3.57.5-8.01,1.43-12.9,3.23-4.63,1.7-8.44,3.72-11.39,5.55,2.87,1.85,6.67,3.95,11.39,5.68,4.95,1.81,9.41,2.68,12.9,3.1h206.68V3.46h0Z"/>
        </g>
        <path class="cls-1" d="M400.96,18.11h-165.09V6.37s165.09,0,165.09,0c1.32,1.2,3.1,3.25,3.11,5.86,0,2.62-1.78,4.68-3.11,5.88Z"/>
        <g>
          <rect class="cls-9" x="229.13" y=".47" width="6.74" height="23.53" rx="2.52" ry="2.52"/>
          <path class="cls-5" d="M233.36,1.47c.84,0,1.52.68,1.52,1.52v18.5c0,.84-.68,1.52-1.52,1.52h-1.71c-.84,0-1.52-.68-1.52-1.52V2.99c0-.84.68-1.52,1.52-1.52h1.71M233.36.47h-1.71c-1.39,0-2.52,1.13-2.52,2.52v18.5c0,1.39,1.13,2.52,2.52,2.52h1.71c1.39,0,2.52-1.13,2.52-2.52V2.99c0-1.39-1.13-2.52-2.52-2.52h0Z"/>
        </g>
        <rect class="cls-11" x="29.31" y="9.72" width="184.56" height="5.03" rx="2.52" ry="2.52"/>
        <g class="cls-8">
          <path class="cls-4" d="M203.74,12.74H39c-.28,0-.5-.23-.5-.51,0-.28.22-.5.5-.5h164.74c.28,0,.5.23.5.51,0,.28-.22.5-.5.5Z"/>
        </g>
      </g>
      <g>
        <g>
          <path class="cls-7" d="M610.75,21.01h-206.68V3.46h206.68c3.57.5,8.01,1.43,12.9,3.23,4.63,1.7,8.44,3.72,11.39,5.55-2.87,1.85-6.67,3.95-11.39,5.68-4.95,1.81-9.41,2.68-12.9,3.1Z"/>
          <path class="cls-16" d="M610.61,5.46c4.21.6,8.37,1.64,12.35,3.1,2.8,1.03,5.54,2.27,8.16,3.7-2.61,1.47-5.35,2.74-8.16,3.77-3.98,1.46-8.13,2.46-12.34,2.97h-204.56V5.46h204.54M610.75,3.46h-206.68v17.55h206.68c3.49-.42,7.96-1.28,12.9-3.1,4.71-1.73,8.52-3.83,11.39-5.68-2.95-1.83-6.76-3.85-11.39-5.55-4.9-1.8-9.33-2.73-12.9-3.23h0Z"/>
        </g>
        <g>
          <rect class="cls-13" x="399.17" y=".47" width="6.74" height="23.53" rx="2.52" ry="2.52"/>
          <path class="cls-10" d="M403.39,1.47c.84,0,1.52.68,1.52,1.52v18.5c0,.84-.68,1.52-1.52,1.52h-1.71c-.84,0-1.52-.68-1.52-1.52V2.99c0-.84.68-1.52,1.52-1.52h1.71M403.39.47h-1.71c-1.39,0-2.52,1.13-2.52,2.52v18.5c0,1.39,1.13,2.52,2.52,2.52h1.71c1.39,0,2.52-1.13,2.52-2.52V2.99c0-1.39-1.13-2.52-2.52-2.52h0Z"/>
        </g>
        <rect class="cls-12" x="421.17" y="9.72" width="184.56" height="5.03" rx="2.52" ry="2.52" transform="translate(1026.9 24.47) rotate(-180)"/>
        <g class="cls-8">
          <path class="cls-4" d="M430.3,12.74h165.74c.28,0,.5-.23.5-.51s-.22-.5-.5-.5h-165.74c-.28,0-.5.23-.5.51s.22.5.5.5Z"/>
        </g>
      </g>
      <rect class="cls-2" x="307.84" y="2.96" width="19.35" height="19.35" rx="2.51" ry="2.51" transform="translate(84.06 228.22) rotate(-45)"/>
      <rect class="cls-15" x="309.14" y="4.26" width="16.77" height="16.77" rx="2.51" ry="2.51" transform="translate(84.06 228.22) rotate(-45)"/>
      <rect class="cls-3" x="311.67" y="6.8" width="11.69" height="11.69" rx="2.51" ry="2.51" transform="translate(84.06 228.22) rotate(-45)"/>
      <rect class="cls-6" x="312.99" y="8.11" width="9.05" height="9.05" rx="2.51" ry="2.51" transform="translate(84.06 228.22) rotate(-45)"/>
    </g>
  </g>
</svg>