<?xml version="1.0" encoding="UTF-8"?>
<svg id="b" data-name="Layer 2" xmlns="http://www.w3.org/2000/svg" xmlns:xlink="http://www.w3.org/1999/xlink" viewBox="0 0 117 127.68">
  <defs>
    <style>
      .i {
        opacity: .45;
      }

      .i, .j {
        fill: #7ad5e4;
      }

      .k {
        fill: url(#h);
      }

      .l {
        fill: url(#g);
      }

      .m {
        fill: #475759;
      }

      .n {
        fill: #a0e1ec;
        stroke: #c6edf3;
        stroke-linecap: round;
      }

      .n, .o {
        stroke-miterlimit: 10;
      }

      .p {
        fill: url(#e);
      }

      .q {
        fill: url(#f);
      }

      .o {
        fill: none;
        stroke: #7ad5e4;
      }

      .r {
        fill: #9ad4e3;
      }
    </style>
    <linearGradient id="e" x1="58.55" y1="116.77" x2="58.55" y2="127.68" gradientUnits="userSpaceOnUse">
      <stop offset="0" stop-color="#b2bec0"/>
      <stop offset=".2" stop-color="#d1d8d9"/>
      <stop offset=".3" stop-color="#657d80"/>
      <stop offset=".3" stop-color="#6f8588"/>
      <stop offset=".4" stop-color="#a3b1b3"/>
      <stop offset=".5" stop-color="#c4cdce"/>
      <stop offset=".6" stop-color="#d1d8d9"/>
      <stop offset=".6" stop-color="#bdc7c8"/>
      <stop offset=".7" stop-color="#8b9d9f"/>
      <stop offset=".8" stop-color="#657d80"/>
      <stop offset=".8" stop-color="#778c8f"/>
      <stop offset=".9" stop-color="#a1b0b2"/>
      <stop offset="1" stop-color="#b2bec0"/>
    </linearGradient>
    <linearGradient id="f" x1="57.94" y1="125.16" x2="57.94" y2="119.29" gradientUnits="userSpaceOnUse">
      <stop offset="0" stop-color="#94a4a6"/>
      <stop offset="1" stop-color="#475759"/>
    </linearGradient>
    <linearGradient id="g" y1="0" y2="10.91" xlink:href="#e"/>
    <linearGradient id="h" y1="8.39" y2="2.52" xlink:href="#f"/>
  </defs>
  <g id="c" data-name="Tablet">
    <rect class="i" x="6.85" y="11.3" width="102.81" height="105.51"/>
    <g>
      <path class="j" d="M14.58,19.78h1.05l-1.76,2.51h-1.3v-4.2h.84v3.36l1.17-1.68ZM15.84,22.3v-4.2h.84v4.2h-.84Z"/>
      <path class="j" d="M19.26,20.62l-.58.84h2.55v.84h-4.19l2.93-4.2h1.05l-1.17,1.68h1.38v.84h-1.97ZM17.04,18.94v-.84h.84v.84h-.84Z"/>
      <path class="j" d="M27.99,18.1v2.52h-.84v-1.68h-1.72l1.17,1.68h-1.05l-.92-1.32v3h-.84v-4.2h4.19Z"/>
      <path class="j" d="M31.71,20.61v-1.68h-1.72l2.35,3.36h-1.05l-2.09-3v3h-.84v-4.2h4.19v2.52h-.84Z"/>
      <path class="j" d="M37.94,21.46v.84h-5.03v-.84h3.39l-1.76-2.52h-1.63v-.84h2.09l2.35,3.36h.59Z"/>
      <path class="j" d="M43.33,18.1v4.2h-1.05l-2.34-3.36h-1.63v-.84h2.09l2.09,3v-3h.84ZM38.31,22.3v-.84h.84v.84h-.84Z"/>
      <path class="j" d="M47.67,22.3h-1.05l-2.93-4.2h1.05l2.93,4.2ZM43.69,22.3v-.84h.84v.84h-.84Z"/>
      <path class="j" d="M48.04,22.3v-4.2h.84v4.2h-.84ZM52.23,18.1v4.2h-2.51v-.84h1.67v-2.52h-1.67v-.84h2.51ZM49.71,20.61v-.84h.84v.84h-.84Z"/>
      <path class="j" d="M54.81,20.62l-.58.84h2.55v.84h-4.19l2.93-4.2h1.05l-1.17,1.68h1.38v.84h-1.97ZM52.59,18.94v-.84h.84v.84h-.84Z"/>
      <path class="j" d="M16.76,25.3v2.52h-.84v-1.68h-1.72l1.17,1.68h-1.05l-.92-1.32v3h-.84v-4.2h4.19Z"/>
      <path class="j" d="M20.48,27.81v-1.68h-1.72l2.35,3.36h-1.05l-2.09-3v3h-.84v-4.2h4.19v2.52h-.84Z"/>
      <path class="j" d="M23.9,27.82l-.58.84h2.55v.84h-4.19l2.93-4.2h1.05l-1.17,1.68h1.38v.84h-1.97ZM21.68,26.14v-.84h.84v.84h-.84Z"/>
      <path class="j" d="M26.24,27.82v-2.52h.84v2.52h-.84ZM26.24,29.5v-.84h.84v.84h-.84Z"/>
      <path class="j" d="M29.44,26.98h1.05l-1.76,2.51h-1.3v-4.2h.84v3.36l1.17-1.68ZM30.7,29.5v-4.2h.84v4.2h-.84Z"/>
      <path class="j" d="M35.25,27.81v-1.68h-1.72l2.35,3.36h-1.05l-2.09-3v3h-.84v-4.2h4.19v2.52h-.84Z"/>
      <path class="j" d="M40.43,29.5h-1.05l-2.93-4.2h1.05l2.93,4.2ZM36.45,29.5v-.84h.84v.84h-.84Z"/>
      <path class="j" d="M43.73,28.66h2.09v.84h-5.03v-.84h2.09v-3.36h.84v3.36ZM40.8,27.81v-2.52h.84v2.52h-.84ZM44.99,27.81v-2.52h.84v2.52h-.84Z"/>
      <path class="j" d="M49.12,28.66h2.09v.84h-5.03v-.84h2.09v-3.36h.84v3.36ZM46.19,27.81v-2.52h.84v2.52h-.84ZM50.38,27.81v-2.52h.84v2.52h-.84Z"/>
      <path class="j" d="M53.8,27.82l-.58.84h2.55v.84h-4.19l2.93-4.2h1.05l-1.17,1.68h1.38v.84h-1.97ZM51.58,26.14v-.84h.84v.84h-.84Z"/>
      <path class="j" d="M57.81,26.14h-.84v3.36h-.84v-4.2h2.51v2.52h-.84v-1.68ZM60.33,25.3v4.2h-2.51v-.84h1.67v-3.36h.84Z"/>
      <path class="j" d="M16.76,32.5v4.2h-.84v-2.57l-2.51,1.76v.81h-.84v-1.27l3.35-2.34v-.59h.84Z"/>
      <path class="j" d="M18.8,33.34h-.84v3.36h-.84v-4.2h2.51v2.52h-.84v-1.68ZM21.32,32.5v4.2h-2.51v-.84h1.67v-3.36h.84Z"/>
      <path class="j" d="M21.68,36.7v-4.2h.84v4.2h-.84ZM25.87,32.5v4.2h-2.51v-.84h1.67v-2.52h-1.67v-.84h2.51ZM23.36,35.01v-.84h.84v.84h-.84Z"/>
      <path class="j" d="M16.55,43.9h-1.05l-2.09-3v3h-.84v-4.2h1.05l2.93,4.2Z"/>
      <path class="j" d="M21.11,39.7v4.2h-2.4l-1.79-1.25v-2.95h.84v2.49l1.24.87h1.27v-3.36h.84Z"/>
      <path class="j" d="M24.82,42.21v-1.68h-1.72l2.35,3.36h-1.05l-2.93-4.2h4.19v2.52h-.84ZM21.47,43.9v-.84h.84v.84h-.84Z"/>
      <path class="j" d="M28.96,43.06h2.09v.84h-5.03v-.84h2.09v-3.36h.84v3.36ZM26.03,42.21v-2.52h.84v2.52h-.84ZM30.21,42.21v-2.52h.84v2.52h-.84Z"/>
      <path class="j" d="M36.45,43.06v.84h-5.03v-.84h3.39l-1.76-2.52h-1.63v-.84h2.09l2.35,3.36h.59Z"/>
      <path class="j" d="M36.81,39.7h2.51v1.68h-.84v-.84h-.84v3.36h-.84v-4.2ZM38.49,43.9v-1.68h.84v1.68h-.84ZM40.16,43.9v-4.2h.84v4.2h-.84Z"/>
      <path class="j" d="M45.35,43.9h-1.05l-2.93-4.2h1.05l2.93,4.2ZM41.37,43.9v-.84h.84v.84h-.84Z"/>
      <path class="j" d="M49.9,43.9h-4.19v-2.52h.84v1.68h1.72l-2.35-3.36h1.05l2.93,4.2ZM49.06,40.54v-.84h.84v.84h-.84Z"/>
      <path class="j" d="M54.45,39.7v4.2h-.84v-2.57l-2.51,1.76v.81h-.84v-1.27l3.35-2.34v-.59h.84Z"/>
      <path class="j" d="M57.33,42.21h-1.67v1.68h-.84v-4.2h.84v1.68h1.67v.84ZM59.01,39.7v4.2h-2.51v-.84h1.67v-2.52h-1.67v-.84h2.51Z"/>
      <path class="j" d="M59.37,40.54v-.84h.84v.84h-.84ZM59.37,43.9v-.84h.84v.84h-.84ZM63.56,39.7v4.2h-2.51v-.84h1.68v-2.52h-1.68v-.84h2.51Z"/>
      <path class="j" d="M14.79,49.42l-.58.84h2.55v.84h-4.19l2.93-4.2h1.05l-1.17,1.68h1.38v.84h-1.97ZM12.57,47.74v-.84h.84v.84h-.84Z"/>
      <path class="j" d="M23.53,46.9v2.52h-.84v-1.68h-1.72l1.17,1.68h-1.05l-.92-1.32v3h-.84v-4.2h4.19Z"/>
      <path class="j" d="M28.92,50.26v.84h-5.03v-.84h3.39l-1.76-2.52h-1.63v-.84h2.09l2.35,3.36h.59Z"/>
      <path class="j" d="M29.29,47.74v-.84h.84v.84h-.84ZM29.29,51.1v-.84h.84v.84h-.84ZM33.48,46.9v4.2h-2.51v-.84h1.68v-2.52h-1.68v-.84h2.51Z"/>
      <path class="j" d="M37.82,51.1h-1.05l-2.93-4.2h1.05l2.93,4.2ZM33.84,51.1v-.84h.84v.84h-.84Z"/>
      <path class="j" d="M42.17,51.1h-1.05l-2.09-3v3h-.84v-4.2h1.05l2.93,4.2Z"/>
      <path class="j" d="M46.51,51.1h-1.05l-2.93-4.2h1.05l2.93,4.2ZM42.53,51.1v-.84h.84v.84h-.84Z"/>
      <path class="j" d="M49.09,49.42l-.58.84h2.55v.84h-4.19l2.93-4.2h1.05l-1.17,1.68h1.38v.84h-1.97ZM46.87,47.74v-.84h.84v.84h-.84Z"/>
      <path class="j" d="M54.78,49.41v-1.68h-1.72l2.35,3.36h-1.05l-2.93-4.2h4.19v2.52h-.84ZM51.43,51.1v-.84h.84v.84h-.84Z"/>
      <path class="j" d="M15.09,56.61h-1.67v1.68h-.84v-4.2h.84v1.68h1.67v.84ZM16.76,54.1v4.2h-2.51v-.84h1.67v-2.52h-1.67v-.84h2.51Z"/>
      <path class="j" d="M21.32,54.1v4.2h-.84v-2.57l-2.51,1.76v.81h-.84v-1.27l3.35-2.34v-.59h.84Z"/>
      <path class="j" d="M25.03,56.61v-1.68h-1.72l2.35,3.36h-1.05l-2.93-4.2h4.19v2.52h-.84ZM21.68,58.3v-.84h.84v.84h-.84Z"/>
      <path class="j" d="M28.45,56.62l-.58.84h2.55v.84h-4.19l2.93-4.2h1.05l-1.17,1.68h1.38v.84h-1.97ZM26.24,54.94v-.84h.84v.84h-.84Z"/>
      <path class="j" d="M30.79,58.3v-4.2h.84v4.2h-.84ZM34.98,54.1v4.2h-2.51v-.84h1.67v-2.52h-1.67v-.84h2.51ZM32.46,56.61v-.84h.84v.84h-.84Z"/>
      <path class="j" d="M42.58,57.46v.84h-5.03v-.84h3.39l-1.76-2.52h-1.63v-.84h2.09l2.35,3.36h.59Z"/>
      <path class="j" d="M44.63,54.94h-.84v3.36h-.84v-4.2h2.51v2.52h-.84v-1.68ZM47.14,54.1v4.2h-2.51v-.84h1.68v-3.36h.84Z"/>
      <path class="j" d="M15.51,64.66h2.09v.84h-5.03v-.84h2.09v-3.36h.84v3.36ZM12.57,63.81v-2.52h.84v2.52h-.84ZM16.76,63.81v-2.52h.84v2.52h-.84Z"/>
      <path class="j" d="M17.97,62.14v-.84h5.03v.84h-5.03ZM20.65,64.66h2.35v.84h-5.03v-.84h1.63l1.17-1.68h1.05l-1.17,1.68Z"/>
      <path class="j" d="M25.58,63.82l-.58.84h2.55v.84h-4.19l2.93-4.2h1.05l-1.17,1.68h1.38v.84h-1.97ZM23.36,62.14v-.84h.84v.84h-.84Z"/>
      <path class="j" d="M16.55,72.7h-1.05l-2.93-4.2h1.05l2.93,4.2ZM12.57,72.7v-.84h.84v.84h-.84Z"/>
      <path class="j" d="M18.59,69.34h-.84v3.36h-.84v-4.2h2.51v2.52h-.84v-1.68ZM21.11,68.5v4.2h-2.51v-.84h1.67v-3.36h.84Z"/>
      <path class="j" d="M21.47,72.7v-4.2h.84v4.2h-.84ZM25.66,68.5v4.2h-2.51v-.84h1.67v-2.52h-1.67v-.84h2.51ZM23.15,71.01v-.84h.84v.84h-.84Z"/>
      <path class="j" d="M30.21,68.5v4.2h-2.4l-1.79-1.25v-2.95h.84v2.49l1.24.87h1.27v-3.36h.84Z"/>
      <path class="j" d="M33.93,71.01v-1.68h-1.72l2.35,3.36h-1.05l-2.93-4.2h4.19v2.51h-.84ZM30.58,72.7v-.84h.84v.84h-.84Z"/>
      <path class="j" d="M38.06,71.86h2.09v.84h-5.03v-.84h2.09v-3.36h.84v3.36ZM35.13,71.01v-2.51h.84v2.51h-.84ZM39.32,71.01v-2.51h.84v2.51h-.84Z"/>
      <path class="j" d="M43.88,71.01v-1.68h-1.72l2.35,3.36h-1.05l-2.09-3v3h-.84v-4.2h4.19v2.51h-.84Z"/>
      <path class="j" d="M49.27,68.5v4.2h-4.19v-.84h3.35v-3.36h.84ZM45.08,71.01v-2.51h.84v1.68h1.68v.84h-2.51Z"/>
      <path class="j" d="M15.92,78.21v-1.68h-1.72l2.35,3.36h-1.05l-2.93-4.2h4.19v2.51h-.84ZM12.57,79.9v-.84h.84v.84h-.84Z"/>
      <path class="j" d="M20.06,79.06h2.09v.84h-5.03v-.84h2.09v-3.36h.84v3.36ZM17.13,78.21v-2.51h.84v2.51h-.84ZM21.32,78.21v-2.51h.84v2.51h-.84Z"/>
      <path class="j" d="M26.71,75.7v4.2h-.84v-2.57l-2.51,1.76v.81h-.84v-1.27l3.35-2.34v-.58h.84Z"/>
      <path class="j" d="M28.75,76.54h-.84v3.36h-.84v-4.2h2.51v2.52h-.84v-1.68ZM31.26,75.7v4.2h-2.51v-.84h1.68v-3.36h.84Z"/>
      <path class="j" d="M31.63,79.9v-4.2h.84v4.2h-.84ZM35.82,75.7v4.2h-2.51v-.84h1.68v-2.52h-1.68v-.84h2.51ZM33.3,78.21v-.84h.84v.84h-.84Z"/>
      <path class="j" d="M40.37,75.7v4.2h-.84v-2.57l-2.51,1.76v.81h-.84v-1.27l3.35-2.34v-.58h.84Z"/>
      <path class="j" d="M44.09,78.21v-1.68h-1.72l2.35,3.36h-1.05l-2.09-3v3h-.84v-4.2h4.19v2.51h-.84Z"/>
      <path class="j" d="M45.29,79.9v-4.2h.84v4.2h-.84ZM49.48,75.7v4.2h-2.51v-.84h1.68v-2.52h-1.68v-.84h2.51ZM46.97,78.21v-.84h.84v.84h-.84Z"/>
      <path class="j" d="M53.19,78.21v-1.68h-1.72l2.35,3.36h-1.05l-2.93-4.2h4.19v2.51h-.84ZM49.84,79.9v-.84h.84v.84h-.84Z"/>
      <path class="j" d="M16.76,82.9v4.2h-2.4l-1.79-1.25v-2.95h.84v2.49l1.24.87h1.27v-3.36h.84Z"/>
      <path class="j" d="M20.48,85.41v-1.68h-1.72l2.35,3.36h-1.05l-2.93-4.2h4.19v2.51h-.84ZM17.13,87.1v-.84h.84v.84h-.84Z"/>
      <path class="j" d="M23.9,85.42l-.58.84h2.55v.84h-4.19l2.93-4.2h1.05l-1.17,1.68h1.38v.84h-1.97ZM21.68,83.74v-.84h.84v.84h-.84Z"/>
      <path class="j" d="M26.24,87.1v-4.2h.84v4.2h-.84ZM30.42,82.9v4.2h-2.51v-.84h1.67v-2.52h-1.67v-.84h2.51ZM27.91,85.41v-.84h.84v.84h-.84Z"/>
      <path class="j" d="M35.52,85.41h-1.67v1.68h-.84v-4.2h.84v1.68h1.67v.84ZM37.19,82.9v4.2h-2.51v-.84h1.67v-2.52h-1.67v-.84h2.51Z"/>
      <path class="j" d="M41.74,82.9v4.2h-4.19v-.84h3.35v-3.36h.84ZM37.56,85.41v-2.51h.84v1.68h1.68v.84h-2.51Z"/>
      <path class="j" d="M12.57,90.1h2.51v1.68h-.84v-.84h-.84v3.36h-.84v-4.2ZM14.25,94.3v-1.68h.84v1.68h-.84ZM15.92,94.3v-4.2h.84v4.2h-.84Z"/>
      <path class="j" d="M21.32,90.1v4.2h-2.4l-1.79-1.25v-2.95h.84v2.49l1.24.87h1.27v-3.36h.84Z"/>
      <path class="j" d="M21.68,90.94v-.84h.84v.84h-.84ZM21.68,94.3v-.84h.84v.84h-.84ZM25.87,90.1v4.2h-2.51v-.84h1.67v-2.52h-1.67v-.84h2.51Z"/>
      <path class="j" d="M29.17,93.46h2.09v.84h-5.03v-.84h2.09v-3.36h.84v3.36ZM26.24,92.61v-2.51h.84v2.51h-.84ZM30.42,92.61v-2.51h.84v2.51h-.84Z"/>
      <path class="j" d="M35.61,94.3h-1.05l-2.93-4.2h1.05l2.93,4.2ZM31.63,94.3v-.84h.84v.84h-.84Z"/>
      <path class="j" d="M38.49,92.61h-1.67v1.68h-.84v-4.2h.84v1.68h1.67v.84ZM40.16,90.1v4.2h-2.51v-.84h1.67v-2.52h-1.67v-.84h2.51Z"/>
      <path class="j" d="M44.51,94.3h-1.05l-2.93-4.2h1.05l2.93,4.2ZM40.53,94.3v-.84h.84v.84h-.84Z"/>
      <path class="j" d="M44.87,90.94v-.84h.84v.84h-.84ZM44.87,94.3v-.84h.84v.84h-.84ZM49.06,90.1v4.2h-2.51v-.84h1.67v-2.52h-1.67v-.84h2.51Z"/>
      <path class="j" d="M49.42,90.94v-.84h.84v.84h-.84ZM49.42,94.3v-.84h.84v.84h-.84ZM53.61,90.1v4.2h-2.51v-.84h1.67v-2.52h-1.67v-.84h2.51Z"/>
      <path class="j" d="M57.96,94.3h-1.05l-2.93-4.2h1.05l2.93,4.2ZM53.98,94.3v-.84h.84v.84h-.84Z"/>
      <path class="j" d="M63.35,93.46v.84h-5.03v-.84h3.39l-1.76-2.52h-1.63v-.84h2.09l2.35,3.36h.59Z"/>
      <path class="j" d="M14.25,98.14h-.84v3.36h-.84v-4.2h2.51v2.52h-.84v-1.68ZM16.76,97.3v4.2h-2.51v-.84h1.67v-3.36h.84Z"/>
      <path class="j" d="M19.34,101.5v-4.2h.84v4.2h-.84ZM23.53,97.3v4.2h-2.51v-.84h1.67v-2.52h-1.67v-.84h2.51ZM21.02,99.81v-.84h.84v.84h-.84Z"/>
      <path class="j" d="M28.92,100.66v.84h-5.03v-.84h3.39l-1.76-2.52h-1.63v-.84h2.09l2.35,3.36h.59Z"/>
      <path class="j" d="M29.29,98.14v-.84h.84v.84h-.84ZM29.29,101.5v-.84h.84v.84h-.84ZM33.48,97.3v4.2h-2.51v-.84h1.68v-2.52h-1.68v-.84h2.51Z"/>
      <path class="j" d="M33.84,98.14v-.84h.84v.84h-.84ZM33.84,101.5v-.84h.84v.84h-.84ZM38.03,97.3v4.2h-2.51v-.84h1.68v-2.52h-1.68v-.84h2.51Z"/>
      <path class="j" d="M42.59,97.3v4.2h-.84v-2.57l-2.51,1.76v.81h-.84v-1.27l3.35-2.34v-.58h.84Z"/>
      <path class="j" d="M46.3,99.81v-1.68h-1.72l2.35,3.36h-1.05l-2.09-3v3h-.84v-4.2h4.19v2.51h-.84Z"/>
      <path class="j" d="M16.55,108.7h-1.05l-2.09-3v3h-.84v-4.2h1.05l2.93,4.2Z"/>
      <path class="j" d="M21.94,107.86v.84h-5.03v-.84h3.39l-1.76-2.52h-1.63v-.84h2.09l2.35,3.36h.59Z"/>
      <path class="j" d="M22.31,104.5h2.51v1.68h-.84v-.84h-.84v3.36h-.84v-4.2ZM23.99,108.7v-1.68h.84v1.68h-.84ZM25.66,108.7v-4.2h.84v4.2h-.84Z"/>
      <path class="j" d="M31.05,104.5v2.51h-.84v-1.68h-1.72l1.17,1.68h-1.05l-.92-1.32v3h-.84v-4.2h4.19Z"/>
      <path class="j" d="M35.61,104.5v4.2h-.84v-2.57l-2.51,1.76v.81h-.84v-1.27l3.35-2.34v-.58h.84Z"/>
      <path class="j" d="M37.65,105.34h-.84v3.36h-.84v-4.2h2.51v2.52h-.84v-1.68ZM40.16,104.5v4.2h-2.51v-.84h1.68v-3.36h.84Z"/>
      <path class="j" d="M44.51,108.7h-1.05l-2.93-4.2h1.05l2.93,4.2ZM40.53,108.7v-.84h.84v.84h-.84Z"/>
      <path class="j" d="M47.09,107.02l-.58.84h2.55v.84h-4.19l2.93-4.2h1.05l-1.17,1.68h1.38v.84h-1.97ZM44.87,105.34v-.84h.84v.84h-.84Z"/>
      <path class="j" d="M52.78,107.01v-1.68h-1.72l2.35,3.36h-1.05l-2.93-4.2h4.19v2.51h-.84ZM49.42,108.7v-.84h.84v.84h-.84Z"/>
      <path class="j" d="M53.98,108.7v-.84h.84v.84h-.84Z"/>
    </g>
    <g id="d" data-name="Layer 1-2">
      <rect class="o" x="67.39" y="17.81" width="37.94" height="35.61"/>
    </g>
    <rect class="o" x="7.14" y="10.19" width="102.81" height="109.03"/>
    <g>
      <rect class="m" x="111.53" y="117.95" width="5.47" height="8.55" rx="2.7" ry="2.7"/>
      <rect class="m" x="0" y="117.95" width="5.47" height="8.55" rx="2.7" ry="2.7"/>
      <rect class="p" x="1.96" y="116.77" width="113.17" height="10.91" rx="2.7" ry="2.7"/>
      <g>
        <rect class="r" x="10.72" y="120.29" width="94.45" height="3.87" rx="1.94" ry="1.94"/>
        <path class="q" d="M103.23,120.29c1.06,0,1.94.87,1.94,1.94s-.87,1.94-1.94,1.94H12.65c-1.06,0-1.94-.87-1.94-1.94s.87-1.94,1.94-1.94h90.58M103.23,119.29H12.65c-1.62,0-2.94,1.32-2.94,2.94s1.32,2.94,2.94,2.94h90.58c1.62,0,2.94-1.32,2.94-2.94s-1.32-2.94-2.94-2.94h0Z"/>
      </g>
      <line class="n" x1="15.75" y1="122.23" x2="100.14" y2="122.23"/>
    </g>
    <g>
      <rect class="m" x="111.53" y="1.18" width="5.47" height="8.55" rx="2.7" ry="2.7"/>
      <rect class="m" x="0" y="1.18" width="5.47" height="8.55" rx="2.7" ry="2.7"/>
      <rect class="l" x="1.96" y="0" width="113.17" height="10.91" rx="2.7" ry="2.7"/>
      <g>
        <rect class="r" x="10.72" y="3.52" width="94.45" height="3.87" rx="1.94" ry="1.94"/>
        <path class="k" d="M103.23,3.52c1.06,0,1.94.87,1.94,1.94s-.87,1.94-1.94,1.94H12.65c-1.06,0-1.94-.87-1.94-1.94s.87-1.94,1.94-1.94h90.58M103.23,2.52H12.65c-1.62,0-2.94,1.32-2.94,2.94s1.32,2.94,2.94,2.94h90.58c1.62,0,2.94-1.32,2.94-2.94s-1.32-2.94-2.94-2.94h0Z"/>
      </g>
      <line class="n" x1="15.75" y1="5.45" x2="100.14" y2="5.45"/>
    </g>
    <g>
      <circle class="j" cx="86.36" cy="84.38" r="5.49"/>
      <path class="j" d="M98.91,82.84c-.7-5.75-5.26-10.31-11.01-11.01v-4.44h-3.09v4.44c-5.75.7-10.31,5.26-11.01,11.01h-4.44v3.09h4.45c.7,5.75,5.26,10.31,11.01,11.01v4.44h3.09v-4.44c5.75-.7,10.31-5.26,11.01-11.01h4.44v-3.09h-4.45ZM95.99,85.93c-.66,4.15-3.94,7.43-8.09,8.09-.5.08-1.02.12-1.54.12s-1.04-.04-1.54-.12c-4.15-.66-7.43-3.94-8.09-8.09-.08-.5-.12-1.02-.12-1.55s.04-1.04.12-1.54c.66-4.15,3.94-7.43,8.09-8.09.5-.08,1.02-.12,1.54-.12s1.04.04,1.54.12c4.15.66,7.43,3.94,8.09,8.09.08.5.12,1.02.12,1.55s-.04,1.04-.12,1.54Z"/>
    </g>
    <g>
      <path class="j" d="M92.46,20.25c-.09.05-2.32,1.32-3.34,2.77-.49.7-1,1.79-1.39,2.73-.39-.23-.84-.48-1.37-.71-.55.25-1.02.52-1.41.77-.39-.95-.91-2.07-1.41-2.78-1.02-1.45-3.25-2.72-3.34-2.77-.3-.17-.69-.07-.86.24-.17.3-.07.69.24.86.02.01,2.07,1.19,2.93,2.4.48.69,1.01,1.86,1.38,2.79-1.16.86-2.68,2.13-2.98,4.05-.09.57-.05,1.06,0,1.38h10.93c.05-.32.09-.81,0-1.38-.31-1.99-1.92-3.29-3.02-4.11.37-.92.88-2.06,1.35-2.73.86-1.22,2.91-2.39,2.93-2.4.3-.17.41-.56.24-.86-.17-.3-.56-.41-.86-.24Z"/>
      <g>
        <path class="j" d="M87.21,42.19c0-.46-.37-.83-.83-.83s-.83.37-.83.83.37.83.83.83.83-.37.83-.83Z"/>
        <circle class="j" cx="82.5" cy="40.61" r=".83"/>
        <circle class="j" cx="90.21" cy="39.29" r=".83"/>
        <path class="j" d="M98.25,32.08c-.29-.19-.69-.11-.88.18l-1.93,2.94h-1.88s0-1.96,0-1.96h-14.4v1.96h-1.88l-1.93-2.94c-.19-.29-.59-.37-.88-.18-.29.19-.37.59-.18.88l2.31,3.51h2.57c0,.68,0,1.35,0,2.03h-2.97s-3.21,3.3-3.21,3.3c-.24.25-.24.65.01.9.12.12.28.18.44.18.17,0,.33-.06.45-.19l2.84-2.91h2.43c0,.94,0,1.89,0,2.83h-2.91s0,2.77,0,2.77l-2.48,2.54c-.24.25-.24.65.01.9.12.12.28.18.44.18s.33-.06.45-.19l2.84-2.91v-2.02s1.67,0,1.67,0c.61,1.42,1.87,3.76,4.35,5.67.06.05.13.1.19.15v-4.27l-1.62-1.2v-2.03c-.7-.18-1.22-.81-1.22-1.57,0-.89.73-1.62,1.62-1.62.89,0,1.62.73,1.62,1.62s-.52,1.39-1.22,1.57v1.63l1.62,1.2v5.22c.51.33,1.01.6,1.47.82v-7.29c-.7-.18-1.22-.81-1.22-1.57,0-.89.73-1.62,1.62-1.62s1.62.73,1.62,1.62c0,.76-.52,1.39-1.22,1.57v7.28c.44-.21.92-.46,1.41-.77v-5.95l1.62-1.2v-2.27c-.7-.18-1.22-.81-1.22-1.57,0-.89.73-1.62,1.62-1.62s1.62.73,1.62,1.62c0,.76-.52,1.39-1.22,1.57v2.67l-1.62,1.2v5.01c.09-.06.17-.13.26-.2,2.49-1.92,3.72-4.29,4.29-5.67h1.66s0,2.02,0,2.02l2.84,2.91c.12.13.29.19.45.19.16,0,.32-.06.44-.18.25-.24.26-.65.01-.9l-2.48-2.54v-2.77s-2.91,0-2.91,0v-2.83h2.43s2.84,2.91,2.84,2.91c.12.13.29.19.45.19s.32-.06.44-.18c.25-.24.26-.65.01-.9l-3.21-3.3h-2.97s0-2.03,0-2.03h2.57l2.31-3.51c.19-.29.11-.69-.18-.88Z"/>
      </g>
    </g>
  </g>
</svg>