<?xml version="1.0" encoding="UTF-8"?>
<svg xmlns="http://www.w3.org/2000/svg" viewBox="0 0 512 512">
  <defs>
    <style>
      .cls-1 {
        stroke: #ff5cab;
        stroke-miterlimit: 10;
        stroke-width: .57px;
      }
    </style>
  </defs>
  <path d="M491.56,345.19c-.65-1.78-1.77-2.81-2.63-3.65-5.22-5.08-8.7-10.25-13.29-17.09-2.64-3.93-4.14-6.19-5.26-9.79-.44-1.42-.85-3.11-1.31-9.93-.28-4.15-.72-12.16-1.46-20.01-.4-4.28-.68-6.29-2.34-7.89-.98-.95-2.73-2.01-8.62-2.05-2-.01-6.18.09-15.19,2.19-1.46.34-5.5,1.69-13.59,4.38-1.69.56-3.96,1.35-5.7,3.51-1.34,1.66-1.84,3.47-2.05,4.67-.88,8.34-1.78,15.92-2.63,23.08-.29,2.45-.72,5.7-3.07,8.77-2.83,3.69-6.84,4.95-7.96,5.33-7.59,2.59-67.14,27.65-150.46,62.89-83.32-35.24-142.87-60.31-150.46-62.89-1.13-.38-5.14-1.64-7.96-5.33-2.35-3.07-2.78-6.31-3.07-8.77-.85-7.17-1.75-14.74-2.63-23.08-.21-1.21-.7-3.01-2.05-4.67-1.74-2.16-4-2.94-5.7-3.51-8.08-2.7-12.13-4.04-13.59-4.38-9.02-2.1-13.19-2.2-15.19-2.19-5.89.03-7.64,1.1-8.62,2.05-1.66,1.59-1.94,3.61-2.34,7.89-.74,7.86-1.18,15.86-1.46,20.01-.47,6.82-.87,8.51-1.31,9.93-1.12,3.59-2.62,5.86-5.26,9.79-4.6,6.84-8.07,12.01-13.29,17.09-.86.84-1.98,1.88-2.63,3.65-.45,1.23-.88,3.35,1.46,10.23,1.31,3.84,2.02,5.95,3.65,8.77,1.99,3.43,3.97,6.86,8.04,9.2.93.53,3.37,1.91,6.72,2.19,3.19.27,6.14-.55,11.4-3.36,7.88-4.21,9.23-6.63,17.82-11.54,5.65-3.23,7.79-3.74,9.5-3.94,5.08-.6,9.36,1.17,11.83,2.48,39.83,16.51,79.67,33.02,119.5,49.53-20.31,8.47-40.61,16.95-60.92,25.42-1.69.55-4.21,1.17-7.3,1.17-.9,0-4.65-.05-9.64-2.05-2.11-.84-5.62-3.15-12.56-7.74-2.37-1.57-4.43-2.95-7.6-4.24-2.36-.96-3.97-1.59-6.14-1.61-3.52-.03-6.14,1.59-8.47,3.07-1.66,1.05-3.71,3.1-7.74,7.16-.66.66-4.47,4.52-7.45,8.91-.51.75-1.32,1.99-1.75,3.8-.07.28-.53,2.26-.15,4.24.57,2.97,2.8,4.81,4.67,6.43,1.87,1.61,8.46,7.31,12.56,12.56,2.14,2.75,3.44,4.94,4.38,7.01.39.86,1.33,3.03,2.05,5.99.51,2.11.73,3.9.88,5.7.57,6.87.23,15.83.15,17.97-.03,1.2.11,3.46,1.61,5.41,1.38,1.78,3.28,2.49,4.82,2.92,10.72,3.02,26.23-.83,29.8-1.75,3.64-.94,6.17-1.77,8.04-4.09,1.1-1.36,1.69-2.9,2.34-9.5.97-9.99.26-13.14,2.34-18.7,1.07-2.87,2.17-4.46,2.78-5.26,2.58-3.41,5.81-5.15,7.74-5.99,30.41-12.81,60.81-25.61,91.22-38.42,30.41,12.81,60.81,25.61,91.22,38.42,1.93.84,5.16,2.58,7.74,5.99.61.8,1.7,2.39,2.78,5.26,2.07,5.56,1.36,8.71,2.34,18.7.64,6.6,1.24,8.13,2.34,9.5,1.87,2.32,4.39,3.15,8.04,4.09,3.57.93,19.08,4.78,29.8,1.75,1.54-.43,3.45-1.14,4.82-2.92,1.5-1.94,1.63-4.21,1.61-5.41-.09-2.14-.42-11.1.15-17.97.15-1.79.37-3.59.88-5.7.71-2.96,1.65-5.13,2.05-5.99.95-2.08,2.24-4.26,4.38-7.01,4.1-5.26,10.7-10.95,12.56-12.56,1.87-1.62,4.11-3.46,4.67-6.43.38-1.98-.08-3.96-.15-4.24-.43-1.81-1.24-3.05-1.75-3.8-2.98-4.39-6.79-8.25-7.45-8.91-4.04-4.06-6.09-6.11-7.74-7.16-2.33-1.48-4.95-3.09-8.47-3.07-2.17.02-3.77.65-6.14,1.61-3.17,1.28-5.23,2.67-7.6,4.24-6.94,4.59-10.46,6.9-12.56,7.74-5,1.99-8.74,2.05-9.64,2.05-3.09,0-5.62-.62-7.3-1.17-20.31-8.47-40.61-16.95-60.92-25.42,39.83-16.51,79.67-33.02,119.5-49.53,2.48-1.32,6.75-3.09,11.83-2.48,1.7.2,3.84.71,9.5,3.94,8.59,4.91,9.94,7.33,17.82,11.54,5.26,2.81,8.21,3.63,11.4,3.36,3.35-.28,5.79-1.66,6.72-2.19,4.06-2.34,6.05-5.77,8.04-9.2,1.63-2.81,2.35-4.92,3.65-8.77,2.34-6.88,1.91-9,1.46-10.23Z"/>
  <path class="cls-1" d="M395.32,130.4c1.76-31.25-11.77-67-36.67-92.33C318.41-2.88,264.52-.32,256,.23c-8.52-.55-62.41-3.11-102.65,37.84-24.89,25.33-38.43,61.08-36.67,92.33.69,12.19,4.93,45.57,13.15,66.18,1.14,2.87,3.82,9.15,3.51,17.53-.31,8.23-3.23,10.84-7.01,23.67-3.35,11.37-5.03,17.05-3.94,23.23,2.06,11.76,11.25,19.15,15.78,22.79,5.66,4.55,10.77,8.66,17.97,8.77,10.93.16,21.61-9,22.35-9.64,3.69-3.23,4.89-5.53,7.73-5.55,5.74-.05,10.01,9.29,10.97,11.4,3.38,7.41,3.12,14.7,2.34,19.58-.29,4.87-.58,9.74-.88,14.61-.52,2.27-1.27,7.04.88,11.98,2.18,5.03,6.2,7.57,8.43,8.99,13.94,8.82,45.11,8.32,48.05,8.25,2.94.07,34.12.57,48.05-8.25,2.23-1.41,6.25-3.96,8.43-8.99,2.14-4.94,1.4-9.7.88-11.98-.29-4.87-.58-9.74-.88-14.61-.78-4.88-1.05-12.17,2.34-19.58.96-2.11,5.23-11.45,10.97-11.4,2.84.03,4.04,2.32,7.73,5.55.74.65,11.43,9.8,22.35,9.64,7.2-.1,12.31-4.22,17.97-8.77,4.53-3.64,13.71-11.03,15.78-22.79,1.08-6.18-.59-11.86-3.94-23.23-3.78-12.83-6.7-15.43-7.01-23.67-.32-8.38,2.36-14.67,3.51-17.53,8.22-20.61,12.46-53.99,13.15-66.18ZM215,237.35c-5.24,3.42-9.77,6.37-16.65,7.08-8.81.91-15.67-2.45-18.19-3.73-1.37-.69-5.85-3.07-10.74-8.33-4.53-4.87-15.76-16.93-13.26-33.2,2.18-14.2,13.35-21.96,15.01-23.07,9.65-6.48,19.59-6.02,24.21-5.74,16.82,1.02,37.6,11.9,40.76,29.15,1.49,8.11-1.39,15.1-2.52,17.86-4.4,10.72-12.81,16.19-18.63,19.98ZM279.25,282.01c-.29,1.38-1.04,5-3.4,7.23-3.96,3.75-12.11,3.28-19.85-1.42-7.74,4.71-15.89,5.17-19.85,1.42-2.36-2.23-3.11-5.85-3.4-7.23-.68-3.26-.2-5.8.77-10.74.36-1.83,1.15-5.48,2.85-10.41,1.48-4.3,2.85-7.21,4.82-11.4,3.27-6.92,6.05-11.69,8.88-12.05,1.16-.15,2.41,0,2.41,0,1.57.19,2.78.71,3.52,1.1.74-.39,1.95-.91,3.52-1.1,0,0,1.25-.15,2.41,0,2.83.37,5.61,5.14,8.88,12.05,1.97,4.18,3.34,7.09,4.82,11.4,1.7,4.93,2.49,8.58,2.85,10.41.97,4.94,1.44,7.48.77,10.74ZM342.58,232.37c-4.89,5.25-9.37,7.63-10.74,8.33-2.52,1.27-9.38,4.64-18.19,3.73-6.88-.71-11.41-3.66-16.65-7.08-5.82-3.79-14.22-9.27-18.63-19.98-1.13-2.76-4.01-9.75-2.52-17.86,3.16-17.25,23.94-28.13,40.76-29.15,4.63-.28,14.57-.74,24.21,5.74,1.66,1.12,12.83,8.87,15.01,23.07,2.5,16.27-8.73,28.33-13.26,33.2Z"/>
</svg>