<?xml version="1.0" encoding="UTF-8"?>
<svg id="Layer_2" data-name="Layer 2" xmlns="http://www.w3.org/2000/svg" viewBox="0 0 512 512">
  <path d="M497.57,141.32c-1.53-.42-37.8-10.33-63.45-5.88-12.42,2.15-29,8.23-42.72,13.89-1.57-6.43-3.74-13.71-6.79-21.6-8.31-3.05-15.94-5.18-22.61-6.71,5.75-13.86,12.02-30.83,14.21-43.48,4.45-25.65-5.45-61.92-5.88-63.45-1.37-4.95-6.5-7.86-11.45-6.49-4.95,1.37-7.86,6.49-6.5,11.45.09.34,9.21,33.8,5.48,55.31-2.11,12.16-8.89,29.75-14.66,43.31-20.95-3.06-49.97-5.68-72.93,11.01-6.85,4.98-11.47,10.44-14.32,14.32l113.39,113.39c3.79-2.8,9.28-7.43,14.32-14.32,17.41-23.84,14.25-54.06,11.26-74.02,13.42-5.68,30.49-12.2,42.37-14.26,21.51-3.73,54.98,5.39,55.31,5.48,4.96,1.37,10.08-1.54,11.45-6.5,1.37-4.95-1.54-10.08-6.49-11.45Z"/>
  <g>
    <path d="M215.48,314.54c4.73-4.73,4.73-12.42,0-17.15s-12.42-4.73-17.15,0-4.73,12.42,0,17.15,12.42,4.73,17.15,0Z"/>
    <path d="M191.62,257.87c4.73-4.73,4.73-12.42,0-17.15s-12.42-4.73-17.15,0-4.73,12.42,0,17.15c4.73,4.73,12.42,4.73,17.15,0Z"/>
    <path d="M285.23,324.1c4.73-4.73,4.73-12.42,0-17.15-4.73-4.73-12.42-4.73-17.15,0-4.73,4.73-4.73,12.42,0,17.15,4.73,4.73,12.42,4.73,17.15,0Z"/>
    <path d="M434.95,324.15c-1.04-5.04-5.97-8.27-11-7.23l-50.5,10.45-19.54-19.54,20.36-20.36-149.38-149.38-20.36,20.36-19.54-19.54,10.45-50.5c1.04-5.03-2.19-9.96-7.23-11-5.03-1.04-9.96,2.2-11,7.23l-12.48,60.34,26.64,26.64c-7,7-14.01,14.01-21.01,21.01l-30.78-30.78-67.53.86c-5.14.07-9.26,4.29-9.19,9.43.03,2.53,1.07,4.81,2.73,6.46,1.71,1.71,4.09,2.76,6.7,2.73l59.68-.76,25.23,25.23c-9.8,9.8-19.6,19.6-29.39,29.39l-30.15-30.15-28.74,28.74-52.08.61c-5.14.06-9.26,4.28-9.2,9.42.03,2.53,1.07,4.81,2.72,6.47s4.08,2.76,6.69,2.73l59.66-.7,20.94-20.94,17.28,17.28c-8.37,21.04-19.58,58.37-13.78,103.96.15,1.18.31,2.35.48,3.5l44.35-44.35-4.38-29.22,21.08-21.08c-5.45-9.12-4.27-21.1,3.59-28.96,9.28-9.28,24.32-9.28,33.6,0,9.28,9.28,9.28,24.32,0,33.6-7.86,7.86-19.84,9.03-28.96,3.59l-16.93,16.93,4.38,29.22-54.2,54.2c1.9,8.69,4.23,16.63,6.72,23.75l75.66-75.66c-5.45-9.12-4.27-21.1,3.59-28.96,9.28-9.28,24.32-9.28,33.6,0s9.28,24.32,0,33.6c-7.86,7.86-19.84,9.03-28.96,3.59l-75.49,75.49c6.77,2.45,14.31,4.76,22.58,6.67l61.69-61.69,29.22,4.38,23.52-23.52c-5.45-9.12-4.27-21.1,3.59-28.96,9.28-9.28,24.32-9.28,33.6,0s9.28,24.32,0,33.6c-7.86,7.86-19.84,9.03-28.96,3.59l-27.67,27.67-29.22-4.38-51.97,51.97c1.56.24,3.13.47,4.73.68,45.78,5.93,83.09-6,103.34-14.41l17.27,17.27-20.94,20.94-.7,59.66c-.03,2.61,1.02,4.98,2.73,6.69,1.66,1.66,3.94,2.7,6.47,2.72,5.14.06,9.36-4.06,9.42-9.2l.61-52.08,28.74-28.74-30.15-30.15,29.39-29.39,25.23,25.23-.76,59.68c-.03,2.61,1.01,4.99,2.73,6.7s3.94,2.69,6.46,2.73c5.14.07,9.36-4.05,9.43-9.19l.86-67.53-30.78-30.78,21.01-21.01,26.64,26.64,60.34-12.48c5.03-1.04,8.27-5.97,7.23-11Z"/>
  </g>
</svg>