<?xml version="1.0" encoding="UTF-8"?>
<svg id="a" data-name="Layer 1" xmlns="http://www.w3.org/2000/svg" xmlns:xlink="http://www.w3.org/1999/xlink" viewBox="0 0 128 128">
  <defs>
    <linearGradient id="b" x1="61.02" y1="129.9" x2="68.4" y2="129.9" gradientTransform="translate(44.86 150.66) rotate(-124.68)" gradientUnits="userSpaceOnUse">
      <stop offset="0" stop-color="#242225"/>
      <stop offset=".12" stop-color="#272528"/>
      <stop offset=".23" stop-color="#312e32"/>
      <stop offset=".32" stop-color="#423e43"/>
      <stop offset=".41" stop-color="#5a555c"/>
      <stop offset=".5" stop-color="#78727b"/>
      <stop offset=".58" stop-color="#99919c"/>
      <stop offset="1" stop-color="#534e56"/>
    </linearGradient>
    <linearGradient id="c" x1="123.25" y1="72.25" x2="123.25" y2="67.06" gradientTransform="translate(-61.81 61.06) rotate(-34.68)" xlink:href="#b"/>
    <linearGradient id="d" x1="-174.33" y1="138.28" x2="-174.33" y2="146.26" gradientTransform="translate(149.91 -173.74) rotate(-34.68)" gradientUnits="userSpaceOnUse">
      <stop offset=".02" stop-color="#dcdadd"/>
      <stop offset=".18" stop-color="#887f8c"/>
      <stop offset=".3" stop-color="#6b636e"/>
      <stop offset=".4" stop-color="#afa9b1"/>
      <stop offset=".5" stop-color="#c6c1c7"/>
      <stop offset=".6" stop-color="#dcdadd"/>
      <stop offset=".6" stop-color="#d1d8d9"/>
      <stop offset=".7" stop-color="#99919c"/>
      <stop offset=".8" stop-color="#6b636e"/>
      <stop offset=".81" stop-color="#887f8c"/>
      <stop offset=".9" stop-color="#afa9b1"/>
      <stop offset=".98" stop-color="#c6c1c7"/>
    </linearGradient>
    <linearGradient id="e" x1="52.19" y1="73.97" x2="58.15" y2="65.37" gradientTransform="translate(-31.97 17.29)" xlink:href="#b"/>
    <linearGradient id="f" x1="-229.82" y1="166.52" x2="-249.27" y2="114.71" gradientTransform="translate(273.33 -63.06)" gradientUnits="userSpaceOnUse">
      <stop offset="0" stop-color="#afa9b1"/>
      <stop offset=".2" stop-color="#dcdadd"/>
      <stop offset=".3" stop-color="#887f8c"/>
      <stop offset=".3" stop-color="#8c8390"/>
      <stop offset=".31" stop-color="#9c949f"/>
      <stop offset=".33" stop-color="#a6a0a9"/>
      <stop offset=".35" stop-color="#ada7af"/>
      <stop offset=".4" stop-color="#afa9b1"/>
      <stop offset=".5" stop-color="#c6c1c7"/>
      <stop offset=".6" stop-color="#dcdadd"/>
      <stop offset=".6" stop-color="#d1d8d9"/>
      <stop offset=".7" stop-color="#99919c"/>
      <stop offset=".8" stop-color="#6b636e"/>
      <stop offset=".81" stop-color="#887f8c"/>
      <stop offset=".9" stop-color="#afa9b1"/>
      <stop offset="1" stop-color="#c6c1c7"/>
    </linearGradient>
    <linearGradient id="g" x1="-335.59" y1="151.39" x2="-335.59" y2="146.62" gradientTransform="translate(260.47 -9.41) scale(.64 .71)" gradientUnits="userSpaceOnUse">
      <stop offset="0" stop-color="#c6c1c7"/>
      <stop offset="1" stop-color="#6b636e"/>
    </linearGradient>
    <linearGradient id="h" x1="-335.59" y1="159.52" x2="-335.59" y2="154.75" gradientTransform="translate(257.16 -19.99) scale(.64 .71)" xlink:href="#g"/>
    <linearGradient id="i" x1="-291.27" y1="202.73" x2="-291.27" y2="197.96" gradientTransform="translate(207.77 -81.36) scale(.64 .71)" xlink:href="#g"/>
    <linearGradient id="j" x1="-291.27" y1="210.85" x2="-291.27" y2="206.09" gradientTransform="translate(211.08 -82.39) scale(.64 .71)" xlink:href="#g"/>
  </defs>
  <path d="M117.98,20.66c1.63-.82,3.77-.03,4.78,1.48s1.03,3.54.41,5.26-1.8,3.17-3.08,4.48c-5.46,5.61-12.72,9.03-19.13,13.52-3.72,2.61-7.4,5.95-8.25,10.42-.62,3.29.52,6.86,2.92,9.18,1.25,1.2,2.78,2.07,4.35,2.81,2.35,1.11,4.84,1.99,7.43,2.18s5.29-.37,7.39-1.9c2.41-1.77,3.78-4.6,4.96-7.35.7-1.63,1.37-3.3,1.55-5.06.17-1.62-.08-3.25-.34-4.86-.6-3.59-1.3-7.15-2.11-10.7-.78-3.42-1.57-7.33.49-10.17,1.13-1.56,2.94-2.48,4.27-3.87s2.08-3.78.74-5.17c-.75-.78-1.94-.97-3.01-.83s-2.08.58-3.11.89" style="fill: none; stroke: #9e2105; stroke-miterlimit: 10; stroke-width: .5px;"/>
  <path d="M43.24,66.89c.3-1.37,1.36-1.37,2.15-3.71.07-.21.98-2.95.04-3.62-.51-.36-1.41-.06-2.09-.78-.29-.31-.33-.58-.61-2-.49-2.53-.55-2.68-.71-2.87-.6-.72-1.15-.34-2.52-1.24-.24-.16-1.03-.7-1.71-1.63-.32-.43-.42-.69-1.25-2.64-.89-2.11-.96-2.27-1.19-2.56-.35-.45-1.14-1.45-2.49-1.64-1.21-.16-2.2.42-2.49.6-1.41.86-1.15,1.83-2.48,2.84-.55.41-1.46.65-3.29,1.12-2.81.73-2.97.46-3.79.98-.47.29-.54.45-2.64,3.13-1.57,2-1.7,2.13-1.98,2.3-1.3.79-1.94.12-4.22.68-1.1.27-1.96.72-3.69,1.63-1.57.82-2.36,1.25-2.91,2.01-.71,1-.3,1.34-1.01,2.38-.91,1.33-1.79,1.11-2.64,2.39-.7,1.05-.74,2.15-.74,2.57,0,.26-.01,2.69,1.62,3.74,1.27.82,2.23-.05,3.28.81.42.35.4.6,1.26,3.14.78,2.3.96,2.59,1.1,2.79.85,1.23,1.41.94,2.31,2.13.77,1.02.56,1.49,1.44,3.28.15.31.29.56.42.78,0,0,.51.89,1.03,1.59.79,1.06,2.62,1.4,3.77,1.85,2.53.98,4.96,3.69,5.06,6.17.09,2.29-1.86,3.36-1.14,4.59.6,1.02,2.21.75,3.94,2.7.2.22.33.41.41.51,1.17,1.6,1.16,3.07,1.44,4.31.15.66,1.2,2.18,3.31,5.24,1.25,1.81,1.88,2.72,2.49,3.32,1.32,1.3,2.49,2.45,4.41,2.73,1.71.25,4.09-.16,5.43-1.71,1.26-1.45.54-2.69,1.96-3.97,1.08-.98,2.5-1.16,3.46-1.28,2.51-.31,3.18.7,4.49.07.91-.44,1.41-1.54,2.42-3.73,1.24-2.7,1.02-3.28,1.94-4.14.09-.08.17-.16.27-.22,1.47-1.01,3.71-1.23,3.71-1.23,1.95-.15,2.13.34,2.78-.05,1.04-.63.52-1.88,1.55-2.9,1.29-1.29,3.12-.32,3.66-1.26.6-1.04-.92-3.51-2.86-4.9-1.7-1.21-3.04-1.12-3.26-2.08-.27-1.18,1.65-1.99,1.36-3.3-.12-.54-.8-1.02-2.16-1.96-1.44-1-1.96-1.09-2.25-1.78-.33-.78.2-.98,0-2.05-.29-1.47-1.63-2.65-2.95-3.14-.09-.03-.17-.05-.24-.07-1.45-.33-2.62.15-3.1.28-1.31.35-2.69-.84-4.62-2.49-2.84-2.43-6.01-5.14-5.44-7.72Z" style="fill: #11f8d9; opacity: .45;"/>
  <path d="M47.24,74.86c.2-.11,2.56-1.33,4.92-.1,1.07.56,2.7,1.92,2.55,3.19-.05.43-.33,1.29.06,2.08.18.36.41.5,1.55,1.24,2.04,1.33,2.15,1.44,2.27,1.64.45.78-.04,1.12.34,2.62.07.27.31,1.14.91,2.06.28.43.47.62,1.92,2.02,1.56,1.52,1.68,1.64,1.86,1.95.28.46.92,1.51.69,2.74-.05.28-.31,1.44-1.24,1.93-1.26.67-2.24-.68-3.56-.12-1.17.49-1.94,2.21-2.07,3.52-.08.85.12,1.43-.31,1.87-.4.41-.89.21-1.7.39-1.26.28-1.31,1.02-2.87,1.96-1.7,1.03-2.19.48-3.02,1.35-1.01,1.06-.37,1.96-1.34,2.92-1.05,1.04-2.09.27-3.25,1.28-1.26,1.1-.7,2.58-1.8,3.1-.98.46-1.64-.59-2.96-.16-1.1.36-1.06,1.24-2.22,1.6-.98.3-1.9-.07-2.43-.28-.23-.09-2.32-.95-2.75-2.73-.33-1.35.63-1.89.25-3.12-.31-1-1.04-.99-2.34-2.21-2.04-1.91-1.28-2.89-3.26-4.71-1.24-1.14-2.18-1.33-2.41-2.41-.14-.66.09-1.14.4-2.05,0,0,.52-1.57.93-4.19.45-2.92-2.21-6.88-5.43-8.57-3.25-1.71-6.52-.8-7.35-2.81-.32-.78.06-1.17-.46-2.22-.67-1.36-1.65-1.4-2.5-2.72-.78-1.22-.2-1.59-.82-2.83-.98-1.95-2.67-1.54-4.82-3.81-.81-.85-1.92-2.02-1.83-3.53.09-1.51,1.33-2.55,1.84-2.98,2.01-1.69,3.37-.72,5.24-2.43.48-.44.25-.37,2.1-2.53.98-1.14,1.48-1.71,1.76-1.9,1.61-1.06,2.59-.11,4.24-1.1,1.32-.8,1.14-1.69,2.3-2.03,1.33-.39,1.9.68,3,.28,1.37-.49.93-2.32,2.61-3.29,1.03-.59,1.47-.08,2.42-.8.9-.69.82-1.39,1.8-1.95.24-.14.99-.55,1.76-.35.89.23.89,1.03,2,2.01,1.16,1.02,1.6.54,2.25,1.35.95,1.17.15,2.37,1.2,3.5.52.56.76.32,1.39.87,1.27,1.13.43,2.28,1.48,4.03.96,1.6,2.49,2.02,2.49,3.61,0,.04,0,.07,0,.22-.14,2.57-.34,3.65-.35,4.41-.03,1.43.64,2.53,1.98,4.75.91,1.51,1.87,2.65,2.59,3.41Z" style="fill: #11f8d9;"/>
  <path d="M31.55,48.9c.42,0,.83.2,1.08.57l28.98,41.88c.41.6.26,1.42-.33,1.83l-23.28,16.11c-.23.16-.49.23-.75.23-.42,0-.83-.2-1.08-.57L7.19,67.07c-.41-.6-.26-1.42.33-1.83l23.28-16.11c.23-.16.49-.23.75-.23M31.55,48.4c-.37,0-.73.11-1.03.32l-23.28,16.11c-.4.28-.67.69-.75,1.17-.09.48.02.96.29,1.36l28.98,41.88c.34.49.9.78,1.49.78.37,0,.73-.11,1.03-.32l23.28-16.11c.4-.28.67-.69.75-1.17.09-.48-.02-.96-.29-1.36l-28.98-41.88c-.34-.49-.9-.78-1.49-.78h0Z" style="fill: #fff;"/>
  <path d="M120.63,24.03l-8.32,5.76-4.2-6.07,8.32-5.76c.51.18,1.9.76,2.98,2.24,1.19,1.63,1.23,3.31,1.23,3.84Z" style="fill: url(#b);"/>
  <path d="M117.42,26.61l-73.25,50.69-4.54-6.57L112.87,20.05c1.03.28,2.59.89,3.6,2.36,1.02,1.46,1.04,3.14.94,4.21Z" style="fill: url(#c);"/>
  <path d="M118.66,25.75l-58.58,40.54c-.14-.82-.5-2.37-1.63-3.94-1.02-1.41-2.21-2.22-2.91-2.63,19.53-13.51,39.05-27.02,58.58-40.54.68.35,2.09,1.18,3.19,2.84,1,1.51,1.27,2.97,1.35,3.72Z" style="fill: url(#d);"/>
  <rect x="18.78" y="83.01" width="8.84" height="7.9" rx="1.35" ry="1.35" transform="translate(-45.36 28.66) rotate(-34.68)" style="fill: url(#e);"/>
  <rect x="18.93" y="52.43" width="30.94" height="53.56" rx="1.32" ry="1.32" transform="translate(-38.96 33.65) rotate(-34.68)" style="fill: url(#f);"/>
  <g>
    <g>
      <rect x="36.29" y="95.64" width="20.26" height="2.69" rx="1" ry="1" transform="translate(139.79 150.31) rotate(145.32)" style="fill: #11f8d9; stroke: url(#g); stroke-linecap: round; stroke-linejoin: bevel;"/>
      <rect x="35.02" y="90.86" width="16.21" height="2.69" rx="1" ry="1" transform="translate(131.06 143.49) rotate(145.32)" style="fill: #11f8d9; stroke: url(#h); stroke-linecap: round; stroke-linejoin: bevel;"/>
    </g>
    <g>
      <rect x="11.87" y="60.35" width="20.26" height="2.69" rx="1" ry="1" transform="translate(-31.2 23.48) rotate(-34.68)" style="fill: #11f8d9; stroke: url(#i); stroke-linecap: round; stroke-linejoin: bevel;"/>
      <rect x="17.2" y="65.12" width="16.21" height="2.69" rx="1" ry="1" transform="translate(-33.32 26.21) rotate(-34.68)" style="fill: #11f8d9; stroke: url(#j); stroke-linecap: round; stroke-linejoin: bevel;"/>
    </g>
    <line x1="39.97" y1="101.45" x2="52.55" y2="92.74" style="fill: #e6fefb; stroke: #e6fefb; stroke-linecap: round; stroke-linejoin: bevel; stroke-width: .5px;"/>
    <line x1="15.55" y1="66.16" x2="28.13" y2="57.45" style="fill: #e6fefb; stroke: #e6fefb; stroke-linecap: round; stroke-linejoin: bevel; stroke-width: .5px;"/>
    <line x1="38.23" y1="95.6" x2="47.69" y2="89.05" style="fill: #e6fefb; stroke: #e6fefb; stroke-linecap: round; stroke-linejoin: bevel; stroke-width: .5px;"/>
    <line x1="20.41" y1="69.85" x2="29.88" y2="63.3" style="fill: #e6fefb; stroke: #e6fefb; stroke-linecap: round; stroke-linejoin: bevel; stroke-width: .5px;"/>
  </g>
  <g>
    <polygon points="34.42 79.25 32.52 90.77 45.96 81.09 34.42 79.25" style="fill: #534e56;"/>
    <polygon points="34.37 79.17 36.28 67.65 22.84 77.33 34.37 79.17" style="fill: #c6c1c7;"/>
    <polygon points="34.36 79.24 22.84 77.33 32.52 90.77 34.36 79.24" style="fill: #99919c;"/>
    <polygon points="34.43 79.18 45.96 81.09 36.28 67.65 34.43 79.18" style="fill: #99919c;"/>
  </g>
</svg>