<?xml version="1.0" encoding="UTF-8"?>
<svg id="b" data-name="Tablet" xmlns="http://www.w3.org/2000/svg" xmlns:xlink="http://www.w3.org/1999/xlink" viewBox="0 0 128 128">
  <defs>
    <linearGradient id="d" x1="64.86" y1="116.9" x2="64.86" y2="127.81" gradientUnits="userSpaceOnUse">
      <stop offset="0" stop-color="#b2bec0"/>
      <stop offset=".2" stop-color="#d1d8d9"/>
      <stop offset=".3" stop-color="#657d80"/>
      <stop offset=".3" stop-color="#6f8588"/>
      <stop offset=".4" stop-color="#a3b1b3"/>
      <stop offset=".5" stop-color="#c4cdce"/>
      <stop offset=".6" stop-color="#d1d8d9"/>
      <stop offset=".6" stop-color="#bdc7c8"/>
      <stop offset=".7" stop-color="#8b9d9f"/>
      <stop offset=".8" stop-color="#657d80"/>
      <stop offset=".8" stop-color="#778c8f"/>
      <stop offset=".9" stop-color="#a1b0b2"/>
      <stop offset="1" stop-color="#b2bec0"/>
    </linearGradient>
    <linearGradient id="e" x1="64.26" y1="125.29" x2="64.26" y2="119.42" gradientUnits="userSpaceOnUse">
      <stop offset="0" stop-color="#c6c1c7"/>
      <stop offset="1" stop-color="#534e56"/>
    </linearGradient>
    <linearGradient id="f" data-name="zugcat gradient dark" x1="117.85" y1="5.58" x2="123.31" y2="5.58" gradientUnits="userSpaceOnUse">
      <stop offset="0" stop-color="#534e56"/>
      <stop offset=".14" stop-color="#565159"/>
      <stop offset=".25" stop-color="#605b63"/>
      <stop offset=".36" stop-color="#716c74"/>
      <stop offset=".46" stop-color="#8a848c"/>
      <stop offset=".56" stop-color="#a9a3ab"/>
      <stop offset=".58" stop-color="#afa9b1"/>
      <stop offset="1" stop-color="#534e56"/>
    </linearGradient>
    <linearGradient id="g" data-name="zugcat gradient dark" x1="6.32" x2="11.78" xlink:href="#f"/>
    <linearGradient id="h" x1="64.86" y1=".13" x2="64.86" y2="11.04" gradientUnits="userSpaceOnUse">
      <stop offset="0" stop-color="#afa9b1"/>
      <stop offset=".2" stop-color="#dcdadd"/>
      <stop offset=".3" stop-color="#887f8c"/>
      <stop offset=".3" stop-color="#8c8390"/>
      <stop offset=".31" stop-color="#9c949f"/>
      <stop offset=".33" stop-color="#a6a0a9"/>
      <stop offset=".35" stop-color="#ada7af"/>
      <stop offset=".4" stop-color="#afa9b1"/>
      <stop offset=".5" stop-color="#c6c1c7"/>
      <stop offset=".6" stop-color="#dcdadd"/>
      <stop offset=".6" stop-color="#d1d8d9"/>
      <stop offset=".7" stop-color="#99919c"/>
      <stop offset=".8" stop-color="#6b636e"/>
      <stop offset=".81" stop-color="#887f8c"/>
      <stop offset=".9" stop-color="#afa9b1"/>
      <stop offset="1" stop-color="#c6c1c7"/>
    </linearGradient>
    <linearGradient id="i" y1="8.52" y2="2.65" xlink:href="#e"/>
  </defs>
  <rect x="13.17" y="11.43" width="102.81" height="105.51" style="fill: #34f9df; opacity: .45;"/>
  <g>
    <path d="M20.9,19.91h1.05l-1.76,2.51h-1.3v-4.2h.84v3.36l1.17-1.68ZM22.15,22.43v-4.2h.84v4.2h-.84Z" style="fill: #34f9df;"/>
    <path d="M25.57,20.75l-.58.84h2.55v.84h-4.19l2.93-4.2h1.05l-1.17,1.68h1.38v.84h-1.97ZM23.35,19.07v-.84h.84v.84h-.84Z" style="fill: #34f9df;"/>
    <path d="M34.31,18.23v2.52h-.84v-1.68h-1.72l1.17,1.68h-1.05l-.92-1.32v3h-.84v-4.2h4.19Z" style="fill: #34f9df;"/>
    <path d="M38.03,20.74v-1.68h-1.72l2.35,3.36h-1.05l-2.09-3v3h-.84v-4.2h4.19v2.52h-.84Z" style="fill: #34f9df;"/>
    <path d="M44.25,21.59v.84h-5.03v-.84h3.39l-1.76-2.52h-1.63v-.84h2.09l2.35,3.36h.59Z" style="fill: #34f9df;"/>
    <path d="M49.65,18.23v4.2h-1.05l-2.34-3.36h-1.63v-.84h2.09l2.09,3v-3h.84ZM44.62,22.43v-.84h.84v.84h-.84Z" style="fill: #34f9df;"/>
    <path d="M53.99,22.43h-1.05l-2.93-4.2h1.05l2.93,4.2ZM50.01,22.43v-.84h.84v.84h-.84Z" style="fill: #34f9df;"/>
    <path d="M54.35,22.43v-4.2h.84v4.2h-.84ZM58.54,18.23v4.2h-2.51v-.84h1.67v-2.52h-1.67v-.84h2.51ZM56.03,20.74v-.84h.84v.84h-.84Z" style="fill: #34f9df;"/>
    <path d="M61.13,20.75l-.58.84h2.55v.84h-4.19l2.93-4.2h1.05l-1.17,1.68h1.38v.84h-1.97ZM58.91,19.07v-.84h.84v.84h-.84Z" style="fill: #34f9df;"/>
    <path d="M23.08,25.43v2.52h-.84v-1.68h-1.72l1.17,1.68h-1.05l-.92-1.32v3h-.84v-4.2h4.19Z" style="fill: #34f9df;"/>
    <path d="M26.79,27.94v-1.68h-1.72l2.35,3.36h-1.05l-2.09-3v3h-.84v-4.2h4.19v2.52h-.84Z" style="fill: #34f9df;"/>
    <path d="M30.22,27.95l-.58.84h2.55v.84h-4.19l2.93-4.2h1.05l-1.17,1.68h1.38v.84h-1.97ZM28,26.27v-.84h.84v.84h-.84Z" style="fill: #34f9df;"/>
    <path d="M32.55,27.95v-2.52h.84v2.52h-.84ZM32.55,29.63v-.84h.84v.84h-.84Z" style="fill: #34f9df;"/>
    <path d="M35.76,27.11h1.05l-1.76,2.51h-1.3v-4.2h.84v3.36l1.17-1.68ZM37.01,29.63v-4.2h.84v4.2h-.84Z" style="fill: #34f9df;"/>
    <path d="M41.57,27.94v-1.68h-1.72l2.35,3.36h-1.05l-2.09-3v3h-.84v-4.2h4.19v2.52h-.84Z" style="fill: #34f9df;"/>
    <path d="M46.75,29.63h-1.05l-2.93-4.2h1.05l2.93,4.2ZM42.77,29.63v-.84h.84v.84h-.84Z" style="fill: #34f9df;"/>
    <path d="M50.04,28.79h2.09v.84h-5.03v-.84h2.09v-3.36h.84v3.36ZM47.11,27.94v-2.52h.84v2.52h-.84ZM51.3,27.94v-2.52h.84v2.52h-.84Z" style="fill: #34f9df;"/>
    <path d="M55.44,28.79h2.09v.84h-5.03v-.84h2.09v-3.36h.84v3.36ZM52.51,27.94v-2.52h.84v2.52h-.84ZM56.7,27.94v-2.52h.84v2.52h-.84Z" style="fill: #34f9df;"/>
    <path d="M60.12,27.95l-.58.84h2.55v.84h-4.19l2.93-4.2h1.05l-1.17,1.68h1.38v.84h-1.97ZM57.9,26.27v-.84h.84v.84h-.84Z" style="fill: #34f9df;"/>
    <path d="M64.13,26.27h-.84v3.36h-.84v-4.2h2.51v2.52h-.84v-1.68ZM66.64,25.43v4.2h-2.51v-.84h1.67v-3.36h.84Z" style="fill: #34f9df;"/>
    <path d="M23.08,32.63v4.2h-.84v-2.57l-2.51,1.76v.81h-.84v-1.27l3.35-2.34v-.59h.84Z" style="fill: #34f9df;"/>
    <path d="M25.12,33.47h-.84v3.36h-.84v-4.2h2.51v2.52h-.84v-1.68ZM27.63,32.63v4.2h-2.51v-.84h1.67v-3.36h.84Z" style="fill: #34f9df;"/>
    <path d="M28,36.83v-4.2h.84v4.2h-.84ZM32.19,32.63v4.2h-2.51v-.84h1.67v-2.52h-1.67v-.84h2.51ZM29.67,35.14v-.84h.84v.84h-.84Z" style="fill: #34f9df;"/>
    <path d="M22.87,44.03h-1.05l-2.09-3v3h-.84v-4.2h1.05l2.93,4.2Z" style="fill: #34f9df;"/>
    <path d="M27.42,39.83v4.2h-2.4l-1.79-1.25v-2.95h.84v2.49l1.24.87h1.27v-3.36h.84Z" style="fill: #34f9df;"/>
    <path d="M31.14,42.34v-1.68h-1.72l2.35,3.36h-1.05l-2.93-4.2h4.19v2.52h-.84ZM27.79,44.03v-.84h.84v.84h-.84Z" style="fill: #34f9df;"/>
    <path d="M35.27,43.19h2.09v.84h-5.03v-.84h2.09v-3.36h.84v3.36ZM32.34,42.34v-2.52h.84v2.52h-.84ZM36.53,42.34v-2.52h.84v2.52h-.84Z" style="fill: #34f9df;"/>
    <path d="M42.76,43.19v.84h-5.03v-.84h3.39l-1.76-2.52h-1.63v-.84h2.09l2.35,3.36h.59Z" style="fill: #34f9df;"/>
    <path d="M43.13,39.83h2.51v1.68h-.84v-.84h-.84v3.36h-.84v-4.2ZM44.8,44.03v-1.68h.84v1.68h-.84ZM46.48,44.03v-4.2h.84v4.2h-.84Z" style="fill: #34f9df;"/>
    <path d="M51.66,44.03h-1.05l-2.93-4.2h1.05l2.93,4.2ZM47.68,44.03v-.84h.84v.84h-.84Z" style="fill: #34f9df;"/>
    <path d="M56.21,44.03h-4.19v-2.52h.84v1.68h1.72l-2.35-3.36h1.05l2.93,4.2ZM55.38,40.67v-.84h.84v.84h-.84Z" style="fill: #34f9df;"/>
    <path d="M60.77,39.83v4.2h-.84v-2.57l-2.51,1.76v.81h-.84v-1.27l3.35-2.34v-.59h.84Z" style="fill: #34f9df;"/>
    <path d="M63.65,42.34h-1.67v1.68h-.84v-4.2h.84v1.68h1.67v.84ZM65.32,39.83v4.2h-2.51v-.84h1.67v-2.52h-1.67v-.84h2.51Z" style="fill: #34f9df;"/>
    <path d="M65.69,40.67v-.84h.84v.84h-.84ZM65.69,44.03v-.84h.84v.84h-.84ZM69.88,39.83v4.2h-2.51v-.84h1.68v-2.52h-1.68v-.84h2.51Z" style="fill: #34f9df;"/>
    <path d="M21.11,49.55l-.58.84h2.55v.84h-4.19l2.93-4.2h1.05l-1.17,1.68h1.38v.84h-1.97ZM18.89,47.87v-.84h.84v.84h-.84Z" style="fill: #34f9df;"/>
    <path d="M29.85,47.03v2.52h-.84v-1.68h-1.72l1.17,1.68h-1.05l-.92-1.32v3h-.84v-4.2h4.19Z" style="fill: #34f9df;"/>
    <path d="M35.24,50.39v.84h-5.03v-.84h3.39l-1.76-2.52h-1.63v-.84h2.09l2.35,3.36h.59Z" style="fill: #34f9df;"/>
    <path d="M35.6,47.87v-.84h.84v.84h-.84ZM35.6,51.23v-.84h.84v.84h-.84ZM39.79,47.03v4.2h-2.51v-.84h1.68v-2.52h-1.68v-.84h2.51Z" style="fill: #34f9df;"/>
    <path d="M44.14,51.23h-1.05l-2.93-4.2h1.05l2.93,4.2ZM40.16,51.23v-.84h.84v.84h-.84Z" style="fill: #34f9df;"/>
    <path d="M48.48,51.23h-1.05l-2.09-3v3h-.84v-4.2h1.05l2.93,4.2Z" style="fill: #34f9df;"/>
    <path d="M52.83,51.23h-1.05l-2.93-4.2h1.05l2.93,4.2ZM48.85,51.23v-.84h.84v.84h-.84Z" style="fill: #34f9df;"/>
    <path d="M55.41,49.55l-.58.84h2.55v.84h-4.19l2.93-4.2h1.05l-1.17,1.68h1.38v.84h-1.97ZM53.19,47.87v-.84h.84v.84h-.84Z" style="fill: #34f9df;"/>
    <path d="M61.09,49.54v-1.68h-1.72l2.35,3.36h-1.05l-2.93-4.2h4.19v2.52h-.84ZM57.74,51.23v-.84h.84v.84h-.84Z" style="fill: #34f9df;"/>
    <path d="M21.4,56.74h-1.67v1.68h-.84v-4.2h.84v1.68h1.67v.84ZM23.08,54.23v4.2h-2.51v-.84h1.67v-2.52h-1.67v-.84h2.51Z" style="fill: #34f9df;"/>
    <path d="M27.63,54.23v4.2h-.84v-2.57l-2.51,1.76v.81h-.84v-1.27l3.35-2.34v-.59h.84Z" style="fill: #34f9df;"/>
    <path d="M31.35,56.74v-1.68h-1.72l2.35,3.36h-1.05l-2.93-4.2h4.19v2.52h-.84ZM28,58.43v-.84h.84v.84h-.84Z" style="fill: #34f9df;"/>
    <path d="M34.77,56.75l-.58.84h2.55v.84h-4.19l2.93-4.2h1.05l-1.17,1.68h1.38v.84h-1.97ZM32.55,55.07v-.84h.84v.84h-.84Z" style="fill: #34f9df;"/>
    <path d="M37.1,58.43v-4.2h.84v4.2h-.84ZM41.29,54.23v4.2h-2.51v-.84h1.67v-2.52h-1.67v-.84h2.51ZM38.78,56.74v-.84h.84v.84h-.84Z" style="fill: #34f9df;"/>
    <path d="M48.9,57.59v.84h-5.03v-.84h3.39l-1.76-2.52h-1.63v-.84h2.09l2.35,3.36h.59Z" style="fill: #34f9df;"/>
    <path d="M50.94,55.07h-.84v3.36h-.84v-4.2h2.51v2.52h-.84v-1.68ZM53.46,54.23v4.2h-2.51v-.84h1.68v-3.36h.84Z" style="fill: #34f9df;"/>
    <path d="M21.82,64.79h2.09v.84h-5.03v-.84h2.09v-3.36h.84v3.36ZM18.89,63.94v-2.52h.84v2.52h-.84ZM23.08,63.94v-2.52h.84v2.52h-.84Z" style="fill: #34f9df;"/>
    <path d="M24.28,62.27v-.84h5.03v.84h-5.03ZM26.96,64.79h2.35v.84h-5.03v-.84h1.63l1.17-1.68h1.05l-1.17,1.68Z" style="fill: #34f9df;"/>
    <path d="M31.9,63.95l-.58.84h2.55v.84h-4.19l2.93-4.2h1.05l-1.17,1.68h1.38v.84h-1.97ZM29.68,62.27v-.84h.84v.84h-.84Z" style="fill: #34f9df;"/>
    <path d="M22.87,72.83h-1.05l-2.93-4.2h1.05l2.93,4.2ZM18.89,72.83v-.84h.84v.84h-.84Z" style="fill: #34f9df;"/>
    <path d="M24.91,69.47h-.84v3.36h-.84v-4.2h2.51v2.52h-.84v-1.68ZM27.42,68.63v4.2h-2.51v-.84h1.67v-3.36h.84Z" style="fill: #34f9df;"/>
    <path d="M27.79,72.83v-4.2h.84v4.2h-.84ZM31.98,68.63v4.2h-2.51v-.84h1.67v-2.52h-1.67v-.84h2.51ZM29.46,71.14v-.84h.84v.84h-.84Z" style="fill: #34f9df;"/>
    <path d="M36.53,68.63v4.2h-2.4l-1.79-1.25v-2.95h.84v2.49l1.24.87h1.27v-3.36h.84Z" style="fill: #34f9df;"/>
    <path d="M40.25,71.14v-1.68h-1.72l2.35,3.36h-1.05l-2.93-4.2h4.19v2.51h-.84ZM36.89,72.83v-.84h.84v.84h-.84Z" style="fill: #34f9df;"/>
    <path d="M44.38,71.99h2.09v.84h-5.03v-.84h2.09v-3.36h.84v3.36ZM41.45,71.14v-2.51h.84v2.51h-.84ZM45.64,71.14v-2.51h.84v2.51h-.84Z" style="fill: #34f9df;"/>
    <path d="M50.19,71.14v-1.68h-1.72l2.35,3.36h-1.05l-2.09-3v3h-.84v-4.2h4.19v2.51h-.84Z" style="fill: #34f9df;"/>
    <path d="M55.58,68.63v4.2h-4.19v-.84h3.35v-3.36h.84ZM51.4,71.14v-2.51h.84v1.68h1.68v.84h-2.51Z" style="fill: #34f9df;"/>
    <path d="M22.24,78.34v-1.68h-1.72l2.35,3.36h-1.05l-2.93-4.2h4.19v2.51h-.84ZM18.89,80.03v-.84h.84v.84h-.84Z" style="fill: #34f9df;"/>
    <path d="M26.38,79.19h2.09v.84h-5.03v-.84h2.09v-3.36h.84v3.36ZM23.44,78.34v-2.51h.84v2.51h-.84ZM27.63,78.34v-2.51h.84v2.51h-.84Z" style="fill: #34f9df;"/>
    <path d="M33.03,75.83v4.2h-.84v-2.57l-2.51,1.76v.81h-.84v-1.27l3.35-2.34v-.58h.84Z" style="fill: #34f9df;"/>
    <path d="M35.07,76.67h-.84v3.36h-.84v-4.2h2.51v2.52h-.84v-1.68ZM37.58,75.83v4.2h-2.51v-.84h1.68v-3.36h.84Z" style="fill: #34f9df;"/>
    <path d="M37.94,80.03v-4.2h.84v4.2h-.84ZM42.13,75.83v4.2h-2.51v-.84h1.68v-2.52h-1.68v-.84h2.51ZM39.62,78.34v-.84h.84v.84h-.84Z" style="fill: #34f9df;"/>
    <path d="M46.69,75.83v4.2h-.84v-2.57l-2.51,1.76v.81h-.84v-1.27l3.35-2.34v-.58h.84Z" style="fill: #34f9df;"/>
    <path d="M50.4,78.34v-1.68h-1.72l2.35,3.36h-1.05l-2.09-3v3h-.84v-4.2h4.19v2.51h-.84Z" style="fill: #34f9df;"/>
    <path d="M51.61,80.03v-4.2h.84v4.2h-.84ZM55.79,75.83v4.2h-2.51v-.84h1.68v-2.52h-1.68v-.84h2.51ZM53.28,78.34v-.84h.84v.84h-.84Z" style="fill: #34f9df;"/>
    <path d="M59.51,78.34v-1.68h-1.72l2.35,3.36h-1.05l-2.93-4.2h4.19v2.51h-.84ZM56.16,80.03v-.84h.84v.84h-.84Z" style="fill: #34f9df;"/>
    <path d="M23.08,83.03v4.2h-2.4l-1.79-1.25v-2.95h.84v2.49l1.24.87h1.27v-3.36h.84Z" style="fill: #34f9df;"/>
    <path d="M26.79,85.54v-1.68h-1.72l2.35,3.36h-1.05l-2.93-4.2h4.19v2.51h-.84ZM23.44,87.22v-.84h.84v.84h-.84Z" style="fill: #34f9df;"/>
    <path d="M30.22,85.55l-.58.84h2.55v.84h-4.19l2.93-4.2h1.05l-1.17,1.68h1.38v.84h-1.97ZM28,83.87v-.84h.84v.84h-.84Z" style="fill: #34f9df;"/>
    <path d="M32.55,87.22v-4.2h.84v4.2h-.84ZM36.74,83.03v4.2h-2.51v-.84h1.67v-2.52h-1.67v-.84h2.51ZM34.23,85.54v-.84h.84v.84h-.84Z" style="fill: #34f9df;"/>
    <path d="M41.83,85.54h-1.67v1.68h-.84v-4.2h.84v1.68h1.67v.84ZM43.51,83.03v4.2h-2.51v-.84h1.67v-2.52h-1.67v-.84h2.51Z" style="fill: #34f9df;"/>
    <path d="M48.06,83.03v4.2h-4.19v-.84h3.35v-3.36h.84ZM43.87,85.54v-2.51h.84v1.68h1.68v.84h-2.51Z" style="fill: #34f9df;"/>
    <path d="M18.89,90.23h2.51v1.68h-.84v-.84h-.84v3.36h-.84v-4.2ZM20.57,94.42v-1.68h.84v1.68h-.84ZM22.24,94.42v-4.2h.84v4.2h-.84Z" style="fill: #34f9df;"/>
    <path d="M27.63,90.23v4.2h-2.4l-1.79-1.25v-2.95h.84v2.49l1.24.87h1.27v-3.36h.84Z" style="fill: #34f9df;"/>
    <path d="M28,91.07v-.84h.84v.84h-.84ZM28,94.42v-.84h.84v.84h-.84ZM32.19,90.23v4.2h-2.51v-.84h1.67v-2.52h-1.67v-.84h2.51Z" style="fill: #34f9df;"/>
    <path d="M35.48,93.58h2.09v.84h-5.03v-.84h2.09v-3.36h.84v3.36ZM32.55,92.74v-2.51h.84v2.51h-.84ZM36.74,92.74v-2.51h.84v2.51h-.84Z" style="fill: #34f9df;"/>
    <path d="M41.92,94.42h-1.05l-2.93-4.2h1.05l2.93,4.2ZM37.94,94.42v-.84h.84v.84h-.84Z" style="fill: #34f9df;"/>
    <path d="M44.8,92.74h-1.67v1.68h-.84v-4.2h.84v1.68h1.67v.84ZM46.48,90.23v4.2h-2.51v-.84h1.67v-2.52h-1.67v-.84h2.51Z" style="fill: #34f9df;"/>
    <path d="M50.82,94.42h-1.05l-2.93-4.2h1.05l2.93,4.2ZM46.84,94.42v-.84h.84v.84h-.84Z" style="fill: #34f9df;"/>
    <path d="M51.19,91.07v-.84h.84v.84h-.84ZM51.19,94.42v-.84h.84v.84h-.84ZM55.38,90.23v4.2h-2.51v-.84h1.67v-2.52h-1.67v-.84h2.51Z" style="fill: #34f9df;"/>
    <path d="M55.74,91.07v-.84h.84v.84h-.84ZM55.74,94.42v-.84h.84v.84h-.84ZM59.93,90.23v4.2h-2.51v-.84h1.67v-2.52h-1.67v-.84h2.51Z" style="fill: #34f9df;"/>
    <path d="M64.27,94.42h-1.05l-2.93-4.2h1.05l2.93,4.2ZM60.29,94.42v-.84h.84v.84h-.84Z" style="fill: #34f9df;"/>
    <path d="M69.66,93.58v.84h-5.03v-.84h3.39l-1.76-2.52h-1.63v-.84h2.09l2.35,3.36h.59Z" style="fill: #34f9df;"/>
    <path d="M20.57,98.27h-.84v3.36h-.84v-4.2h2.51v2.52h-.84v-1.68ZM23.08,97.43v4.2h-2.51v-.84h1.67v-3.36h.84Z" style="fill: #34f9df;"/>
    <path d="M25.66,101.62v-4.2h.84v4.2h-.84ZM29.85,97.43v4.2h-2.51v-.84h1.67v-2.52h-1.67v-.84h2.51ZM27.33,99.94v-.84h.84v.84h-.84Z" style="fill: #34f9df;"/>
    <path d="M35.24,100.79v.84h-5.03v-.84h3.39l-1.76-2.52h-1.63v-.84h2.09l2.35,3.36h.59Z" style="fill: #34f9df;"/>
    <path d="M35.6,98.27v-.84h.84v.84h-.84ZM35.6,101.62v-.84h.84v.84h-.84ZM39.79,97.43v4.2h-2.51v-.84h1.68v-2.52h-1.68v-.84h2.51Z" style="fill: #34f9df;"/>
    <path d="M40.16,98.27v-.84h.84v.84h-.84ZM40.16,101.62v-.84h.84v.84h-.84ZM44.35,97.43v4.2h-2.51v-.84h1.68v-2.52h-1.68v-.84h2.51Z" style="fill: #34f9df;"/>
    <path d="M48.9,97.43v4.2h-.84v-2.57l-2.51,1.76v.81h-.84v-1.27l3.35-2.34v-.58h.84Z" style="fill: #34f9df;"/>
    <path d="M52.62,99.94v-1.68h-1.72l2.35,3.36h-1.05l-2.09-3v3h-.84v-4.2h4.19v2.51h-.84Z" style="fill: #34f9df;"/>
    <path d="M22.87,108.83h-1.05l-2.09-3v3h-.84v-4.2h1.05l2.93,4.2Z" style="fill: #34f9df;"/>
    <path d="M28.26,107.99v.84h-5.03v-.84h3.39l-1.76-2.52h-1.63v-.84h2.09l2.35,3.36h.59Z" style="fill: #34f9df;"/>
    <path d="M28.63,104.63h2.51v1.68h-.84v-.84h-.84v3.36h-.84v-4.2ZM30.3,108.83v-1.68h.84v1.68h-.84ZM31.98,108.83v-4.2h.84v4.2h-.84Z" style="fill: #34f9df;"/>
    <path d="M37.37,104.63v2.51h-.84v-1.68h-1.72l1.17,1.68h-1.05l-.92-1.32v3h-.84v-4.2h4.19Z" style="fill: #34f9df;"/>
    <path d="M41.92,104.63v4.2h-.84v-2.57l-2.51,1.76v.81h-.84v-1.27l3.35-2.34v-.58h.84Z" style="fill: #34f9df;"/>
    <path d="M43.96,105.47h-.84v3.36h-.84v-4.2h2.51v2.52h-.84v-1.68ZM46.48,104.63v4.2h-2.51v-.84h1.68v-3.36h.84Z" style="fill: #34f9df;"/>
    <path d="M50.82,108.83h-1.05l-2.93-4.2h1.05l2.93,4.2ZM46.84,108.83v-.84h.84v.84h-.84Z" style="fill: #34f9df;"/>
    <path d="M53.41,107.15l-.58.84h2.55v.84h-4.19l2.93-4.2h1.05l-1.17,1.68h1.38v.84h-1.97ZM51.19,105.47v-.84h.84v.84h-.84Z" style="fill: #34f9df;"/>
    <path d="M59.09,107.14v-1.68h-1.72l2.35,3.36h-1.05l-2.93-4.2h4.19v2.51h-.84ZM55.74,108.83v-.84h.84v.84h-.84Z" style="fill: #34f9df;"/>
    <path d="M60.29,108.83v-.84h.84v.84h-.84Z" style="fill: #34f9df;"/>
  </g>
  <g id="c" data-name="Layer 1-2">
    <rect x="73.71" y="17.94" width="37.94" height="35.61" style="fill: none; stroke: #34f9df; stroke-miterlimit: 10;"/>
  </g>
  <rect x="13.46" y="10.32" width="102.81" height="109.03" style="fill: none; stroke: #34f9df; stroke-miterlimit: 10;"/>
  <g>
    <rect x="117.85" y="118.08" width="5.47" height="8.55" rx="2.7" ry="2.7" style="fill: #475759;"/>
    <rect x="6.32" y="118.08" width="5.47" height="8.55" rx="2.7" ry="2.7" style="fill: #475759;"/>
    <rect x="8.28" y="116.9" width="113.17" height="10.91" rx="2.7" ry="2.7" style="fill: url(#d);"/>
    <g>
      <rect x="17.03" y="120.42" width="94.45" height="3.87" rx="1.94" ry="1.94" style="fill: #34f9df;"/>
      <path d="M109.55,120.42c1.06,0,1.94.87,1.94,1.94s-.87,1.94-1.94,1.94H18.97c-1.06,0-1.94-.87-1.94-1.94s.87-1.94,1.94-1.94h90.58M109.55,119.42H18.97c-1.62,0-2.94,1.32-2.94,2.94s1.32,2.94,2.94,2.94h90.58c1.62,0,2.94-1.32,2.94-2.94s-1.32-2.94-2.94-2.94h0Z" style="fill: url(#e);"/>
    </g>
    <line x1="22.06" y1="122.36" x2="106.45" y2="122.36" style="fill: #a0e1ec; stroke: #e6fefb; stroke-linecap: round; stroke-miterlimit: 10;"/>
  </g>
  <g>
    <rect x="117.85" y="1.31" width="5.47" height="8.55" rx="2.7" ry="2.7" style="fill: url(#f);"/>
    <rect x="6.32" y="1.31" width="5.47" height="8.55" rx="2.7" ry="2.7" style="fill: url(#g);"/>
    <rect x="8.28" y=".13" width="113.17" height="10.91" rx="2.7" ry="2.7" style="fill: url(#h);"/>
    <g>
      <rect x="17.03" y="3.65" width="94.45" height="3.87" rx="1.94" ry="1.94" style="fill: #34f9df;"/>
      <path d="M109.55,3.65c1.06,0,1.94.87,1.94,1.94s-.87,1.94-1.94,1.94H18.97c-1.06,0-1.94-.87-1.94-1.94s.87-1.94,1.94-1.94h90.58M109.55,2.65H18.97c-1.62,0-2.94,1.32-2.94,2.94s1.32,2.94,2.94,2.94h90.58c1.62,0,2.94-1.32,2.94-2.94s-1.32-2.94-2.94-2.94h0Z" style="fill: url(#i);"/>
    </g>
    <line x1="22.06" y1="5.58" x2="106.45" y2="5.58" style="fill: #e8b8fe; stroke: #e6fefb; stroke-linecap: round; stroke-miterlimit: 10;"/>
  </g>
  <g>
    <circle cx="92.68" cy="84.51" r="5.49" style="fill: #34f9df;"/>
    <path d="M105.23,82.97c-.7-5.75-5.26-10.31-11.01-11.01v-4.44h-3.09v4.44c-5.75.7-10.31,5.26-11.01,11.01h-4.44v3.09h4.45c.7,5.75,5.26,10.31,11.01,11.01v4.44h3.09v-4.44c5.75-.7,10.31-5.26,11.01-11.01h4.44v-3.09h-4.45ZM102.31,86.06c-.66,4.15-3.94,7.43-8.09,8.09-.5.08-1.02.12-1.54.12s-1.04-.04-1.54-.12c-4.15-.66-7.43-3.94-8.09-8.09-.08-.5-.12-1.02-.12-1.55s.04-1.04.12-1.54c.66-4.15,3.94-7.43,8.09-8.09.5-.08,1.02-.12,1.54-.12s1.04.04,1.54.12c4.15.66,7.43,3.94,8.09,8.09.08.5.12,1.02.12,1.55s-.04,1.04-.12,1.54Z" style="fill: #34f9df;"/>
  </g>
  <g>
    <path d="M98.77,20.38c-.09.05-2.32,1.32-3.34,2.77-.49.7-1,1.79-1.39,2.73-.39-.23-.84-.48-1.37-.71-.55.25-1.02.52-1.41.77-.39-.95-.91-2.07-1.41-2.78-1.02-1.45-3.25-2.72-3.34-2.77-.3-.17-.69-.07-.86.24-.17.3-.07.69.24.86.02.01,2.07,1.19,2.93,2.4.48.69,1.01,1.86,1.38,2.79-1.16.86-2.68,2.13-2.98,4.05-.09.57-.05,1.06,0,1.38h10.93c.05-.32.09-.81,0-1.38-.31-1.99-1.92-3.29-3.02-4.11.37-.92.88-2.06,1.35-2.73.86-1.22,2.91-2.39,2.93-2.4.3-.17.41-.56.24-.86-.17-.3-.56-.41-.86-.24Z" style="fill: #34f9df;"/>
    <g>
      <path d="M93.53,42.32c0-.46-.37-.83-.83-.83s-.83.37-.83.83.37.83.83.83.83-.37.83-.83Z" style="fill: #34f9df;"/>
      <circle cx="88.82" cy="40.74" r=".83" style="fill: #34f9df;"/>
      <circle cx="96.52" cy="39.42" r=".83" style="fill: #34f9df;"/>
      <path d="M104.57,32.21c-.29-.19-.69-.11-.88.18l-1.93,2.94h-1.88s0-1.96,0-1.96h-14.4v1.96h-1.88l-1.93-2.94c-.19-.29-.59-.37-.88-.18-.29.19-.37.59-.18.88l2.31,3.51h2.57c0,.68,0,1.35,0,2.03h-2.97s-3.21,3.3-3.21,3.3c-.24.25-.24.65.01.9.12.12.28.18.44.18.17,0,.33-.06.45-.19l2.84-2.91h2.43c0,.94,0,1.89,0,2.83h-2.91s0,2.77,0,2.77l-2.48,2.54c-.24.25-.24.65.01.9.12.12.28.18.44.18s.33-.06.45-.19l2.84-2.91v-2.02s1.67,0,1.67,0c.61,1.42,1.87,3.76,4.35,5.67.06.05.13.1.19.15v-4.27l-1.62-1.2v-2.03c-.7-.18-1.22-.81-1.22-1.57,0-.89.73-1.62,1.62-1.62.89,0,1.62.73,1.62,1.62s-.52,1.39-1.22,1.57v1.63l1.62,1.2v5.22c.51.33,1.01.6,1.47.82v-7.29c-.7-.18-1.22-.81-1.22-1.57,0-.89.73-1.62,1.62-1.62s1.62.73,1.62,1.62c0,.76-.52,1.39-1.22,1.57v7.28c.44-.21.92-.46,1.41-.77v-5.95l1.62-1.2v-2.27c-.7-.18-1.22-.81-1.22-1.57,0-.89.73-1.62,1.62-1.62s1.62.73,1.62,1.62c0,.76-.52,1.39-1.22,1.57v2.67l-1.62,1.2v5.01c.09-.06.17-.13.26-.2,2.49-1.92,3.72-4.29,4.29-5.67h1.66s0,2.02,0,2.02l2.84,2.91c.12.13.29.19.45.19.16,0,.32-.06.44-.18.25-.24.26-.65.01-.9l-2.48-2.54v-2.77s-2.91,0-2.91,0v-2.83h2.43s2.84,2.91,2.84,2.91c.12.13.29.19.45.19s.32-.06.44-.18c.25-.24.26-.65.01-.9l-3.21-3.3h-2.97s0-2.03,0-2.03h2.57l2.31-3.51c.19-.29.11-.69-.18-.88Z" style="fill: #34f9df;"/>
    </g>
  </g>
</svg>