<?xml version="1.0" encoding="UTF-8"?>
<svg id="e" data-name="Sword" xmlns="http://www.w3.org/2000/svg" xmlns:xlink="http://www.w3.org/1999/xlink" viewBox="0 0 123.12 128">
  <defs>
    <linearGradient id="f" x1="134.05" y1="-41.53" x2="144.64" y2="-41.53" gradientTransform="translate(76.3 -131.65) rotate(90)" gradientUnits="userSpaceOnUse">
      <stop offset=".02" stop-color="#dcdadd"/>
      <stop offset=".18" stop-color="#887f8c"/>
      <stop offset=".3" stop-color="#6b636e"/>
      <stop offset=".4" stop-color="#afa9b1"/>
      <stop offset=".5" stop-color="#c6c1c7"/>
      <stop offset=".6" stop-color="#dcdadd"/>
      <stop offset=".6" stop-color="#d1d8d9"/>
      <stop offset=".7" stop-color="#99919c"/>
      <stop offset=".8" stop-color="#6b636e"/>
      <stop offset=".81" stop-color="#887f8c"/>
      <stop offset=".9" stop-color="#afa9b1"/>
      <stop offset=".98" stop-color="#c6c1c7"/>
    </linearGradient>
    <radialGradient id="g" cx="62.42" cy="-13.62" fx="62.42" fy="-13.62" r="3.04" gradientTransform="translate(64 -26.51) rotate(45)" gradientUnits="userSpaceOnUse">
      <stop offset=".23" stop-color="#e6fefb"/>
      <stop offset=".31" stop-color="#b5fcf3"/>
      <stop offset=".39" stop-color="#87fbec"/>
      <stop offset=".47" stop-color="#63fae6"/>
      <stop offset=".54" stop-color="#49f9e2"/>
      <stop offset=".61" stop-color="#39f9df"/>
      <stop offset=".66" stop-color="#34f9df"/>
      <stop offset=".98" stop-color="#06cbb1"/>
    </radialGradient>
    <linearGradient id="h" x1="117.83" y1="11.11" x2="117.83" y2="4.3" gradientUnits="userSpaceOnUse">
      <stop offset="0" stop-color="#dcdadd"/>
      <stop offset="1" stop-color="#534e56"/>
    </linearGradient>
    <linearGradient id="i" data-name="Zugcat Gradient Metal" x1="-721.93" y1="-186.04" x2="-823.2" y2="-230.75" gradientTransform="translate(448.59 -615.77) rotate(-45) scale(1 -1)" gradientUnits="userSpaceOnUse">
      <stop offset="0" stop-color="#afa9b1"/>
      <stop offset=".2" stop-color="#dcdadd"/>
      <stop offset=".3" stop-color="#6b636e"/>
      <stop offset=".3" stop-color="#887f8c"/>
      <stop offset=".4" stop-color="#afa9b1"/>
      <stop offset=".5" stop-color="#c6c1c7"/>
      <stop offset=".6" stop-color="#dcdadd"/>
      <stop offset=".6" stop-color="#d1d8d9"/>
      <stop offset=".7" stop-color="#99919c"/>
      <stop offset=".8" stop-color="#6b636e"/>
      <stop offset=".81" stop-color="#887f8c"/>
      <stop offset=".9" stop-color="#afa9b1"/>
      <stop offset="1" stop-color="#c6c1c7"/>
    </linearGradient>
    <linearGradient id="j" x1="44.38" y1="74.85" x2="50.77" y2="81.24" gradientUnits="userSpaceOnUse">
      <stop offset="0" stop-color="#f3f2f3"/>
      <stop offset="1" stop-color="#534e56"/>
    </linearGradient>
    <linearGradient id="k" x1="-771.02" y1="-209.2" x2="-771.02" y2="-205.65" gradientTransform="translate(821.09 -131.34) scale(1 -1)" gradientUnits="userSpaceOnUse">
      <stop offset="0" stop-color="#d1d7d8"/>
      <stop offset="1" stop-color="#6a7c80"/>
    </linearGradient>
    <linearGradient id="l" x1="-703.3" y1="-203.93" x2="-703.3" y2="-211.55" gradientTransform="translate(448.59 -615.77) rotate(-45) scale(1 -1)" xlink:href="#f"/>
    <linearGradient id="m" x1="-687.37" y1="-203.84" x2="-687.31" y2="-211.54" gradientTransform="translate(448.59 -615.77) rotate(-45) scale(1 -1)" xlink:href="#f"/>
    <clipPath id="n">
      <path d="M11.15,108.08L86.46,32.77l6.39,6.39L17.55,114.47c-1.48,1.12-3.44,2.4-5.88,3.53-2.31,1.07-4.43,1.72-6.17,2.13.37-1.72.99-3.87,2.08-6.22,1.14-2.46,2.45-4.4,3.57-5.83Z" style="fill: none;"/>
    </clipPath>
    <linearGradient id="o" x1="41.71" y1="24.89" x2="83.53" y2="31.71" gradientTransform="translate(64 -26.51) rotate(45)" gradientUnits="userSpaceOnUse">
      <stop offset=".02" stop-color="#dcdadd"/>
      <stop offset=".18" stop-color="#887f8c"/>
      <stop offset=".3" stop-color="#6b636e"/>
      <stop offset=".4" stop-color="#afa9b1"/>
      <stop offset=".46" stop-color="#c6c1c7"/>
      <stop offset=".48" stop-color="#c4bfc5"/>
      <stop offset=".49" stop-color="#bdb8be"/>
      <stop offset=".5" stop-color="#b1acb2"/>
      <stop offset=".5" stop-color="#a09ba2"/>
      <stop offset=".5" stop-color="#8a858c"/>
      <stop offset=".51" stop-color="#706b72"/>
      <stop offset=".51" stop-color="#534e56"/>
      <stop offset=".62" stop-color="#dcdadd"/>
      <stop offset=".7" stop-color="#99919c"/>
      <stop offset=".8" stop-color="#6b636e"/>
      <stop offset=".81" stop-color="#887f8c"/>
      <stop offset=".9" stop-color="#afa9b1"/>
      <stop offset=".98" stop-color="#c6c1c7"/>
    </linearGradient>
    <linearGradient id="p" x1="41.24" y1="23.87" x2="84.02" y2="30.85" gradientTransform="translate(64 -26.51) rotate(45)" xlink:href="#f"/>
    <linearGradient id="q" x1="134.05" y1="-46.33" x2="144.64" y2="-46.33" gradientTransform="translate(51.62 -131.65) rotate(90) scale(1 -1)" xlink:href="#f"/>
    <radialGradient id="r" cx="65.81" cy="-17.02" fx="65.81" fy="-17.02" r="3.04" gradientTransform="translate(63.92 -26.51) rotate(135) scale(1 -1)" xlink:href="#g"/>
    <linearGradient id="s" x1="5.3" y1="11.11" x2="5.3" y2="4.3" xlink:href="#h"/>
    <linearGradient id="t" data-name="Zugcat Gradient Metal" x1="-718.54" y1="-189.44" x2="-819.81" y2="-234.15" gradientTransform="translate(-320.67 -615.77) rotate(-135)" xlink:href="#i"/>
    <linearGradient id="u" x1="78.74" y1="74.85" x2="72.35" y2="81.24" xlink:href="#j"/>
    <linearGradient id="v" x1="-767.63" y1="-212.6" x2="-767.63" y2="-209.04" gradientTransform="translate(840.68 286.91)" xlink:href="#k"/>
    <linearGradient id="w" x1="-699.95" y1="-207.38" x2="-699.89" y2="-215" gradientTransform="translate(-320.67 -615.77) rotate(-135)" xlink:href="#f"/>
    <linearGradient id="x" x1="-683.97" y1="-207.23" x2="-683.91" y2="-214.93" gradientTransform="translate(-320.67 -615.77) rotate(-135)" xlink:href="#f"/>
    <clipPath id="y">
      <path d="M111.97,108.08L36.66,32.77l-6.39,6.39,75.3,75.3c1.48,1.12,3.44,2.4,5.88,3.53,2.31,1.07,4.43,1.72,6.17,2.13-.37-1.72-.99-3.87-2.08-6.22-1.14-2.46-2.45-4.4-3.57-5.83Z" style="fill: none;"/>
    </clipPath>
    <linearGradient id="z" x1="45.11" y1="21.5" x2="86.93" y2="28.32" gradientTransform="translate(63.92 -26.51) rotate(135) scale(1 -1)" xlink:href="#o"/>
    <linearGradient id="aa" x1="44.63" y1="20.48" x2="87.41" y2="27.46" gradientTransform="translate(63.92 -26.51) rotate(135) scale(1 -1)" xlink:href="#f"/>
  </defs>
  <g>
    <g>
      <path d="M91.97,34c5.5,5.52,4.01,5.42,3.92,6.12-.22,1.64-1.37,1.47-3.76,3.61-2.59,2.32-.64,4.98-3.19,7.08-2.2,1.81-3.7.36-6.09,2.18-2.49,1.89-1.23,3.74-3.72,6.52-2.21,2.47-3.45,1.29-6.56,4.27-1.89,1.82-1.61,2.43-3.78,4.29-2.07,1.78-2.71,1.56-4.15,3.14-1.75,1.93-1.27,2.78-2.85,4.63-.39.46-.75.8-1.12,1.07-1.5,1.15-2.28,1.21-4.1,2.37-.83.53-1.25.8-1.72,1.28-1.39,1.42-1.07,2.39-2.03,3.7-1.15,1.56-2.03.72-4.69,2.75-1.47,1.12-2.48,2.35-3.03,3.03-.85,1.05-1.43,1.96-1.81,2.56-.29.46-.82,1.41-1.89,3.3-.72,1.29-.99,1.78-1.55,2.47-.12.15-.61.74-1.36,1.42-.28.26-.92.83-1.93,1.47-1.31.83-2.33,1.13-3.56,1.94-.33.22-.79.61-1.73,1.39-1.23,1.02-1.85,1.53-2.03,1.76-1.03,1.33-.39,2.06-1.44,3.83-.55.94-1.22,1.52-1.73,2.03-2.06,2.03-3.17,1.88-4.88,3.16-2.37,1.78-3.26,3.92-5.5,4.37-1.56.31-2.6,1.04-4.12,1.59-1.94.71-1.69,1.52-3.5,1.65-1.08.08-1.38.39-2.98.39-1.61,0-3.7,1.93-4.12,1.54-.41-.39,1.3-3.16,1.39-4.68.11-1.91-.19-2.43.18-4.18.25-1.18.61-.91,2.14-3.37,1.69-2.72,1.46-2.97,2.34-4.16,1.04-1.41,1.4-1.3,2.79-2.79,2.72-2.92,2.13-4.19,4.4-6.18,1.95-1.71,2.38-.77,4.24-2.46,2.35-2.15,1.63-3.65,4.03-5.82,1.8-1.63,2.32-.89,4.11-2.58,1.99-1.89,1.51-2.95,3.56-5.11,1.76-1.85,2.16-1.12,4.07-3.02,2.32-2.32,1.88-3.56,4.09-5.17,1.82-1.32,2.26-.58,3.88-1.79,2.61-1.97,1.56-3.98,4.05-6.22,2.08-1.87,3.05-.67,4.73-2.56,1.87-2.1,1.09-4.05,3.22-5.44,1.39-.9,1.87-.17,3.38-1.15,1.94-1.26,1.32-2.6,3.33-4.35,1.66-1.44,2.35-.77,3.39-2.12,1.29-1.68.41-2.95,1.75-4.35.97-1.02,1.51-.42,3.48-1.64.81-.5,2.29-1.44,3.25-3.25.89-1.66.37-2.24,1.24-3.09,1.26-1.21,2.56-.25,3.74-1.38,1.15-1.11.22-2.34,1.43-3.79.92-1.11,2.12-.14,3.45-1.16,2.21-1.68,3.21-2.53,4.6-2.81.73-.14-.53-1.57,4.75,3.72Z" style="fill: #34f9df; opacity: .45;"/>
      <path d="M31.08,34c-5.5,5.52-4.01,5.42-3.92,6.12.22,1.64,1.37,1.47,3.76,3.61,2.59,2.32.64,4.98,3.19,7.08,2.2,1.81,3.7.36,6.09,2.18,2.49,1.89,1.23,3.74,3.72,6.52,2.21,2.47,3.45,1.29,6.56,4.27,1.89,1.82,1.61,2.43,3.78,4.29,2.07,1.78,2.71,1.56,4.15,3.14,1.75,1.93,1.27,2.78,2.85,4.63.39.46.75.8,1.12,1.07,1.5,1.15,2.28,1.21,4.1,2.37.83.53,1.25.8,1.72,1.28,1.39,1.42,1.07,2.39,2.03,3.7,1.15,1.56,2.03.72,4.69,2.75,1.47,1.12,2.48,2.35,3.03,3.03.85,1.05,1.43,1.96,1.81,2.56.29.46.82,1.41,1.89,3.3.72,1.29.99,1.78,1.55,2.47.12.15.61.74,1.36,1.42.28.26.92.83,1.93,1.47,1.31.83,2.33,1.13,3.56,1.94.33.22.79.61,1.73,1.39,1.23,1.02,1.85,1.53,2.03,1.76,1.03,1.33.39,2.06,1.44,3.83.55.94,1.22,1.52,1.73,2.03,2.06,2.03,3.17,1.88,4.88,3.16,2.37,1.78,3.26,3.92,5.5,4.37,1.56.31,2.6,1.04,4.12,1.59,1.94.71,1.69,1.52,3.5,1.65,1.08.08,1.38.39,2.98.39,1.61,0,3.7,1.93,4.12,1.54.41-.39-1.3-3.16-1.39-4.68-.11-1.91.19-2.43-.18-4.18-.25-1.18-.61-.91-2.14-3.37-1.37-2.2-1.26-2.69-2.34-4.16-1.04-1.41-1.4-1.3-2.79-2.79-2.72-2.92-2.13-4.19-4.4-6.18-1.95-1.71-2.38-.77-4.24-2.46-2.35-2.15-1.63-3.65-4.03-5.82-1.8-1.63-2.32-.89-4.11-2.58-1.99-1.89-1.51-2.95-3.56-5.11-1.76-1.85-2.16-1.12-4.07-3.02-2.32-2.32-1.88-3.56-4.09-5.17-1.82-1.32-2.26-.58-3.88-1.79-2.61-1.97-1.56-3.98-4.05-6.22-2.08-1.87-3.05-.67-4.73-2.56-1.87-2.1-1.09-4.05-3.22-5.44-1.39-.9-1.87-.17-3.38-1.15-1.94-1.26-1.32-2.6-3.33-4.35-1.66-1.44-2.35-.77-3.39-2.12-1.29-1.68-.41-2.95-1.75-4.35-.97-1.02-1.51-.42-3.48-1.64-.81-.5-2.29-1.44-3.25-3.25-.89-1.66-.37-2.24-1.24-3.09-1.26-1.21-2.56-.25-3.74-1.38-1.15-1.11-.22-2.34-1.43-3.79-.92-1.11-2.12-.14-3.45-1.16-2.21-1.68-3.21-2.53-4.6-2.81-.73-.14.53-1.57-4.75,3.72Z" style="fill: #34f9df; opacity: .45;"/>
      <path d="M32.96,35.29c4.28-4.26,2.44-3.81,3.05-3.66,1.46.36,3.21,1.6,5.31,3.9,2.28,2.49,2.69,2.71,4.78,5.15,1.8,2.1,1.94,1.89,3.76,4.17,1.9,2.37,3.39,1.45,6.06,3.9,2.38,2.18,1.47,3.15,4.38,6.15,1.77,1.83,2.28,1.64,4.12,3.73,1.76,1.99,1.63,2.53,3.15,3.94,1.86,1.72,2.56,1.39,4.33,2.95,1.84,1.62,1.85,2.66,3.53,4.9,1.41,1.89,2.09,2.08,5.37,4.97,4.41,3.9,3.86,4.16,7.95,7.75,3.9,3.43,4.28,3.08,6.43,5.45,2.72,2.99,2.27,3.72,4.86,6.44,2.95,3.09,3.75,2.38,6.72,5.54,3.01,3.21,2.21,3.96,4.77,5.95,2.27,1.77,3.33,1.67,3.94,3.68.43,1.39.5,2.31,1.14,3.69.81,1.77,1.5,1.37,1.8,2.96.18.95.46,1.5.62,2.9.16,1.41,1.3,2.77,1,3.09-.3.32-2.66-.89-4-1.22-2.23-.55-2.7-.48-4.26-1.01-.7-.24-.8-.7-2.05-1.57-2.05-1.43-2.47-1.36-3.86-2.46-1.34-1.05-1.27-1.35-2.71-2.71-2.82-2.67-3.87-2.28-5.83-4.45-1.68-1.87-.91-2.16-2.57-3.94-2.11-2.27-3.35-1.79-5.48-4.1-1.6-1.73-1-2.11-2.66-3.85-1.85-1.93-2.73-1.61-4.81-3.61-1.79-1.72-1.19-2-3.04-3.85-2.25-2.25-3.3-2-4.92-4.08-1.34-1.72-.73-2.04-1.95-3.57-1.98-2.48-3.63-1.75-5.84-4.15-1.84-2-.89-2.73-2.7-4.38-2.02-1.84-3.65-1.35-5.07-3.35-.93-1.3-.34-1.65-1.34-3.06-1.29-1.82-2.4-1.41-4.13-3.34-1.43-1.59-.9-2.13-2.19-3.17-1.6-1.3-2.62-.65-3.98-1.96-.99-.95-.51-1.36-1.78-3.2-.52-.75-1.48-2.14-3.16-3.16-1.54-.94-2-.54-2.82-1.39-1.19-1.22-.47-2.26-1.58-3.4-1.09-1.11-1.51-.52-2.89-1.72-1.06-.91-1.71-1.84-2.73-3.1-1.69-2.09-2.57-2.26-2.94-3.51-.2-.65.11-.12,4.22-4.21Z" style="fill: #34f9df; opacity: .45; stroke: #34f9df; stroke-miterlimit: 10; stroke-width: .96px;"/>
      <path d="M90.09,35.29c-4.28-4.26-2.44-3.81-3.05-3.66-1.46.36-3.21,1.6-5.31,3.9-2.28,2.49-2.69,2.71-4.78,5.15-1.8,2.1-1.94,1.89-3.76,4.17-1.9,2.37-3.39,1.45-6.06,3.9-2.38,2.18-1.47,3.15-4.38,6.15-1.77,1.83-2.28,1.64-4.12,3.73-1.76,1.99-1.63,2.53-3.15,3.94-1.86,1.72-2.56,1.39-4.33,2.95-1.84,1.62-1.85,2.66-3.53,4.9-1.41,1.89-2.09,2.08-5.37,4.97-4.41,3.9-3.86,4.16-7.95,7.75-3.9,3.43-4.28,3.08-6.43,5.45-2.72,2.99-2.27,3.72-4.86,6.44-2.95,3.09-3.75,2.38-6.72,5.54-3.01,3.21-2.21,3.96-4.77,5.95-2.27,1.77-3.33,1.67-3.94,3.68-.43,1.39-.5,2.31-1.14,3.69-.81,1.77-1.5,1.37-1.8,2.96-.18.95-.46,1.5-.62,2.9-.16,1.41-1.3,2.77-1,3.09.3.32,2.66-.89,4-1.22,2.23-.55,2.7-.48,4.26-1.01.7-.24.8-.7,2.05-1.57,2.05-1.43,2.47-1.36,3.86-2.46,1.34-1.05,1.27-1.35,2.71-2.71,2.82-2.67,3.87-2.28,5.83-4.45,1.68-1.87.91-2.16,2.57-3.94,2.11-2.27,3.35-1.79,5.48-4.1,1.6-1.73,1-2.11,2.66-3.85,1.85-1.93,2.73-1.61,4.81-3.61,1.79-1.72,1.19-2,3.04-3.85,2.25-2.25,3.3-2,4.92-4.08,1.34-1.72.73-2.04,1.95-3.57,1.98-2.48,3.63-1.75,5.84-4.15,1.84-2,.89-2.73,2.7-4.38,2.02-1.84,3.65-1.35,5.07-3.35.93-1.3.34-1.65,1.34-3.06,1.29-1.82,2.4-1.41,4.13-3.34,1.43-1.59.9-2.13,2.19-3.17,1.6-1.3,2.62-.65,3.98-1.96.99-.95.51-1.36,1.78-3.2.52-.75,1.48-2.14,3.16-3.16,1.54-.94,2-.54,2.82-1.39,1.19-1.22.47-2.26,1.58-3.4,1.09-1.11,1.51-.52,2.89-1.72,1.06-.91,1.71-1.84,2.73-3.1,1.69-2.09,2.57-2.26,2.94-3.51.2-.65-.11-.12-4.22-4.21Z" style="fill: #34f9df; opacity: .45; stroke: #34f9df; stroke-miterlimit: 10; stroke-width: .96px;"/>
      <g>
        <path d="M119.36,2.4h-3.07c-2.07,0-3.76,1.69-3.76,3.76v3.07c0,2.07,1.69,3.76,3.76,3.76h3.07c3.69,0,3.76-3.31,3.76-3.76v-3.07c0-2.07-1.69-3.76-3.76-3.76Z" style="fill: url(#f);"/>
        <g>
          <path d="M118.73,4.57h-1.81c-1.22,0-2.22,1-2.22,2.22v1.81c0,1.22,1,2.22,2.22,2.22h1.81c2.18,0,2.22-1.96,2.22-2.22v-1.81c0-1.22-1-2.22-2.22-2.22Z" style="fill: url(#g);"/>
          <path d="M118.73,4.57c1.22,0,2.22,1,2.22,2.22v1.81c0,.27-.04,2.22-2.22,2.22h-1.81c-1.22,0-2.22-1-2.22-2.22v-1.81c0-1.22,1-2.22,2.22-2.22h1.81M118.73,4.3h-1.81c-1.38,0-2.5,1.12-2.5,2.5v1.81c0,1.38,1.12,2.5,2.5,2.5h1.81c1.84,0,2.5-1.35,2.5-2.5v-1.81c0-1.38-1.12-2.5-2.5-2.5h0Z" style="fill: url(#h);"/>
        </g>
      </g>
      <path d="M86.46,32.77l6.39,6.39L17.55,114.47c-1.48,1.12-3.44,2.4-5.88,3.53-2.31,1.07-4.43,1.72-6.17,2.13.37-1.72.99-3.87,2.08-6.22,1.14-2.46,2.45-4.4,3.57-5.83L86.46,32.77M86.46,32.29c-.12,0-.25.05-.34.14L10.81,107.74s-.03.03-.04.04c-1.43,1.83-2.66,3.82-3.63,5.92-.94,2.02-1.65,4.14-2.11,6.32-.03.16.02.33.13.44.09.09.21.14.34.14.04,0,.07,0,.11-.01,2.15-.5,4.26-1.23,6.26-2.16,2.11-.97,4.11-2.18,5.96-3.58.02-.01.03-.03.05-.04L93.19,39.5c.19-.19.19-.49,0-.68l-6.39-6.39c-.09-.09-.22-.14-.34-.14h0Z" style="fill: #bafdf4;"/>
      <g>
        <path d="M11.15,108.08L86.46,32.77l6.39,6.39L17.55,114.47c-1.48,1.12-3.44,2.4-5.88,3.53-2.31,1.07-4.43,1.72-6.17,2.13.37-1.72.99-3.87,2.08-6.22,1.14-2.46,2.45-4.4,3.57-5.83Z" style="fill: url(#i);"/>
        <path d="M86.46,33.79l5.38,5.38L17.07,113.93c-1.77,1.34-3.69,2.49-5.71,3.42-1.58.73-3.22,1.33-4.9,1.79.44-1.69,1.03-3.34,1.76-4.93.93-2.01,2.09-3.91,3.46-5.65L86.46,33.79M86.46,32.77L11.15,108.08c-1.12,1.43-2.43,3.37-3.57,5.83-1.09,2.35-1.71,4.5-2.08,6.22,1.74-.41,3.86-1.06,6.17-2.13,2.44-1.13,4.4-2.41,5.88-3.53L92.85,39.17l-6.39-6.39h0Z" style="fill: url(#j);"/>
      </g>
      <g>
        <rect x="2.52" y="74.8" width="95.1" height="2.59" rx=".83" ry=".83" transform="translate(-39.14 57.69) rotate(-45)" style="fill: #34f9df; stroke: url(#k); stroke-linecap: round; stroke-linejoin: bevel; stroke-width: .96px;"/>
        <path d="M82.01,43.79L17.98,107.82c-.1.1-.1.26,0,.36s.26.1.36,0L82.37,44.15c.1-.1.1-.26,0-.36s-.26-.1-.36,0Z" style="fill: #e6fefb;"/>
      </g>
      <g>
        <path d="M89.99,32.05l22.71-22c.49.18,1.02.43,1.73,1.15.72.72.97,1.26,1.14,1.73l-22,22.71-3.59-3.59Z" style="fill: #3c383e;"/>
        <path d="M112.81,10.61c.36.16.76.41,1.28.93.52.52.76.92.92,1.28l-21.44,22.14-2.9-2.9,22.14-21.44M112.58,9.5l-23.27,22.54,4.28,4.28,22.54-23.27c-.19-.54-.4-1.23-1.35-2.19-.95-.96-1.65-1.17-2.19-1.36h0Z" style="fill: #534e56;"/>
      </g>
      <path d="M100.41,19.74l-10.74,11.93,4.28,4.28,11.93-10.74c-.33-.79-1.36-2.2-2.32-3.15-.95-.96-2.37-1.99-3.16-2.32Z" style="fill: url(#l);"/>
      <path d="M112.21,9.87l-11.42,9.43c.85.46,2,1.19,3.15,2.33,1.17,1.17,1.92,2.34,2.38,3.2,3.27-3.68,6.13-7.77,9.43-11.42-.19-.54-.4-1.23-1.35-2.19-.95-.96-1.65-1.17-2.19-1.36Z" style="fill: url(#m);"/>
    </g>
    <g style="clip-path: url(#n);">
      <g>
        <path d="M101.06,53.16c-.05-1.44-.56-6.53-5.04-10.06-3.07-2.41-6.46-2.92-8.77-2.92-.55,0-1.09.03-1.61.09h0c-.09,0-.16-.03-.2-.08-.03-.03-.07-.1-.06-.19.2-1.79.31-6.38-2.83-10.38-3.54-4.49-8.63-4.99-10.07-5.04l-.2-.21,1.18-2.13c.05-.08.13-.14.22-.14.04,0,.07,0,.1.02,6.47,3.11,12.33,7.26,17.4,12.34,5.08,5.08,9.23,10.93,12.34,17.4.06.12,0,.26-.11.33l-2.13,1.18-.21-.2Z" style="fill: url(#o);"/>
        <path d="M73.77,22.63c6.34,3.08,12.09,7.16,17.07,12.15,4.99,4.99,9.07,10.73,12.15,17.07l-1.48.82c-.15-1.93-.95-6.61-5.2-9.96-3.17-2.5-6.68-3.02-9.07-3.02-.47,0-.94.02-1.38.06.18-2.02.14-6.5-2.96-10.44-3.34-4.25-8.03-5.05-9.96-5.2l.82-1.48M73.67,21.6c-.26,0-.51.14-.64.38l-1.35,2.43c.19.21.38.41.57.62.7,0,6.2.15,9.9,4.87,2.97,3.78,2.94,8.1,2.73,10.03-.05.43.3.8.72.8.03,0,.05,0,.08,0,.42-.05.95-.08,1.56-.08,2.22,0,5.51.49,8.47,2.82,4.71,3.71,4.86,9.21,4.87,9.9.21.19.41.38.62.57l2.43-1.35c.34-.19.48-.6.31-.95-2.2-4.57-6.01-11.12-12.43-17.54-6.42-6.42-12.97-10.23-17.54-12.43-.1-.05-.21-.07-.31-.07h0Z" style="fill: #534e56;"/>
      </g>
    </g>
    <path d="M92.2,33.43c-6.42-6.42-12.97-10.23-17.54-12.43-.35-.17-.76-.03-.95.31l-1.35,2.43c.19.21.38.41.57.62.7,0,6.2.15,9.9,4.87,2.97,3.78,2.94,8.1,2.73,10.03-.05.46.34.85.8.8,1.93-.21,6.25-.24,10.03,2.73,4.71,3.71,4.86,9.21,4.87,9.9.21.19.41.38.62.57l2.43-1.35c.34-.19.48-.6.31-.95-2.2-4.57-6.01-11.12-12.43-17.54Z" style="fill: url(#p);"/>
  </g>
  <g>
    <g>
      <g>
        <path d="M3.76,2.4h3.07c2.07,0,3.76,1.69,3.76,3.76v3.07c0,2.07-1.69,3.76-3.76,3.76h-3.07C.08,13,0,9.69,0,9.23v-3.07c0-2.07,1.69-3.76,3.76-3.76Z" style="fill: url(#q);"/>
        <g>
          <path d="M4.39,4.57h1.81c1.22,0,2.22,1,2.22,2.22v1.81c0,1.22-1,2.22-2.22,2.22h-1.81c-2.18,0-2.22-1.96-2.22-2.22v-1.81c0-1.22,1-2.22,2.22-2.22Z" style="fill: url(#r);"/>
          <path d="M6.2,4.57c1.22,0,2.22,1,2.22,2.22v1.81c0,1.22-1,2.22-2.22,2.22h-1.81c-2.18,0-2.22-1.96-2.22-2.22v-1.81c0-1.22,1-2.22,2.22-2.22h1.81M6.2,4.3h-1.81c-1.38,0-2.5,1.12-2.5,2.5v1.81c0,1.15.65,2.5,2.5,2.5h1.81c1.38,0,2.5-1.12,2.5-2.5v-1.81c0-1.38-1.12-2.5-2.5-2.5h0Z" style="fill: url(#s);"/>
        </g>
      </g>
      <path d="M36.66,32.77l75.3,75.3c1.12,1.43,2.43,3.37,3.57,5.83,1.09,2.35,1.71,4.5,2.08,6.22-1.74-.41-3.86-1.06-6.17-2.13-2.44-1.13-4.4-2.41-5.88-3.53L30.27,39.17l6.39-6.39M36.66,32.29c-.12,0-.25.05-.34.14l-6.39,6.39c-.09.09-.14.21-.14.34s.05.25.14.34l75.3,75.3s.03.03.05.04c1.85,1.4,3.86,2.6,5.96,3.58,2,.93,4.11,1.65,6.26,2.16.04,0,.07.01.11.01.12,0,.25-.05.34-.14.12-.12.17-.28.13-.44-.47-2.18-1.18-4.3-2.11-6.32-.98-2.11-2.2-4.1-3.63-5.92-.01-.02-.02-.03-.04-.04L37,32.43c-.09-.09-.22-.14-.34-.14h0Z" style="fill: #bafdf4;"/>
      <g>
        <path d="M111.97,108.08L36.66,32.77l-6.39,6.39,75.3,75.3c1.48,1.12,3.44,2.4,5.88,3.53,2.31,1.07,4.43,1.72,6.17,2.13-.37-1.72-.99-3.87-2.08-6.22-1.14-2.46-2.45-4.4-3.57-5.83Z" style="fill: url(#t);"/>
        <path d="M36.66,33.79l74.77,74.77c1.37,1.74,2.53,3.65,3.46,5.65.73,1.58,1.32,3.24,1.76,4.93-1.68-.46-3.32-1.06-4.9-1.79-2.01-.93-3.93-2.08-5.71-3.42L31.29,39.17l5.38-5.38M36.66,32.77l-6.39,6.39,75.3,75.3c1.48,1.12,3.44,2.4,5.88,3.53,2.31,1.07,4.43,1.72,6.17,2.13-.37-1.72-.99-3.87-2.08-6.22-1.14-2.46-2.45-4.4-3.57-5.83L36.66,32.77h0Z" style="fill: url(#u);"/>
      </g>
      <g>
        <rect x="25.5" y="74.8" width="95.1" height="2.59" rx=".83" ry=".83" transform="translate(70.9 181.55) rotate(-135)" style="fill: #34f9df; stroke: url(#v); stroke-linecap: round; stroke-linejoin: bevel; stroke-width: .96px;"/>
        <path d="M41.11,43.79l64.03,64.04c.1.1.1.26,0,.36s-.26.1-.36,0L40.75,44.15c-.1-.1-.1-.26,0-.36s.26-.1.36,0Z" style="fill: #e6fefb;"/>
      </g>
      <path d="M10.55,9.5l23.27,22.54-4.28,4.28L7,13.05c.19-.54.4-1.23,1.35-2.19.95-.96,1.65-1.17,2.19-1.36Z" style="fill: #534e56;"/>
      <path d="M22.72,19.74l10.74,11.93-4.28,4.28-11.93-10.74c.33-.79,1.36-2.2,2.32-3.15.95-.96,2.37-1.99,3.16-2.32Z" style="fill: url(#w);"/>
      <path d="M10.91,9.87l11.42,9.43c-.85.46-2,1.19-3.15,2.33-1.17,1.17-1.92,2.34-2.38,3.2-3.27-3.68-6.13-7.77-9.43-11.42.19-.54.4-1.23,1.35-2.19.95-.96,1.65-1.17,2.19-1.36Z" style="fill: url(#x);"/>
    </g>
    <g style="clip-path: url(#y);">
      <g>
        <path d="M19.72,52.17c-.12-.07-.17-.21-.11-.33,3.11-6.47,7.26-12.33,12.34-17.4,5.08-5.08,10.93-9.23,17.4-12.34.03-.02.07-.02.1-.02.09,0,.18.05.22.14l1.18,2.13-.2.21c-1.44.05-6.53.55-10.07,5.04-3.14,4-3.03,8.59-2.83,10.38.01.09-.03.16-.06.19-.05.05-.11.08-.18.08-.54-.06-1.09-.09-1.64-.09-2.31,0-5.7.51-8.77,2.92-4.49,3.53-4.99,8.62-5.04,10.07l-.21.2-2.13-1.18Z" style="fill: url(#z);"/>
        <path d="M49.36,22.63l.82,1.48c-1.93.15-6.62.95-9.96,5.2-3.1,3.94-3.14,8.43-2.96,10.44-.45-.04-.91-.06-1.38-.06-2.38,0-5.89.52-9.07,3.02-4.25,3.34-5.05,8.03-5.2,9.96l-1.48-.82c3.08-6.34,7.16-12.09,12.15-17.07,4.99-4.99,10.73-9.07,17.07-12.15M49.45,21.6c-.1,0-.21.02-.31.07-4.57,2.2-11.12,6.01-17.54,12.43s-10.23,12.97-12.43,17.54c-.17.35-.03.76.31.95l2.43,1.35c.21-.19.41-.38.62-.57,0-.7.15-6.2,4.87-9.9,2.96-2.33,6.26-2.82,8.47-2.82.61,0,1.14.04,1.56.08.03,0,.05,0,.08,0,.42,0,.77-.37.72-.8-.21-1.93-.24-6.25,2.73-10.03,3.71-4.71,9.21-4.86,9.9-4.87.19-.21.38-.41.57-.62l-1.35-2.43c-.13-.24-.38-.38-.64-.38h0Z" style="fill: #534e56;"/>
      </g>
    </g>
    <path d="M30.93,33.43c6.42-6.42,12.97-10.23,17.54-12.43.35-.17.76-.03.95.31l1.35,2.43c-.19.21-.38.41-.57.62-.7,0-6.2.15-9.9,4.87-2.97,3.78-2.94,8.1-2.73,10.03.05.46-.34.85-.8.8-1.93-.21-6.25-.24-10.03,2.73-4.71,3.71-4.86,9.21-4.87,9.9-.21.19-.41.38-.62.57l-2.43-1.35c-.34-.19-.48-.6-.31-.95,2.2-4.57,6.01-11.12,12.43-17.54Z" style="fill: url(#aa);"/>
  </g>
</svg>