<?xml version="1.0" encoding="UTF-8"?>
<svg id="g" data-name="Shield" xmlns="http://www.w3.org/2000/svg" xmlns:xlink="http://www.w3.org/1999/xlink" viewBox="0 0 128 128">
  <defs>
    <linearGradient id="h" x1="23.45" y1="64.4" x2="104.55" y2="64.4" gradientUnits="userSpaceOnUse">
      <stop offset="0" stop-color="#afa9b1"/>
      <stop offset=".2" stop-color="#dcdadd"/>
      <stop offset=".3" stop-color="#887f8c"/>
      <stop offset=".3" stop-color="#8c8390"/>
      <stop offset=".31" stop-color="#9c949f"/>
      <stop offset=".33" stop-color="#a6a0a9"/>
      <stop offset=".35" stop-color="#ada7af"/>
      <stop offset=".4" stop-color="#afa9b1"/>
      <stop offset=".5" stop-color="#c6c1c7"/>
      <stop offset=".6" stop-color="#dcdadd"/>
      <stop offset=".6" stop-color="#d1d8d9"/>
      <stop offset=".7" stop-color="#99919c"/>
      <stop offset=".8" stop-color="#6b636e"/>
      <stop offset=".81" stop-color="#887f8c"/>
      <stop offset=".9" stop-color="#afa9b1"/>
      <stop offset="1" stop-color="#c6c1c7"/>
    </linearGradient>
    <linearGradient id="i" data-name="New Gradient Swatch 2" x1="91.63" y1="101.73" x2="39.9" y2="12.12" gradientUnits="userSpaceOnUse">
      <stop offset="0" stop-color="#dde3e4"/>
      <stop offset="1" stop-color="#507174"/>
    </linearGradient>
    <radialGradient id="j" cx="64.16" cy="6.32" fx="64.16" fy="6.32" r="2.04" gradientUnits="userSpaceOnUse">
      <stop offset="0" stop-color="#f3f2f3"/>
      <stop offset=".2" stop-color="#e4e2e5"/>
      <stop offset=".52" stop-color="#c6c1c7"/>
      <stop offset=".85" stop-color="#8d8491"/>
      <stop offset=".88" stop-color="#887f8c"/>
      <stop offset="1" stop-color="#99919c"/>
    </radialGradient>
    <radialGradient id="k" cy="121.69" fy="121.69" r="2.04" xlink:href="#j"/>
    <radialGradient id="l" cx="99.7" cy="53.79" fx="99.7" fy="53.79" xlink:href="#j"/>
    <radialGradient id="m" cx="28.47" cy="53.79" fx="28.47" fy="53.79" xlink:href="#j"/>
    <radialGradient id="n" cx="28.72" cy="95.72" fx="28.72" fy="95.72" r="2.04" xlink:href="#j"/>
    <radialGradient id="o" cx="98.77" cy="95.72" fx="98.77" fy="95.72" r="2.04" xlink:href="#j"/>
    <radialGradient id="p" cx="98.97" cy="11.86" fx="98.97" fy="11.86" xlink:href="#j"/>
    <radialGradient id="q" cx="28.27" cy="11.86" fx="28.27" fy="11.86" r="2.04" xlink:href="#j"/>
    <linearGradient id="r" x1="37.51" y1="63.67" x2="90.49" y2="63.67" gradientUnits="userSpaceOnUse">
      <stop offset="0" stop-color="#534e56"/>
      <stop offset=".1" stop-color="#565159"/>
      <stop offset=".18" stop-color="#605b63"/>
      <stop offset=".25" stop-color="#716c74"/>
      <stop offset=".32" stop-color="#8a848c"/>
      <stop offset=".39" stop-color="#a9a3ab"/>
      <stop offset=".4" stop-color="#afa9b1"/>
      <stop offset=".89" stop-color="#534e56"/>
    </linearGradient>
    <linearGradient id="s" data-name="Zugcat Gradient Metal" x1="27.21" y1="46.69" x2="96.61" y2="73.58" gradientUnits="userSpaceOnUse">
      <stop offset="0" stop-color="#afa9b1"/>
      <stop offset=".2" stop-color="#dcdadd"/>
      <stop offset=".3" stop-color="#6b636e"/>
      <stop offset=".3" stop-color="#887f8c"/>
      <stop offset=".4" stop-color="#afa9b1"/>
      <stop offset=".5" stop-color="#c6c1c7"/>
      <stop offset=".6" stop-color="#dcdadd"/>
      <stop offset=".6" stop-color="#d1d8d9"/>
      <stop offset=".7" stop-color="#99919c"/>
      <stop offset=".8" stop-color="#6b636e"/>
      <stop offset=".81" stop-color="#887f8c"/>
      <stop offset=".9" stop-color="#afa9b1"/>
      <stop offset="1" stop-color="#c6c1c7"/>
    </linearGradient>
    <radialGradient id="t" data-name="Zugcat Eyes" cx="67.97" cy="62.89" fx="67.97" fy="62.89" r="14.37" gradientUnits="userSpaceOnUse">
      <stop offset="0" stop-color="#18fc0a"/>
      <stop offset=".35" stop-color="#1afc0a"/>
      <stop offset=".5" stop-color="#21fc0b"/>
      <stop offset=".61" stop-color="#2dfc0e"/>
      <stop offset=".7" stop-color="#3ffc12"/>
      <stop offset=".78" stop-color="#56fc17"/>
      <stop offset=".85" stop-color="#73fc1d"/>
      <stop offset=".92" stop-color="#94fc24"/>
      <stop offset=".98" stop-color="#bbfc2c"/>
      <stop offset="1" stop-color="#cafd30"/>
    </radialGradient>
    <radialGradient id="u" data-name="Zugcat Eyes" cx="60.87" cy="51.47" fx="60.87" fy="51.47" r="13.82" xlink:href="#t"/>
    <radialGradient id="v" data-name="Zugcat Eyes" cx="72.5" cy="65.04" fx="72.5" fy="65.04" r="12.89" xlink:href="#t"/>
    <radialGradient id="w" data-name="Zugcat Eyes" cx="64.62" cy="57.79" fx="64.62" fy="57.79" r="16.9" xlink:href="#t"/>
  </defs>
  <path d="M64,.8c-8.55,0-23.66.81-40.55,6.36v91.18c3.37,4.87,9.24,11.91,19.04,18.66,7.82,5.39,15.61,8.83,21.51,11,5.9-2.17,13.69-5.62,21.51-11,9.8-6.75,15.67-13.79,19.04-18.66V7.16c-7.82-2.57-22.07-6.36-40.55-6.36Z" style="fill: url(#h);"/>
  <g>
    <path d="M64,10.88c-6.63,0-18.33.7-31.41,5.45v75.07c2.61,4.18,7.15,10.22,14.74,16.01,6.06,4.62,12.09,7.58,16.66,9.44,4.57-1.86,10.6-4.82,16.66-9.44,7.59-5.79,12.14-11.83,14.74-16.01V16.34c-6.06-2.2-17.09-5.45-31.41-5.45Z" style="fill: #34f9df;"/>
    <path d="M64,11.89c10.38,0,20.87,1.78,30.4,5.16v74.07c-3.68,5.83-8.51,11.05-14.35,15.5-4.79,3.65-10.19,6.73-16.05,9.16-5.87-2.42-11.26-5.5-16.05-9.16-5.84-4.46-10.67-9.67-14.35-15.5V17.05c9.53-3.37,20.02-5.16,30.4-5.16M64,10.88c-6.63,0-18.33.7-31.41,5.45v75.07c2.61,4.18,7.15,10.22,14.74,16.01,6.06,4.62,12.09,7.58,16.66,9.44,4.57-1.86,10.6-4.82,16.66-9.44,7.59-5.79,12.14-11.83,14.74-16.01V16.34c-6.06-2.2-17.09-5.45-31.41-5.45h0Z" style="fill: url(#i);"/>
  </g>
  <g>
    <circle cx="64.41" cy="6.53" r="2.2" style="fill: #3c383e;"/>
    <circle cx="64.16" cy="6.32" r="2.04" style="fill: url(#j);"/>
  </g>
  <g>
    <circle cx="64.41" cy="121.9" r="2.2" style="fill: #3c383e;"/>
    <circle cx="64.16" cy="121.69" r="2.04" style="fill: url(#k);"/>
  </g>
  <g>
    <circle cx="99.95" cy="54" r="2.2" style="fill: #3c383e;"/>
    <circle cx="99.7" cy="53.79" r="2.04" style="fill: url(#l);"/>
  </g>
  <g>
    <circle cx="28.72" cy="54" r="2.2" style="fill: #3c383e;"/>
    <circle cx="28.47" cy="53.79" r="2.04" style="fill: url(#m);"/>
  </g>
  <g>
    <circle cx="28.97" cy="95.93" r="2.2" style="fill: #3c383e;"/>
    <circle cx="28.72" cy="95.72" r="2.04" style="fill: url(#n);"/>
  </g>
  <g>
    <circle cx="99.01" cy="95.93" r="2.2" style="fill: #3c383e;"/>
    <circle cx="98.77" cy="95.72" r="2.04" style="fill: url(#o);"/>
  </g>
  <g>
    <circle cx="99.22" cy="12.07" r="2.2" style="fill: #3c383e;"/>
    <circle cx="98.97" cy="11.86" r="2.04" style="fill: url(#p);"/>
  </g>
  <g>
    <circle cx="28.52" cy="12.07" r="2.2" style="fill: #3c383e;"/>
    <circle cx="28.27" cy="11.86" r="2.04" style="fill: url(#q);"/>
  </g>
  <path d="M64,15.25c9.56,0,19.23,1.67,28.01,4.82v69.28c-3.39,5.46-7.84,10.33-13.23,14.5-4.41,3.41-9.38,6.29-14.78,8.56-5.4-2.27-10.37-5.14-14.78-8.56-5.38-4.17-9.83-9.05-13.23-14.5V20.07c8.78-3.16,18.45-4.82,28.01-4.82M64,14.32c-6.11,0-16.89.65-28.95,5.1v70.2c2.4,3.91,6.59,9.56,13.59,14.98,5.59,4.32,11.14,7.09,15.36,8.83,4.21-1.74,9.77-4.51,15.36-8.83,7-5.42,11.18-11.06,13.59-14.98V19.42c-5.58-2.06-15.76-5.1-28.95-5.1h0Z" style="fill: #e6fefb;"/>
  <path d="M64,16.92c-5.59,0-15.45.61-26.49,4.81v66.23c2.2,3.69,6.03,9.02,12.43,14.13,5.11,4.08,10.19,6.69,14.05,8.33,3.86-1.64,8.94-4.25,14.05-8.33,6.4-5.11,10.23-10.44,12.43-14.13V21.73c-5.11-1.94-14.42-4.81-26.49-4.81Z" style="fill: url(#r); stroke: url(#s); stroke-miterlimit: 10;"/>
  <g>
    <path d="M83.13,49.48c-.72.38-1.42.74-2.12,1.1-.05.03-.16.03-.16.06-.12.55-.59.65-1.01.76-.41.1-.67.54-1.18.46-.23-.04-.51.15-.74.28-.52.29-.99.71-1.55.9-.75.26-1.15.82-1.56,1.41-.24.35-.38.34-.69-.03-.04-.04-.11-.05-.16-.08-1.12.98-1.84,2.26-2.58,3.48-.35.04-.69.08-1.02.13-.11.02-.27.09-.29.17-.09.39-.43.44-.69.62-.4.27-.78.58-.94,1.09-.05.15-.22.27-.29.42-.06.13-.05.3-.11.43-.04.09-.15.17-.24.23-.28.2-.61.34-.82.59-.31.36-.72.54-1.1.78-.49.31-.93.63-1.19,1.2-.2.43-.65.75-.84,1.18-.33.75-1.2.98-1.52,1.71-.04.09-.18.13-.28.18-.23.12-.45.27-.69.34-.32.09.06.55-.33.56-.06.27-.21.35-.5.32-.12-.01-.29.17-.38.3-.12.17-.19.38-.28.57-.1.22-.22.38-.47.49-.58.26-.89.84-1.35,1.26-.25.23-.48.48-.62.82-.1.25-.3.49-.51.67-.24.2-.6.27-.8.49-.19.21-.24.54-.6.6-.09.02-.17.15-.22.25-.24.5-.64.87-.97,1.29-.33.42-.62.88-.99,1.29-.15.17-.26.38-.44.65-.02-.26-.1-.45-.04-.58.29-.67.59-1.33.93-1.97.19-.35.41-.71.71-.96.31-.25.36-.6.55-.89-.25-.36.12-.44.29-.6.14-.12.19-.23.23-.44.09-.59.62-.87,1.07-1.17.17-.11.38-.15.45-.39.3-1.03,1.17-1.6,1.93-2.24.91-.76,1.81-1.53,2.19-2.69.21-.63.75-.94,1.15-1.36.35-.36.66-.71.87-1.17.27-.61,1.24-1.65,1.78-2.28.69-.79,1.58-1.34,2.31-2.08.47-.47,1.07-.81,1.61-1.22.2-.15.41-.3.57-.49.41-.45.84-.86,1.43-1.04.34-.11.62-.28.84-.57.49-.66,1.25-.96,1.92-1.38.72-.45,1.53-.65,2.3-.95.17-.07.46-.11.48-.21.13-.6.68-.45,1.04-.6.76-.31,1.47-.72,2.21-1.05,1.06-.47,2.16-.93,3.38-.71.02,0,.03.04.05.07Z" style="fill: url(#t);"/>
    <path d="M43.82,61.01c.26-1,.86-1.72,1.6-2.34.27-.22.51-.46.63-.81.09-.25.17-.5.51-.57.13-.03.27-.22.32-.37.18-.48.53-.76,1-.9.4-.12.83-.25,1.08-.56.27-.34.85-.16.98-.69.02-.1.31-.16.48-.2.93-.25,1.51-.91,1.99-1.68.11-.18.2-.32.4-.44.49-.28.88-.75,1.45-.89.41-.1.29-.67.72-.71.53-.97,1.48-1.45,2.34-2.05.78-.55,1.67-.88,2.47-1.39.24-.15.34-.38.56-.51.42-.25.87-.49,1.35-.46.4.03.64-.18.93-.36.07-.04.1-.17.17-.18.79-.13,1.36-.84,2.21-.83.11,0,.22-.14.33-.22.28-.21.54-.4.93-.39.24,0,.46-.19.57-.42.16-.34.34-.49.76-.36.28.09.62.03.93-.09.65-.26,1.31-.52,2.04-.51.17,0,.34-.17.5-.27.31-.18.61-.35,1.01-.22.33.11.67.02,1.01-.09.59-.19,1.18-.45,1.79-.48.78-.05,1.57-.15,2.35,0,.24.05.54-.11.69.16-.89.3-1.76.7-2.67.87-.67.13-1.34.28-2.03.36-.75.09-1.5.24-2.21.51-.07.03-.11.16-.17.18-.43.13-.93-.15-1.28.44-.2.34-.75.49-1.15.71-.16.09-.33.11-.5,0-.26-.18-.46-.1-.69.12-.38.37-.81.69-1.22,1.02-.17.14-.19.55-.58.34-.17.19-.36.36-.5.57-.18.27-.35.47-.74.44-.16-.01-.24.02-.3-.15-.01-.04-.28-.05-.28-.04-.12.45-.55.43-.87.55-.52.2-.97.49-1.34.9-.08.08-.21.17-.21.26.02.51-.36.61-.72.76-.86.34-1.71.7-2.56,1.05-.08.03-.21.05-.24.11-.3.64-1.07.73-1.45,1.29-.09.13-.12.23-.17.36-.08.2-.28.45-.56.4-.32-.06-.54.15-.66.33-.26.39-.65.48-1.03.62-.21.08-.42.14-.58.37-.12.18-.46.31-.69.28-.41-.05-.54.18-.64.47-.16.45-.45.66-.94.63-.15,0-.32.1-.45.19-.66.47-1.32.96-1.97,1.45-.2.15-.37.35-.56.5-.31.25-.59.58-.95.69-.65.2-1.06.65-1.51,1.1-.48.48-.96.96-1.68,1.15Z" style="fill: url(#u);"/>
    <path d="M85.6,52.52c-.26.17-.5.38-.78.5-.3.13-.54.31-.76.54-.11.12-.26.26-.41.29-.69.12-1.18.63-1.75.96-.31.18-.77,0-.94.43-.49.07-.79.46-1.18.7-.12.07-.21.22-.34.24-.44.08-.63.38-.8.75-.14.3-.41.55-.66.87-.16-.06-.37-.13-.58-.2-.16.14-.34.24-.45.4-.7,1.01-1.46,1.99-1.9,3.19-.24,0-.49-.03-.74-.02-.11,0-.28.05-.33.13-.28.52-.98.62-1.18,1.2-.42.16-.43.61-.64.92.23.36-.09.47-.29.6-.5.3-.79.8-1.17,1.21-.17.18-.31.45-.52.54-.77.34-1.21.95-1.54,1.68-.42.96-1.15,1.68-1.86,2.44-.59.64-1.37,1.08-1.86,1.84-.22.34-.53.68-.75,1.01-.38.58-.94,1.01-1.24,1.64-.3.05-.32.33-.42.53-.3.64-.72,1.14-1.32,1.55-.53.35-1.1.69-1.47,1.25-.02.02-.15-.03-.32-.08.28-.34.26-.75.67-1.04.28-.19.33-.69.53-1.03.23-.4.25-.94.74-1.18.08-.04.16-.23.14-.32-.15-.57.26-.82.62-1,.26-.13.4-.32.57-.5.19-.21.39-.4.57-.62.18-.22.51-.3.57-.63,0-.05.05-.14.09-.14.62-.08.64-.65.87-1.05.16-.29.29-.6.43-.9.17-.34.33-.66.63-.93.56-.51,1.04-1.1,1.28-1.83.3-.91,1-1.56,1.54-2.3.31-.43.74-.77,1.1-1.15.36-.39.84-.66,1.14-1.12.74-.23.98-1.11,1.73-1.35.09-.03.2-.15.22-.24.23-.77.91-1.01,1.52-1.32.25-.13.43-.25.57-.51.14-.27.34-.55.58-.72.73-.53,1.49-1.02,2.26-1.5.49-.3,1-.58,1.52-.81.24-.11.34-.32.51-.44.47-.33.98-.61,1.51-.83.87-.36,1.71-.76,2.55-1.18.53-.26,1.11-.41,1.67-.61.02.05.04.1.07.15Z" style="fill: url(#v);"/>
    <path d="M55.79,57.06c-.15.24-.3.38-.45.51-.16.13-.32.25-.48.44l-.43-.08c-.18.21-.18.31-.16.39.02.09.06.17-.04.36-.26.08-.56.32-.81.56-.25.24-.47.49-.56.56-.22-.01.01-.29.01-.42-.2.25-.25.43-.31.61-.06.18-.15.36-.44.63l-.07-.06c-.55.8-1.27,1.58-2.01,2.38-.18.2-.37.4-.56.6-.19.2-.37.4-.55.61-.18.21-.35.41-.52.62-.04.05-.08.1-.13.16-.04.05-.08.11-.12.16-.08.11-.16.21-.24.32.11-.09.14-.01.22,0-.18.21-.36.42-.55.63-.19.21-.37.43-.55.65-.09.11-.18.22-.27.33-.05.06-.09.11-.14.17-.04.06-.09.11-.13.17-.18.22-.35.45-.51.68-.17.23-.32.46-.47.69-.15.23-.28.46-.41.69-.25.46-.44.92-.57,1.38.35-.47.94-1,1.5-1.56.14-.14.28-.28.4-.43.13-.14.25-.29.37-.44.11-.15.21-.3.3-.46.04-.08.08-.16.11-.23.03-.08.06-.16.09-.24.24-.08.41-.3.57-.49.08-.1.16-.18.24-.24.08-.06.16-.08.26-.06.32-.28.57-.55.77-.81.21-.26.37-.51.54-.77.08-.13.16-.26.24-.39.09-.13.17-.26.27-.39.1-.13.2-.27.32-.4.06-.07.12-.14.19-.21.07-.07.14-.14.21-.21.21-.12.24.08.4.15l-.21.25-.1.13-.1.13-.41.51.66-.45c-.14.34-.81.84-.67,1.12.28-.52.79-1.05,1.29-1.55.13-.13.25-.25.37-.38.12-.12.24-.25.34-.37.21-.25.39-.49.5-.74-.2.13-.39.31-.58.49-.19.19-.39.39-.6.57-.25.09-.57.29-.67.15.41-.71.91-1.24,1.44-1.75.27-.25.54-.49.82-.74.28-.25.57-.51.85-.8.29-.29.73-.62.88-.54-.17.21.07.19-.05.38.18-.24.1-.36.06-.48-.04-.12-.04-.25.31-.48l.27.5c-.06-.33.16-.47.42-.61.06-.03.13-.07.2-.1.07-.04.13-.07.2-.12.12-.09.23-.2.3-.36.3.04.07.39-.27.68.46-.24.3-.52.63-.77l-.02.61c.03-.31.2-.42.4-.44.2-.03.42.02.56,0-.05-.11-.45-.26,0-.57.22-.09.2.07.28.09-.02-.06-.03-.16,0-.27.04-.11.12-.24.26-.35.15.09-.05.33.03.48.21-.17.37-.33.61-.34.31-.39-.16-.17-.02-.48.33-.17.43-.07.49.09.06.16.1.37.31.43-.08.13-.17.25-.27.37-.1.12-.2.24-.29.35-.19.22-.36.4-.44.54.26-.25.51-.49.77-.73.03.09.22.05.36.05.14,0,.23.03.06.26.47-.23.93-.58,1.38-.94.11-.09.22-.19.33-.28.11-.09.21-.19.32-.28.21-.19.41-.37.59-.54-.15.02-.33.1-.37-.02.18-.19.3-.23.39-.21.09.02.15.09.23.11.25-.32.04-.56.11-.89.41-.1.62-.2.82-.28.1-.04.2-.07.32-.1.12-.03.27-.04.47-.05l-.2-.25c.27-.02.36-.14.45-.27.09-.13.18-.27.45-.32.06.04-.07.22-.17.36.34-.33.5.01.82-.32l-.12.49c.07-.05.15-.11.23-.16.08-.06.16-.11.22-.14.14-.07.23-.07.23.11.09-.16.22-.3.37-.44.15-.14.33-.26.52-.39.09-.06.19-.13.28-.19.09-.06.19-.12.28-.19.18-.13.35-.26.5-.39l.09.27c.1-.24.42-.41.74-.59.32-.17.63-.34.69-.6l.1.07.55-.69c.34-.13.41.3.39.18.17-.1.33-.2.49-.29.16-.09.31-.16.45-.23.14-.07.28-.13.42-.17.14-.04.27-.08.4-.1-.02-.2.15-.4.4-.6.12-.1.27-.19.42-.29.15-.09.31-.17.46-.25.76-.27,1.52-.56,2.28-.87.76-.31,1.52-.63,2.28-.95.76-.33,1.5-.65,2.24-.96.37-.16.73-.31,1.09-.47.36-.15.72-.3,1.07-.44.22-.06.45-.23.7-.42.12-.09.25-.19.38-.28.07-.05.13-.09.2-.13.03-.02.07-.04.1-.06.02,0,.03-.02.05-.03.02,0,.03-.02.05-.03-.05,0-.09,0-.13.01-.04,0-.08,0-.11.01-.07.01-.13.02-.19.04-.11.03-.2.06-.29.1-.18.08-.35.16-.69.24-.52.03-.8-.29-1.3-.4l.3.24c-.31.21-.43.21-.54.2-.11,0-.2,0-.42.22l-.12-.49c-.12.3-.64.24-.88.17l-.07.39c-.24-.03-.43-.04-.6-.07-.16-.04-.29-.1-.41-.23l.14.29c-.06-.03-.18-.02-.34.02-.08.02-.16.04-.25.06-.09.02-.17.05-.26.07-.33.08-.6.09-.44-.26-.1.11-.15.31-.43.37l-.15-.29c-.18.11-.37.22-.54.28-.17.06-.31.09-.4.02.18-.15.2-.31.22-.46-.82.28-.82.56-.78.83.02.14.04.28-.03.42-.03.07-.09.14-.18.21-.09.07-.22.14-.39.22l-.06-.2c-.09.12-.18.23-.27.35l-.47-.09c-.03.11-.08.2-.15.28-.07.08-.16.15-.26.21-.1.06-.22.12-.35.16-.13.05-.26.1-.4.14-.14.04-.28.09-.42.13-.14.05-.28.1-.41.15-.13.05-.26.11-.37.18-.11.07-.21.15-.3.24-.15.1-.38.11-.64.13-.13.01-.27.03-.42.06-.07.02-.15.04-.22.07-.07.03-.15.06-.22.11l.18.27c-.16-.01-.4.02-.68.08-.28.06-.61.13-.94.2-.33.07-.67.12-.97.14-.3.02-.57,0-.78-.11-.35.47.08.03.19.26-.09.1-.18.18-.26.24-.08.06-.15.11-.22.15-.14.07-.26.1-.38.1-.12,0-.23-.01-.35-.03-.12-.01-.24-.02-.38,0-.47.45.48-.13.3.24-.48.13-.6.31-.74.51-.14.2-.31.42-.87.63-.1-.05-.05-.11.03-.19.08-.07.19-.16.21-.24-.07.09-.15.17-.25.26-.09.09-.2.17-.31.26-.23.17-.49.34-.77.51-.55.34-1.16.69-1.66,1.05-.16.07-.34.16-.51.24-.09.04-.18.09-.27.14-.09.05-.18.1-.28.15-.19.1-.38.2-.58.31-.1.05-.2.11-.29.16-.1.06-.2.11-.3.17-.4.23-.81.46-1.2.68-.2.11-.4.22-.59.33-.2.11-.39.21-.58.3l.04.11c-.18.04-.35.12-.5.22-.15.1-.3.21-.45.33-.07.06-.14.12-.22.18-.07.06-.15.13-.22.19-.15.12-.31.24-.49.34l.42-.11Z" style="fill: url(#w);"/>
  </g>
</svg>