<?xml version="1.0" encoding="UTF-8"?>
<svg xmlns="http://www.w3.org/2000/svg" viewBox="0 0 128 128" fill="currentColor" class="text-secondary-300"> 
    <circle fill="currentColor" cx="64" cy="64.25" r="20.68"/> 
    <path fill="currentColor" d="M111.26,58.43c-2.63-21.65-19.8-38.81-41.44-41.44V.25h-11.62v16.73c-21.66,2.64-38.82,19.8-41.45,41.45H0v11.63h16.74c2.63,21.65,19.8,38.81,41.44,41.44v16.73h11.62v-16.73c21.66-2.64,38.82-19.8,41.45-41.45h16.73v-11.63h-16.74ZM100.28,70.07c-2.49,15.63-14.83,27.98-30.47,30.47-1.89.3-3.84.46-5.81.46s-3.92-.16-5.81-.46c-15.63-2.49-27.98-14.83-30.46-30.46-.31-1.89-.47-3.84-.47-5.82s.16-3.92.46-5.81c2.49-15.63,14.83-27.98,30.47-30.47,1.89-.3,3.84-.46,5.81-.46s3.92.16,5.81.46c15.63,2.49,27.98,14.83,30.46,30.46.31,1.89.47,3.84.47,5.82s-.16,3.92-.46,5.81Z"/> 
</svg>