<?xml version="1.0" encoding="UTF-8"?>
<svg id="h" data-name="Layer 6" xmlns="http://www.w3.org/2000/svg" xmlns:xlink="http://www.w3.org/1999/xlink" viewBox="0 0 128 128">
  <defs>
    <radialGradient id="i" cx="64" cy="26.74" fx="64" fy="38.64" r="15.92" gradientTransform="translate(4.66 2.02) scale(.93)" gradientUnits="userSpaceOnUse">
      <stop offset="0" stop-color="#edfeb8"/>
      <stop offset=".08" stop-color="#eafdb6"/>
      <stop offset=".13" stop-color="#e2fdaf"/>
      <stop offset=".17" stop-color="#d3fda4"/>
      <stop offset=".21" stop-color="#bffd95"/>
      <stop offset=".24" stop-color="#a4fd81"/>
      <stop offset=".27" stop-color="#84fd68"/>
      <stop offset=".3" stop-color="#5efd4b"/>
      <stop offset=".32" stop-color="#3afd30"/>
      <stop offset=".35" stop-color="#65fc23"/>
      <stop offset=".39" stop-color="#96fc15"/>
      <stop offset=".42" stop-color="#b5fc0d"/>
      <stop offset=".44" stop-color="#c1fc0a"/>
      <stop offset=".44" stop-color="#bbfb10" stop-opacity=".98"/>
      <stop offset=".45" stop-color="#aafb24" stop-opacity=".91"/>
      <stop offset=".47" stop-color="#8ffa44" stop-opacity=".8"/>
      <stop offset=".48" stop-color="#69fa70" stop-opacity=".65"/>
      <stop offset=".49" stop-color="#39f8a9" stop-opacity=".46"/>
      <stop offset=".5" stop-color="#11f8d9" stop-opacity=".3"/>
      <stop offset=".56" stop-color="#11f8d9" stop-opacity=".34"/>
      <stop offset=".66" stop-color="#11f8d9" stop-opacity=".46"/>
      <stop offset=".79" stop-color="#11f8d9" stop-opacity=".65"/>
      <stop offset=".95" stop-color="#11f8d9" stop-opacity=".9"/>
      <stop offset="1" stop-color="#11f8d9"/>
    </radialGradient>
    <linearGradient id="j" x1="63.35" y1="28.26" x2="63.35" y2="22.04" gradientUnits="userSpaceOnUse">
      <stop offset="0" stop-color="#fff" stop-opacity="0"/>
      <stop offset="1" stop-color="#fff"/>
    </linearGradient>
    <linearGradient id="k" x1="41.82" y1="102.24" x2="86.18" y2="146.6" gradientUnits="userSpaceOnUse">
      <stop offset="0" stop-color="#afa9b1"/>
      <stop offset=".2" stop-color="#dcdadd"/>
      <stop offset=".3" stop-color="#887f8c"/>
      <stop offset=".3" stop-color="#8c8390"/>
      <stop offset=".31" stop-color="#9c949f"/>
      <stop offset=".33" stop-color="#a6a0a9"/>
      <stop offset=".35" stop-color="#ada7af"/>
      <stop offset=".4" stop-color="#afa9b1"/>
      <stop offset=".5" stop-color="#c6c1c7"/>
      <stop offset=".6" stop-color="#dcdadd"/>
      <stop offset=".6" stop-color="#d1d8d9"/>
      <stop offset=".7" stop-color="#99919c"/>
      <stop offset=".8" stop-color="#6b636e"/>
      <stop offset=".81" stop-color="#887f8c"/>
      <stop offset=".9" stop-color="#afa9b1"/>
      <stop offset="1" stop-color="#c6c1c7"/>
    </linearGradient>
    <radialGradient id="l" cx="48.54" cy="57.62" fx="48.54" fy="57.62" r="8.26" gradientUnits="userSpaceOnUse">
      <stop offset="0" stop-color="#e6fefb"/>
      <stop offset="1" stop-color="#34f9df"/>
    </radialGradient>
    <linearGradient id="m" x1="30.15" y1="119.25" x2="97.85" y2="119.25" gradientUnits="userSpaceOnUse">
      <stop offset="0" stop-color="#34f9df"/>
      <stop offset=".27" stop-color="#e6fefb"/>
      <stop offset=".51" stop-color="#34f9df"/>
      <stop offset=".9" stop-color="#059e8a"/>
      <stop offset=".99" stop-color="#34f9df"/>
    </linearGradient>
    <linearGradient id="n" x1="39.5" y1="80.34" x2="88.5" y2="129.33" xlink:href="#k"/>
    <linearGradient id="o" x1="47.6" y1="73.45" x2="80.4" y2="73.45" gradientUnits="userSpaceOnUse">
      <stop offset="0" stop-color="#34f9df"/>
      <stop offset=".27" stop-color="#e6fefb"/>
      <stop offset=".51" stop-color="#34f9df"/>
      <stop offset=".9" stop-color="#059e8a"/>
      <stop offset=".99" stop-color="#34f9df"/>
    </linearGradient>
    <radialGradient id="p" cx="79.19" cy="57.62" fx="79.19" fy="57.62" r="8.26" xlink:href="#l"/>
    <linearGradient id="q" x1="48.93" y1="44.58" x2="79.07" y2="74.72" xlink:href="#k"/>
    <linearGradient id="r" x1="42.26" y1="97.15" x2="85.74" y2="97.15" gradientUnits="userSpaceOnUse">
      <stop offset="0" stop-color="#534e56"/>
      <stop offset=".08" stop-color="#565159"/>
      <stop offset=".15" stop-color="#605a63"/>
      <stop offset=".21" stop-color="#716b74"/>
      <stop offset=".27" stop-color="#8a828d"/>
      <stop offset=".3" stop-color="#99919c"/>
      <stop offset=".65" stop-color="#534e56"/>
    </linearGradient>
    <linearGradient id="s" x1="64.66" y1="117.92" x2="57.72" y2="78.61" gradientUnits="userSpaceOnUse">
      <stop offset="0" stop-color="#dcdadd"/>
      <stop offset="1" stop-color="#6b636e"/>
    </linearGradient>
    <linearGradient id="t" x1="58.29" y1="52.08" x2="69.71" y2="63.5" gradientUnits="userSpaceOnUse">
      <stop offset="0" stop-color="#6b636e"/>
      <stop offset=".24" stop-color="#6e6671"/>
      <stop offset=".44" stop-color="#78707a"/>
      <stop offset=".62" stop-color="#88818b"/>
      <stop offset=".8" stop-color="#a09aa2"/>
      <stop offset=".96" stop-color="#beb9bf"/>
      <stop offset="1" stop-color="#c6c1c7"/>
    </linearGradient>
    <linearGradient id="u" x1="46.44" y1="40.43" x2="81.56" y2="40.43" gradientUnits="userSpaceOnUse">
      <stop offset="0" stop-color="#fff"/>
      <stop offset="1" stop-color="#507174"/>
    </linearGradient>
    <linearGradient id="v" y1="40.13" y2="40.13" xlink:href="#u"/>
    <linearGradient id="w" x1="23.7" y1="123.37" x2="77.5" y2="123.37" gradientUnits="userSpaceOnUse">
      <stop offset="0" stop-color="#fff"/>
      <stop offset="1" stop-color="#fff" stop-opacity="0"/>
    </linearGradient>
    <linearGradient id="x" x1="56.84" y1="89.91" x2="71.16" y2="104.23" gradientUnits="userSpaceOnUse">
      <stop offset="0" stop-color="#242225"/>
      <stop offset=".99" stop-color="#887f8c"/>
    </linearGradient>
    <linearGradient id="y" x1="50.49" y1="91.45" x2="61.73" y2="102.69" xlink:href="#x"/>
    <linearGradient id="z" x1="66.27" y1="91.45" x2="77.51" y2="102.69" xlink:href="#x"/>
    <linearGradient id="aa" x1="42.37" y1="3.49" x2="87.24" y2="27.75" gradientUnits="userSpaceOnUse">
      <stop offset="0" stop-color="#afa9b1"/>
      <stop offset=".14" stop-color="#dcdadd"/>
      <stop offset=".25" stop-color="#887f8c"/>
      <stop offset=".25" stop-color="#8c8390"/>
      <stop offset=".26" stop-color="#9c949f"/>
      <stop offset=".28" stop-color="#a6a0a9"/>
      <stop offset=".29" stop-color="#ada7af"/>
      <stop offset=".34" stop-color="#afa9b1"/>
      <stop offset=".43" stop-color="#f3f2f3"/>
      <stop offset=".49" stop-color="#afa9b1"/>
      <stop offset=".7" stop-color="#99919c"/>
      <stop offset=".8" stop-color="#6b636e"/>
      <stop offset=".81" stop-color="#887f8c"/>
      <stop offset=".9" stop-color="#afa9b1"/>
      <stop offset="1" stop-color="#c6c1c7"/>
    </linearGradient>
    <linearGradient id="ab" x1="53.91" y1="30.81" x2="74.09" y2="50.99" xlink:href="#k"/>
    <linearGradient id="ac" x1="47.08" y1="40.13" x2="80.85" y2="40.13" xlink:href="#w"/>
    <linearGradient id="ad" x1="38.61" y1="98.74" x2="37.18" y2="115.49" gradientUnits="userSpaceOnUse">
      <stop offset="0" stop-color="#fff"/>
      <stop offset="1" stop-color="#fff" stop-opacity="0"/>
    </linearGradient>
    <linearGradient id="ae" x1="51.62" y1="54.99" x2="50.25" y2="71" xlink:href="#w"/>
  </defs>
  <g>
    <path d="M76.16,13.57c.27.43.43.92.43,1.43,0,1.73-1.74,3.14-3.88,3.14s-3.88-1.4-3.88-3.14c0-1.13.74-2.12,1.85-2.67-5.55-2.45-6.63-7.39-6.69-7.7-.06.31-1.14,5.25-6.69,7.7,1.11.55,1.85,1.54,1.85,2.67,0,1.73-1.74,3.14-3.88,3.14s-3.88-1.4-3.88-3.14c0-.52.16-1,.43-1.43-4.13.15-7.28-1.37-7.67-1.56,1.41,1.45,3.26,3.7,4.62,6.73,1.26,2.82,1.66,5.32,1.77,7.1,3.65-.58,8.2-1.06,13.44-1.06,3.72,0,8.3.24,13.44,1.06.11-1.78.5-4.28,1.77-7.1,1.36-3.03,3.21-5.28,4.62-6.73-.39.2-3.55,1.71-7.67,1.56Z" style="fill: #3c383e;"/>
    <g>
      <ellipse cx="64" cy="26.89" rx="16.68" ry="16.73" style="fill: url(#i);"/>
      <path d="M64.04,28.21c.33.36,1.78,2.01,1.78,4.55,0,2.55-1.45,4.19-1.78,4.55-.31-.32-1.85-1.97-1.84-4.55,0-2.58,1.53-4.23,1.85-4.55Z" style="fill: #021900;"/>
      <path d="M75.29,26.68c-2.1,2.1-21.77,2.1-23.86,0-1.37-1.37,3.76-4.64,11.93-4.64s13.3,3.27,11.93,4.64Z" style="fill: url(#j); opacity: .54;"/>
    </g>
    <rect x="21.16" y="120.9" width="85.68" height="7.03" rx="3.39" ry="3.39" style="fill: url(#k);"/>
    <path d="M45.53,67.83l4.16-20.72c.08-.49.56-.83,1.05-.75h.07c.49.09.83.57.75,1.06l-4.16,20.72c-.08.49-.56.83-1.05.75h-.07c-.49-.09-.83-.57-.75-1.06Z" style="fill: url(#l);"/>
    <polygon points="64 117.6 30.15 117.6 30.15 120.9 64 120.9 97.85 120.9 97.85 117.6 64 117.6" style="fill: url(#m);"/>
    <path d="M89.05,96.75c-3.23-8.24-4.88-15.71-5.75-21.6h-38.61c-.87,5.9-2.51,13.37-5.75,21.6-3.45,8.79-7.64,15.73-11.22,20.8h72.55c-3.58-5.07-7.77-12.01-11.22-20.8Z" style="fill: url(#n);"/>
    <polygon points="64 71.8 47.6 71.8 47.6 75.1 64 75.1 80.4 75.1 80.4 71.8 64 71.8" style="fill: url(#o);"/>
    <path d="M82.2,67.83l-4.16-20.72c-.08-.49-.56-.83-1.05-.75h-.07c-.49.09-.83.57-.75,1.06l4.16,20.72c.08.49.56.83,1.05.75h.07c.49-.09.83-.57.75-1.06Z" style="fill: url(#p);"/>
    <polygon points="76.19 41.7 64 41.7 51.81 41.7 46.01 71.8 64 71.8 81.99 71.8 76.19 41.7" style="fill: url(#q);"/>
    <g>
      <polygon points="78.73 80.11 64 80.11 49.27 80.11 42.26 114.2 64 114.2 85.74 114.2 78.73 80.11" style="fill: url(#r);"/>
      <path d="M77.88,81.14l6.58,32.02h-40.93l6.58-32.02h27.77M78.73,80.11h-29.46l-7.01,34.1h43.48l-7.01-34.1h0Z" style="fill: url(#s);"/>
    </g>
    <g>
      <rect x="62.59" y="48.02" width="2.82" height="19.54" rx="1.41" ry="1.41" style="fill: #34f9df;"/>
      <path d="M64,48.02c.78,0,1.41.64,1.41,1.41v16.72c0,.78-.64,1.41-1.41,1.41s-1.41-.64-1.41-1.41v-16.72c0-.78.64-1.41,1.41-1.41M64,47.27c-1.19,0-2.16.97-2.16,2.16v16.72c0,1.19.97,2.16,2.16,2.16s2.16-.97,2.16-2.16v-16.72c0-1.19-.97-2.16-2.16-2.16h0Z" style="fill: url(#t);"/>
    </g>
    <line x1="64" y1="49.69" x2="64" y2="65.45" style="fill: #c6edf3; stroke: #ecf9fb; stroke-linecap: round; stroke-miterlimit: 10; stroke-width: .78px;"/>
    <rect x="46.44" y="39.66" width="35.13" height="1.54" rx=".62" ry=".62" style="fill: url(#u); opacity: .38;"/>
    <rect x="46.44" y="39.36" width="35.13" height="1.54" rx=".62" ry=".62" style="fill: url(#v); opacity: .38;"/>
    <rect x="23.7" y="122.05" width="53.8" height="2.64" rx="1.27" ry="1.27" style="fill: url(#w); opacity: .75;"/>
    <g>
      <g>
        <rect x="62.02" y="83.77" width="3.95" height="26.59" rx="1.63" ry="1.63" style="fill: #0d0c0d;"/>
        <path d="M64.35,84.77c.34,0,.63.29.63.63v23.34c0,.34-.29.63-.63.63h-.7c-.34,0-.63-.29-.63-.63v-23.34c0-.34.29-.63.63-.63h.7M64.35,83.77h-.7c-.89,0-1.63.73-1.63,1.63v23.34c0,.89.73,1.63,1.63,1.63h.7c.89,0,1.63-.73,1.63-1.63v-23.34c0-.89-.73-1.63-1.63-1.63h0Z" style="fill: url(#x);"/>
      </g>
      <g>
        <rect x="54.13" y="86.85" width="3.95" height="20.43" rx="1.63" ry="1.63" style="fill: #0d0c0d;"/>
        <path d="M56.46,87.85c.34,0,.63.29.63.63v17.18c0,.34-.29.63-.63.63h-.7c-.34,0-.63-.29-.63-.63v-17.18c0-.34.29-.63.63-.63h.7M56.46,86.85h-.7c-.89,0-1.63.73-1.63,1.63v17.18c0,.89.73,1.63,1.63,1.63h.7c.89,0,1.63-.73,1.63-1.63v-17.18c0-.89-.73-1.63-1.63-1.63h0Z" style="fill: url(#y);"/>
      </g>
      <g>
        <rect x="69.92" y="86.85" width="3.95" height="20.43" rx="1.63" ry="1.63" style="fill: #0d0c0d;"/>
        <path d="M72.24,87.85c.34,0,.63.29.63.63v17.18c0,.34-.29.63-.63.63h-.7c-.34,0-.63-.29-.63-.63v-17.18c0-.34.29-.63.63-.63h.7M72.24,86.85h-.7c-.89,0-1.63.73-1.63,1.63v17.18c0,.89.73,1.63,1.63,1.63h.7c.89,0,1.63-.73,1.63-1.63v-17.18c0-.89-.73-1.63-1.63-1.63h0Z" style="fill: url(#z);"/>
      </g>
    </g>
    <path d="M79.7,10.89c.35.52.56,1.12.56,1.75,0,2.11-2.24,3.82-5.01,3.82s-5.01-1.71-5.01-3.82c0-1.38.96-2.58,2.4-3.25-7.17-2.99-8.56-9.01-8.64-9.39-.08.38-1.47,6.4-8.64,9.39,1.44.67,2.4,1.88,2.4,3.25,0,2.11-2.24,3.82-5.01,3.82s-5.01-1.71-5.01-3.82c0-.63.2-1.22.56-1.75-5.33.18-9.4-1.66-9.91-1.9,1.82,1.77,4.21,4.51,5.97,8.2,1.63,3.44,2.14,6.49,2.28,8.65,4.72-.71,10.6-1.29,17.36-1.29,4.81,0,10.73.29,17.36,1.29.14-2.16.65-5.22,2.28-8.65,1.76-3.69,4.15-6.43,5.97-8.2-.51.24-4.58,2.08-9.91,1.9Z" style="fill: url(#aa);"/>
    <rect x="44.91" y="38.39" width="38.18" height="5.02" rx="2.42" ry="2.42" style="fill: url(#ab);"/>
    <rect x="51.32" y="43.41" width="25.29" height="1.21" style="fill: #6b636e;"/>
  </g>
  <rect x="47.08" y="39.17" width="33.78" height="1.92" rx=".96" ry=".96" style="fill: url(#ac); opacity: .75;"/>
  <path d="M42.26,95.69c.56.16.75,1.24.84,2.46.28,3.58-.38,6.37-.84,8.5-1.34,6.2-1.05,6.83-2.07,7.56-2.25,1.6-6.59.56-7.35-1.43-.72-1.88,2.44-2.78,4.32-8.13.79-2.25,1.05-4.43,2.97-7.16,1.31-1.86,1.9-1.86,2.13-1.8Z" style="fill: url(#ad); opacity: .4;"/>
  <path d="M52.77,51.87c.4.1.47,1.02.58,3.03.21,3.84.31,5.75.26,7.61-.12,4.38-.3,5.01-.71,5.61-1.09,1.62-3.29,2.77-4.36,2.13-1.2-.72-.73-3.54-.41-5.42.32-1.91.62-1.79,1.23-4.32.73-3.06.47-4,1.42-6.06.11-.25,1.29-2.76,2-2.58Z" style="fill: url(#ae); opacity: .4;"/>
</svg>