<?xml version="1.0" encoding="UTF-8"?>
<svg id="Layer_6" data-name="Layer 6" xmlns="http://www.w3.org/2000/svg" xmlns:xlink="http://www.w3.org/1999/xlink" viewBox="0 0 128 128">
  <defs>
    <style>
      .cls-1 {
        fill: #507174;
      }

      .cls-2 {
        fill: #53c9dc;
      }

      .cls-3 {
        fill: url(#New_Gradient_Swatch_copy);
      }

      .cls-4 {
        fill: #e5f1c7;
      }

      .cls-5, .cls-6 {
        opacity: .74;
      }

      .cls-7 {
        fill: url(#linear-gradient-7);
      }

      .cls-7, .cls-8 {
        opacity: .38;
      }

      .cls-9 {
        fill: url(#New_Gradient_Swatch_copy_4-2);
      }

      .cls-10 {
        opacity: .46;
      }

      .cls-11 {
        fill: url(#New_Gradient_Swatch_copy-4);
      }

      .cls-12 {
        fill: url(#linear-gradient-4);
      }

      .cls-8 {
        fill: url(#linear-gradient-6);
      }

      .cls-13 {
        fill: #c6edf3;
        stroke-width: .78px;
      }

      .cls-13, .cls-14, .cls-15, .cls-16, .cls-17, .cls-18 {
        stroke-miterlimit: 10;
      }

      .cls-13, .cls-16, .cls-17 {
        stroke-linecap: round;
      }

      .cls-13, .cls-18 {
        stroke: #ecf9fb;
      }

      .cls-19 {
        fill: url(#radial-gradient);
      }

      .cls-20 {
        fill: url(#New_Gradient_Swatch_copy-3);
      }

      .cls-21 {
        fill: url(#linear-gradient-3);
      }

      .cls-22 {
        opacity: .63;
      }

      .cls-23 {
        fill: #f0f2f3;
      }

      .cls-14 {
        fill: #c2dd7b;
        stroke: url(#New_Gradient_Swatch_2-4);
        stroke-width: .76px;
      }

      .cls-24 {
        fill: url(#linear-gradient-8);
        opacity: .4;
      }

      .cls-25 {
        fill: url(#New_Gradient_Swatch_2);
      }

      .cls-15 {
        fill: url(#New_Gradient_Swatch_copy_4-5);
        stroke: url(#New_Gradient_Swatch_2-2);
      }

      .cls-26 {
        fill: url(#New_Gradient_Swatch_copy-2);
      }

      .cls-27 {
        opacity: .56;
      }

      .cls-16 {
        stroke-width: .74px;
      }

      .cls-16, .cls-17 {
        fill: #a0e1ec;
        stroke: #e5f1c7;
      }

      .cls-28 {
        opacity: .43;
      }

      .cls-6 {
        fill: url(#linear-gradient-5);
      }

      .cls-29 {
        fill: url(#New_Gradient_Swatch_copy_4-4);
      }

      .cls-17 {
        stroke-width: .65px;
      }

      .cls-30 {
        fill: #a8cf42;
      }

      .cls-31 {
        opacity: .6;
      }

      .cls-18 {
        fill: none;
        stroke-width: 1.04px;
      }

      .cls-32 {
        fill: #97ba3b;
      }

      .cls-33 {
        fill: url(#linear-gradient);
      }

      .cls-34 {
        fill: url(#New_Gradient_Swatch_copy_4);
      }

      .cls-35 {
        fill: url(#New_Gradient_Swatch_copy_4-3);
      }

      .cls-36 {
        fill: url(#linear-gradient-2);
        opacity: .54;
      }

      .cls-37 {
        opacity: .5;
      }

      .cls-38 {
        fill: url(#New_Gradient_Swatch_2-3);
      }
    </style>
    <linearGradient id="New_Gradient_Swatch_copy" data-name="New Gradient Swatch copy" x1="41.82" y1="102.24" x2="86.18" y2="146.6" gradientUnits="userSpaceOnUse">
      <stop offset="0" stop-color="#b2bec0"/>
      <stop offset=".2" stop-color="#d1d8d9"/>
      <stop offset=".3" stop-color="#657d80"/>
      <stop offset=".3" stop-color="#6f8588"/>
      <stop offset=".4" stop-color="#a3b1b3"/>
      <stop offset=".5" stop-color="#c4cdce"/>
      <stop offset=".6" stop-color="#d1d8d9"/>
      <stop offset=".6" stop-color="#bdc7c8"/>
      <stop offset=".7" stop-color="#8b9d9f"/>
      <stop offset=".8" stop-color="#657d80"/>
      <stop offset=".8" stop-color="#778c8f"/>
      <stop offset=".9" stop-color="#a1b0b2"/>
      <stop offset="1" stop-color="#b2bec0"/>
    </linearGradient>
    <linearGradient id="New_Gradient_Swatch_2" data-name="New Gradient Swatch 2" x1="21.16" y1="124.42" x2="106.84" y2="124.42" gradientUnits="userSpaceOnUse">
      <stop offset="0" stop-color="#dde3e4"/>
      <stop offset="1" stop-color="#507174"/>
    </linearGradient>
    <radialGradient id="New_Gradient_Swatch_copy_4" data-name="New Gradient Swatch copy 4" cx="48.54" cy="55.62" fx="48.54" fy="55.62" r="9.63" gradientTransform="translate(1.75 112.73) rotate(-99.56)" gradientUnits="userSpaceOnUse">
      <stop offset="0" stop-color="#c6edf3"/>
      <stop offset="1" stop-color="#7ad5e4"/>
    </radialGradient>
    <radialGradient id="New_Gradient_Swatch_copy_4-2" data-name="New Gradient Swatch copy 4" cx="64" cy="119.25" fx="64" fy="119.25" r="23.96" gradientTransform="matrix(1,0,0,1,0,0)" xlink:href="#New_Gradient_Swatch_copy_4"/>
    <linearGradient id="New_Gradient_Swatch_copy-2" data-name="New Gradient Swatch copy" x1="39.5" y1="80.34" x2="88.5" y2="129.33" xlink:href="#New_Gradient_Swatch_copy"/>
    <radialGradient id="New_Gradient_Swatch_copy_4-3" data-name="New Gradient Swatch copy 4" cx="64" cy="73.45" fx="64" fy="73.45" r="11.66" gradientTransform="matrix(1,0,0,1,0,0)" xlink:href="#New_Gradient_Swatch_copy_4"/>
    <radialGradient id="New_Gradient_Swatch_copy_4-4" data-name="New Gradient Swatch copy 4" cx="79.19" cy="55.62" fx="79.19" fy="55.62" r="9.63" gradientTransform="translate(11.19 124.48) rotate(-80.44)" xlink:href="#New_Gradient_Swatch_copy_4"/>
    <linearGradient id="linear-gradient" x1="47.93" y1="41.58" x2="80.07" y2="73.72" gradientUnits="userSpaceOnUse">
      <stop offset="0" stop-color="#b2bec0"/>
      <stop offset=".09" stop-color="#a3b1b3"/>
      <stop offset=".16" stop-color="#d1d8d9"/>
      <stop offset=".22" stop-color="#c4cdce"/>
      <stop offset=".25" stop-color="#bdc7c8"/>
      <stop offset=".7" stop-color="#8b9d9f"/>
      <stop offset=".8" stop-color="#657d80"/>
      <stop offset=".8" stop-color="#778c8f"/>
      <stop offset=".9" stop-color="#a1b0b2"/>
      <stop offset="1" stop-color="#b2bec0"/>
    </linearGradient>
    <radialGradient id="radial-gradient" cx="64" cy="18.34" fx="64" fy="30.24" r="15.92" gradientUnits="userSpaceOnUse">
      <stop offset=".27" stop-color="#a8cf42"/>
      <stop offset=".31" stop-color="#a8cf45"/>
      <stop offset=".34" stop-color="#aad151"/>
      <stop offset=".38" stop-color="#add465"/>
      <stop offset=".41" stop-color="#b2d980"/>
      <stop offset=".45" stop-color="#b8dfa3"/>
      <stop offset=".48" stop-color="#bfe6ce"/>
      <stop offset=".5" stop-color="#c6edf3"/>
      <stop offset=".54" stop-color="#bbe9f0"/>
      <stop offset=".6" stop-color="#9ee0eb"/>
      <stop offset=".67" stop-color="#7ad5e4"/>
      <stop offset=".74" stop-color="#74cfde"/>
      <stop offset=".82" stop-color="#65c0cf"/>
      <stop offset=".91" stop-color="#4da8b7"/>
      <stop offset="1" stop-color="#2d8897"/>
    </radialGradient>
    <linearGradient id="linear-gradient-2" x1="64" y1="21.96" x2="64" y2="1.3" gradientUnits="userSpaceOnUse">
      <stop offset="0" stop-color="#fff" stop-opacity="0"/>
      <stop offset="1" stop-color="#fff"/>
    </linearGradient>
    <linearGradient id="linear-gradient-3" x1="42.26" y1="97.15" x2="85.74" y2="97.15" gradientUnits="userSpaceOnUse">
      <stop offset="0" stop-color="#475759"/>
      <stop offset=".08" stop-color="#4a5a5c"/>
      <stop offset=".14" stop-color="#546466"/>
      <stop offset=".2" stop-color="#657577"/>
      <stop offset=".26" stop-color="#7e8e90"/>
      <stop offset=".3" stop-color="#94a4a6"/>
      <stop offset=".65" stop-color="#475759"/>
    </linearGradient>
    <linearGradient id="linear-gradient-4" x1="64.66" y1="117.92" x2="57.72" y2="78.61" gradientUnits="userSpaceOnUse">
      <stop offset="0" stop-color="#dde3e4"/>
      <stop offset="1" stop-color="#507174"/>
    </linearGradient>
    <linearGradient id="New_Gradient_Swatch_copy-3" data-name="New Gradient Swatch copy" x1="41.16" y1="22.85" x2="88.23" y2="22.85" xlink:href="#New_Gradient_Swatch_copy"/>
    <radialGradient id="New_Gradient_Swatch_copy_4-5" data-name="New Gradient Swatch copy 4" cx="64" cy="55.79" fx="64" fy="55.79" r="9.97" gradientTransform="matrix(1,0,0,1,0,0)" xlink:href="#New_Gradient_Swatch_copy_4"/>
    <linearGradient id="New_Gradient_Swatch_2-2" data-name="New Gradient Swatch 2" x1="68.47" y1="56.58" x2="59.53" y2="55" xlink:href="#New_Gradient_Swatch_2"/>
    <linearGradient id="New_Gradient_Swatch_copy-4" data-name="New Gradient Swatch copy" x1="53.91" y1="27.17" x2="74.09" y2="47.36" xlink:href="#New_Gradient_Swatch_copy"/>
    <linearGradient id="New_Gradient_Swatch_2-3" data-name="New Gradient Swatch 2" x1="63.06" y1="31.94" x2="64.94" y2="42.59" xlink:href="#New_Gradient_Swatch_2"/>
    <linearGradient id="linear-gradient-5" x1="62.53" y1="9.13" x2="62.53" y2="18.4" gradientTransform="translate(12.24 2.44) rotate(-.28) scale(.8 .84) skewX(-.59)" gradientUnits="userSpaceOnUse">
      <stop offset="0" stop-color="#fff"/>
      <stop offset="1" stop-color="#fff" stop-opacity="0"/>
    </linearGradient>
    <linearGradient id="linear-gradient-6" x1="46.24" y1="36.43" x2="81.37" y2="36.43" gradientUnits="userSpaceOnUse">
      <stop offset="0" stop-color="#fff"/>
      <stop offset="1" stop-color="#507174"/>
    </linearGradient>
    <linearGradient id="linear-gradient-7" x1="23.7" y1="123.37" x2="77.5" y2="123.37" gradientTransform="matrix(1,0,0,1,0,0)" xlink:href="#linear-gradient-5"/>
    <linearGradient id="New_Gradient_Swatch_2-4" data-name="New Gradient Swatch 2" x1="104.64" y1="23.78" x2="99.92" y2="23.78" gradientTransform="translate(-29.74 73.29)" xlink:href="#New_Gradient_Swatch_2"/>
    <linearGradient id="linear-gradient-8" x1="55.15" y1="48.86" x2="51.97" y2="66.18" gradientUnits="userSpaceOnUse">
      <stop offset="0" stop-color="#fff"/>
      <stop offset="1" stop-color="#fff" stop-opacity="0"/>
    </linearGradient>
  </defs>
  <g>
    <rect class="cls-3" x="21.16" y="120.9" width="85.68" height="7.03" rx="3.39" ry="3.39"/>
    <path class="cls-25" d="M103.45,121.42c1.58,0,2.87,1.29,2.87,2.87v.26c0,1.58-1.29,2.87-2.87,2.87H24.55c-1.58,0-2.87-1.29-2.87-2.87v-.26c0-1.58,1.29-2.87,2.87-2.87h78.9M103.45,120.9H24.55c-1.86,0-3.39,1.52-3.39,3.39v.26c0,1.86,1.52,3.39,3.39,3.39h78.9c1.86,0,3.39-1.52,3.39-3.39v-.26c0-1.86-1.52-3.39-3.39-3.39h0Z"/>
  </g>
  <rect class="cls-34" x="35.1" y="54.68" width="26.89" height="1.89" rx=".91" ry=".91" transform="translate(111.45 16.99) rotate(99.56)"/>
  <polygon class="cls-9" points="64 117.6 30.15 117.6 30.15 120.9 64 120.9 97.85 120.9 97.85 117.6 64 117.6"/>
  <path class="cls-26" d="M89.05,96.75c-3.23-8.24-4.88-15.71-5.75-21.6h-38.61c-.87,5.9-2.51,13.37-5.75,21.6-3.45,8.79-7.64,15.73-11.22,20.8h72.55c-3.58-5.07-7.77-12.01-11.22-20.8Z"/>
  <polygon class="cls-35" points="64 71.8 47.6 71.8 47.6 75.1 64 75.1 80.4 75.1 80.4 71.8 64 71.8"/>
  <rect class="cls-29" x="65.74" y="54.68" width="26.89" height="1.89" rx=".91" ry=".91" transform="translate(120.89 -31.7) rotate(80.44)"/>
  <polygon class="cls-33" points="76.19 37.7 64 37.7 51.81 37.7 46.01 71.8 64 71.8 81.99 71.8 76.19 37.7"/>
  <circle class="cls-19" cx="64" cy="18.34" r="17.99"/>
  <path class="cls-36" d="M78.91,16.72c-2.62,6.98-27.21,6.98-29.83,0-1.71-4.56,4.69-15.42,14.91-15.42s16.63,10.86,14.91,15.42Z"/>
  <g class="cls-27">
    <circle class="cls-4" cx="59.34" cy="22.64" r=".8"/>
    <path class="cls-32" d="M59.34,21.97c.37,0,.67.3.67.67s-.3.67-.67.67-.67-.3-.67-.67.3-.67.67-.67M59.34,21.71c-.51,0-.93.42-.93.93s.42.93.93.93.93-.42.93-.93-.42-.93-.93-.93h0Z"/>
  </g>
  <g class="cls-27">
    <path class="cls-4" d="M68.84,24.72c-.44,0-.8-.36-.8-.8s.36-.8.8-.8.8.36.8.8-.36.8-.8.8Z"/>
    <path class="cls-32" d="M68.84,23.25c.37,0,.67.3.67.67s-.3.67-.67.67-.67-.3-.67-.67.3-.67.67-.67M68.84,23c-.51,0-.93.42-.93.93s.42.93.93.93.93-.42.93-.93-.42-.93-.93-.93h0Z"/>
  </g>
  <g class="cls-10">
    <path class="cls-4" d="M56.53,22.73c-.31,0-.57-.25-.57-.57s.25-.57.57-.57.57.25.57.57-.25.57-.57.57Z"/>
    <path class="cls-32" d="M56.53,21.69c.26,0,.47.21.47.47s-.21.47-.47.47-.47-.21-.47-.47.21-.47.47-.47M56.53,21.5c-.36,0-.66.3-.66.66s.3.66.66.66.66-.3.66-.66-.3-.66-.66-.66h0Z"/>
  </g>
  <g class="cls-10">
    <circle class="cls-4" cx="69.98" cy="26.42" r=".57"/>
    <path class="cls-32" d="M69.98,25.95c.26,0,.47.21.47.47s-.21.47-.47.47-.47-.21-.47-.47.21-.47.47-.47M69.98,25.77c-.36,0-.66.3-.66.66s.3.66.66.66.66-.3.66-.66-.3-.66-.66-.66h0Z"/>
  </g>
  <g class="cls-22">
    <path class="cls-4" d="M58.68,25.42c-.31,0-.57-.25-.57-.57s.25-.57.57-.57.57.25.57.57-.25.57-.57.57Z"/>
    <path class="cls-32" d="M58.68,24.38c.26,0,.47.21.47.47s-.21.47-.47.47-.47-.21-.47-.47.21-.47.47-.47M58.68,24.2c-.36,0-.66.3-.66.66s.3.66.66.66.66-.3.66-.66-.3-.66-.66-.66h0Z"/>
  </g>
  <g>
    <polygon class="cls-21" points="78.73 80.11 64 80.11 49.27 80.11 42.26 114.2 64 114.2 85.74 114.2 78.73 80.11"/>
    <path class="cls-12" d="M77.88,81.14l6.58,32.02h-40.93l6.58-32.02h27.77M78.73,80.11h-29.46l-7.01,34.1h43.48l-7.01-34.1h0Z"/>
  </g>
  <rect class="cls-1" x="51.32" y="39.41" width="25.29" height="1.21"/>
  <g class="cls-28">
    <path class="cls-23" d="M60.45,26.75c-.44,0-.8-.36-.8-.8s.36-.8.8-.8.8.36.8.8-.36.8-.8.8Z"/>
    <path class="cls-2" d="M60.45,25.28c.37,0,.67.3.67.67s-.3.67-.67.67-.67-.3-.67-.67.3-.67.67-.67M60.45,25.02c-.51,0-.93.42-.93.93s.42.93.93.93.93-.42.93-.93-.42-.93-.93-.93h0Z"/>
  </g>
  <g class="cls-28">
    <path class="cls-23" d="M68.17,28.6c-.44,0-.8-.36-.8-.8s.36-.8.8-.8.8.36.8.8-.36.8-.8.8Z"/>
    <path class="cls-2" d="M68.17,27.13c.37,0,.67.3.67.67s-.3.67-.67.67-.67-.3-.67-.67.3-.67.67-.67M68.17,26.87c-.51,0-.93.42-.93.93s.42.93.93.93.93-.42.93-.93-.42-.93-.93-.93h0Z"/>
  </g>
  <g class="cls-28">
    <path class="cls-23" d="M68.84,22.48c-.44,0-.8-.36-.8-.8s.36-.8.8-.8.8.36.8.8-.36.8-.8.8Z"/>
    <path class="cls-2" d="M68.84,21.02c.37,0,.67.3.67.67s-.3.67-.67.67-.67-.3-.67-.67.3-.67.67-.67M68.84,20.76c-.51,0-.93.42-.93.93s.42.93.93.93.93-.42.93-.93-.42-.93-.93-.93h0Z"/>
  </g>
  <g class="cls-31">
    <path class="cls-23" d="M58.48,20.83c-.31,0-.56-.25-.56-.56s.25-.56.56-.56.56.25.56.56-.25.56-.56.56Z"/>
    <path class="cls-2" d="M58.48,19.8c.26,0,.47.21.47.47s-.21.47-.47.47-.47-.21-.47-.47.21-.47.47-.47M58.48,19.62c-.36,0-.65.29-.65.65s.29.65.65.65.65-.29.65-.65-.29-.65-.65-.65h0Z"/>
  </g>
  <g class="cls-37">
    <path class="cls-23" d="M56.63,24.95c-.31,0-.56-.25-.56-.56s.25-.56.56-.56.56.25.56.56-.25.56-.56.56Z"/>
    <path class="cls-2" d="M56.63,23.92c.26,0,.47.21.47.47s-.21.47-.47.47-.47-.21-.47-.47.21-.47.47-.47M56.63,23.74c-.36,0-.65.29-.65.65s.29.65.65.65.65-.29.65-.65-.29-.65-.65-.65h0Z"/>
  </g>
  <g class="cls-37">
    <path class="cls-23" d="M70.95,25.15c-.31,0-.56-.25-.56-.56s.25-.56.56-.56.56.25.56.56-.25.56-.56.56Z"/>
    <path class="cls-2" d="M70.95,24.12c.26,0,.47.21.47.47s-.21.47-.47.47-.47-.21-.47-.47.21-.47.47-.47M70.95,23.94c-.36,0-.65.29-.65.65s.29.65.65.65.65-.29.65-.65-.29-.65-.65-.65h0Z"/>
  </g>
  <g class="cls-5">
    <path class="cls-23" d="M58.48,27.89c-.31,0-.56-.25-.56-.56s.25-.56.56-.56.56.25.56.56-.25.56-.56.56Z"/>
    <path class="cls-2" d="M58.48,26.87c.26,0,.47.21.47.47s-.21.47-.47.47-.47-.21-.47-.47.21-.47.47-.47M58.48,26.68c-.36,0-.65.29-.65.65s.29.65.65.65.65-.29.65-.65-.29-.65-.65-.65h0Z"/>
  </g>
  <g class="cls-5">
    <path class="cls-23" d="M67.71,26.04c-.31,0-.56-.25-.56-.56s.25-.56.56-.56.56.25.56.56-.25.56-.56.56Z"/>
    <path class="cls-2" d="M67.71,25.02c.26,0,.47.21.47.47s-.21.47-.47.47-.47-.21-.47-.47.21-.47.47-.47M67.71,24.83c-.36,0-.65.29-.65.65s.29.65.65.65.65-.29.65-.65-.29-.65-.65-.65h0Z"/>
  </g>
  <path class="cls-1" d="M81.66,14.2c-.43-1.7-1.04-3.07-1.58-4.07-.36-.07-1.09-.17-1.82.19-1.18.58-1.49,1.93-1.58,2.32-.52,2.23,1.21,3.43,1.97,5.96.86,2.87.35,7.09-2.27,9.15-2.3,1.8-5.78,1.93-7.63,0-3.49-3.66,4.18-13.57.42-17.61-1.13-1.22-3.28-1.74-4.55-1.77-1.13.07-3.27,1.11-4.35,2.27-3.77,4.07,3.64,13.66.15,17.31-1.85,1.94-6.03,1.61-8.33-.19-2.62-2.05-3.13-6.27-2.27-9.15.75-2.53,2.48-3.73,1.97-5.96-.09-.39-.4-1.74-1.58-2.32-.73-.36-1.47-.27-1.82-.19-.54,1-1.15,2.37-1.58,4.07,0,0-.55,2.17-.55,4.4,0,9.93,8.05,17.98,17.98,17.98,11.25,0,17.71-10.57,17.98-17.98.06-1.7-.2-3.2-.55-4.4Z"/>
  <path class="cls-20" d="M82.51,13.67c-.46-1.81-1.11-3.26-1.68-4.33-.38-.08-1.16-.18-1.94.2-1.25.62-1.58,2.05-1.68,2.47-.55,2.37,1.29,3.64,2.09,6.33.91,3.05.37,7.53-2.41,9.71-2.44,1.91-6.88,2.26-8.84.2-3.71-3.88,4.15-14.09.16-18.38-1.2-1.3-3.04-1.58-4.38-1.61-1.2.07-2.9.37-4.05,1.61-4.01,4.32,3.86,14.51.16,18.38-1.96,2.06-6.4,1.71-8.84-.2-2.78-2.18-3.32-6.66-2.41-9.71.8-2.69,2.64-3.97,2.09-6.33-.1-.42-.43-1.85-1.68-2.47-.78-.38-1.56-.28-1.94-.2-.57,1.06-1.22,2.52-1.68,4.33,0,0-.58,2.3-.58,4.68,0,10.54,8.55,19.09,19.09,19.09,11.95,0,18.8-11.23,19.09-19.09.07-1.81-.22-3.4-.58-4.68Z"/>
  <rect class="cls-15" x="62.06" y="41.82" width="3.89" height="27.93" rx="1.87" ry="1.87"/>
  <g>
    <rect class="cls-11" x="44.91" y="34.75" width="38.18" height="5.02" rx="2.42" ry="2.42"/>
    <path class="cls-38" d="M80.67,35.27c1.05,0,1.9.85,1.9,1.9v.19c0,1.05-.85,1.9-1.9,1.9h-33.35c-1.05,0-1.9-.85-1.9-1.9v-.19c0-1.05.85-1.9,1.9-1.9h33.35M80.67,34.75h-33.35c-1.33,0-2.42,1.09-2.42,2.42v.19c0,1.33,1.09,2.42,2.42,2.42h33.35c1.33,0,2.42-1.09,2.42-2.42v-.19c0-1.33-1.09-2.42-2.42-2.42h0Z"/>
  </g>
  <line class="cls-13" x1="64" y1="43.87" x2="64" y2="67.18"/>
  <path class="cls-6" d="M62.31,17.7c-1.15.17-2.1-1.79-2.15-1.89-.88-1.87-.64-4.88,1.01-5.7.72-.36,1.66-.28,2.3.2,1.78,1.31.5,5.04.44,5.23-.26.74-.72,2.03-1.6,2.16Z"/>
  <rect class="cls-8" x="46.24" y="35.66" width="35.13" height="1.54" rx=".62" ry=".62"/>
  <rect class="cls-7" x="23.7" y="122.05" width="53.8" height="2.64" rx="1.27" ry="1.27"/>
  <line class="cls-13" x1="77.88" y1="73.6" x2="49.93" y2="73.6"/>
  <line class="cls-18" x1="93.42" y1="119.29" x2="34.52" y2="119.29"/>
  <g>
    <rect class="cls-14" x="70.56" y="86.85" width="3.95" height="20.43" rx="1.63" ry="1.63"/>
    <line class="cls-17" x1="72.55" y1="88.35" x2="72.54" y2="105.4"/>
  </g>
  <g>
    <g>
      <rect class="cls-30" x="62.02" y="83.77" width="3.95" height="26.59" rx="1.63" ry="1.63"/>
      <line class="cls-16" x1="64" y1="85.72" x2="64" y2="107.91"/>
    </g>
    <g>
      <rect class="cls-30" x="53.13" y="86.85" width="3.95" height="20.43" rx="1.63" ry="1.63"/>
      <line class="cls-17" x1="55.11" y1="88.35" x2="55.11" y2="105.4"/>
    </g>
    <g>
      <rect class="cls-30" x="70.92" y="86.85" width="3.95" height="20.43" rx="1.63" ry="1.63"/>
      <line class="cls-17" x1="72.9" y1="88.35" x2="72.89" y2="105.4"/>
    </g>
  </g>
  <path class="cls-24" d="M54.74,43.35c-.9.87-1.01,1.89-1.08,2.51-.18,1.56-.59,3.1-.67,4.67-.08,1.7-.36,3.4-.91,6.8-.33,2.03-.68,3.73-1.23,6.39-.94,4.59-1.34,5.98-.89,6.13.54.18,1.94-1.53,2.75-2.85.83-1.36,1.09-2.4,1.87-5.83.6-2.63.76-3.4,1.19-5.32.24-1.09.68-3.03,1.2-5.59.24-1.17.52-2.62.5-4.54-.02-1.43-.05-3.02-.87-3.25-.73-.21-1.73.76-1.85.87Z"/>
</svg>