<?xml version="1.0" encoding="UTF-8"?>
<svg id="Layer_1" xmlns="http://www.w3.org/2000/svg" version="1.1" xmlns:xlink="http://www.w3.org/1999/xlink" viewBox="0 0 128 128">
  <!-- Generator: Adobe Illustrator 30.1.0, SVG Export Plug-In . SVG Version: 2.1.1 Build 136)  -->
  <defs>
    <style>
      .st0 {
        fill: url(#linear-gradient2);
      }

      .st1 {
        fill: #975b29;
      }

      .st2 {
        fill: #fff;
      }

      .st3 {
        fill: url(#linear-gradient1);
      }

      .st4 {
        stroke: url(#linear-gradient7);
      }

      .st4, .st5, .st6, .st7 {
        fill: #40c3d8;
      }

      .st4, .st5, .st6, .st7, .st8 {
        stroke-linecap: round;
        stroke-linejoin: bevel;
      }

      .st4, .st6 {
        stroke-width: 1px;
      }

      .st5 {
        stroke: url(#linear-gradient8);
      }

      .st5, .st7 {
        stroke-width: 1px;
      }

      .st9, .st10 {
        fill: #7ad5e4;
      }

      .st6 {
        stroke: url(#linear-gradient6);
      }

      .st10 {
        opacity: .4;
      }

      .st10, .st11 {
        isolation: isolate;
      }

      .st12 {
        fill: url(#linear-gradient4);
      }

      .st13 {
        fill: url(#linear-gradient5);
      }

      .st14 {
        fill: url(#linear-gradient3);
      }

      .st15 {
        stroke: #dd8f4f;
        stroke-miterlimit: 10;
      }

      .st15, .st8 {
        fill: none;
        stroke-width: .5px;
      }

      .st16 {
        fill: url(#linear-gradient);
      }

      .st7 {
        stroke: url(#linear-gradient9);
      }

      .st8 {
        stroke: #c6edf3;
      }
    </style>
    <linearGradient id="linear-gradient" x1="61" y1="-1.9" x2="68.4" y2="-1.9" gradientTransform="translate(150.1 77.8) rotate(-124.7) scale(1 -1)" gradientUnits="userSpaceOnUse">
      <stop offset="0" stop-color="#475759"/>
      <stop offset=".2" stop-color="#4a5a5c"/>
      <stop offset=".3" stop-color="#546466"/>
      <stop offset=".4" stop-color="#657577"/>
      <stop offset=".5" stop-color="#7e8e90"/>
      <stop offset=".6" stop-color="#94a4a6"/>
      <stop offset="1" stop-color="#475759"/>
    </linearGradient>
    <linearGradient id="linear-gradient1" x1="123.3" y1="55.8" x2="123.3" y2="60.9" gradientTransform="translate(11 166.3) rotate(-34.7) scale(1 -1)" gradientUnits="userSpaceOnUse">
      <stop offset="0" stop-color="#475759"/>
      <stop offset=".2" stop-color="#4a5a5c"/>
      <stop offset=".3" stop-color="#546466"/>
      <stop offset=".4" stop-color="#657577"/>
      <stop offset=".5" stop-color="#7e8e90"/>
      <stop offset=".6" stop-color="#94a4a6"/>
      <stop offset="1" stop-color="#475759"/>
    </linearGradient>
    <linearGradient id="linear-gradient2" x1="-174.3" y1="-10.3" x2="-174.3" y2="-18.3" gradientTransform="translate(222.7 -68.5) rotate(-34.7) scale(1 -1)" gradientUnits="userSpaceOnUse">
      <stop offset="0" stop-color="#b2bec0"/>
      <stop offset=".2" stop-color="#d1d8d9"/>
      <stop offset=".3" stop-color="#657d80"/>
      <stop offset=".3" stop-color="#6f8588"/>
      <stop offset=".4" stop-color="#a3b1b3"/>
      <stop offset=".5" stop-color="#c4cdce"/>
      <stop offset=".6" stop-color="#d1d8d9"/>
      <stop offset=".6" stop-color="#bdc7c8"/>
      <stop offset=".7" stop-color="#8b9d9f"/>
      <stop offset=".8" stop-color="#657d80"/>
      <stop offset=".8" stop-color="#778c8f"/>
      <stop offset=".9" stop-color="#a1b0b2"/>
      <stop offset="1" stop-color="#b2bec0"/>
    </linearGradient>
    <linearGradient id="linear-gradient3" x1="50.7" y1="58.3" x2="59.6" y2="58.3" gradientTransform="translate(-32 145.3) scale(1 -1)" gradientUnits="userSpaceOnUse">
      <stop offset="0" stop-color="#475759"/>
      <stop offset=".2" stop-color="#4a5a5c"/>
      <stop offset=".3" stop-color="#546466"/>
      <stop offset=".4" stop-color="#657577"/>
      <stop offset=".5" stop-color="#7e8e90"/>
      <stop offset=".6" stop-color="#94a4a6"/>
      <stop offset="1" stop-color="#475759"/>
    </linearGradient>
    <linearGradient id="linear-gradient4" x1="-229.8" y1="-38.5" x2="-249.3" y2="13.3" gradientTransform="translate(273.3 64.9) scale(1 -1)" gradientUnits="userSpaceOnUse">
      <stop offset="0" stop-color="#b2bec0"/>
      <stop offset=".2" stop-color="#d1d8d9"/>
      <stop offset=".3" stop-color="#657d80"/>
      <stop offset=".3" stop-color="#6f8588"/>
      <stop offset=".4" stop-color="#a3b1b3"/>
      <stop offset=".5" stop-color="#c4cdce"/>
      <stop offset=".6" stop-color="#d1d8d9"/>
      <stop offset=".6" stop-color="#bdc7c8"/>
      <stop offset=".7" stop-color="#8b9d9f"/>
      <stop offset=".8" stop-color="#657d80"/>
      <stop offset=".8" stop-color="#778c8f"/>
      <stop offset=".9" stop-color="#a1b0b2"/>
      <stop offset="1" stop-color="#b2bec0"/>
    </linearGradient>
    <linearGradient id="linear-gradient5" x1="29.2" y1="19.9" x2="39.6" y2="77.6" gradientTransform="translate(0 128) scale(1 -1)" gradientUnits="userSpaceOnUse">
      <stop offset="0" stop-color="#b2bec0"/>
      <stop offset=".2" stop-color="#d1d8d9"/>
      <stop offset=".3" stop-color="#657d80"/>
      <stop offset=".3" stop-color="#6f8588"/>
      <stop offset=".4" stop-color="#a3b1b3"/>
      <stop offset=".5" stop-color="#c4cdce"/>
      <stop offset=".6" stop-color="#d1d8d9"/>
      <stop offset=".6" stop-color="#bdc7c8"/>
      <stop offset=".7" stop-color="#8b9d9f"/>
      <stop offset=".8" stop-color="#657d80"/>
      <stop offset=".8" stop-color="#778c8f"/>
      <stop offset=".9" stop-color="#a1b0b2"/>
      <stop offset="1" stop-color="#b2bec0"/>
    </linearGradient>
    <linearGradient id="linear-gradient6" x1="-334.5" y1="-23.4" x2="-334.5" y2="-18.6" gradientTransform="translate(-167.6 112.5) rotate(-180) scale(.6 -.7)" gradientUnits="userSpaceOnUse">
      <stop offset="0" stop-color="#d1d7d8"/>
      <stop offset="1" stop-color="#6a7c80"/>
    </linearGradient>
    <linearGradient id="linear-gradient7" x1="-334.4" y1="-31.5" x2="-334.4" y2="-26.8" gradientTransform="translate(-170.9 113.5) rotate(-180) scale(.6 -.7)" gradientUnits="userSpaceOnUse">
      <stop offset="0" stop-color="#d1d7d8"/>
      <stop offset="1" stop-color="#6a7c80"/>
    </linearGradient>
    <linearGradient id="linear-gradient8" x1="-290.3" y1="-74.7" x2="-290.3" y2="-70" gradientTransform="translate(207.8 9.5) scale(.6 -.7)" gradientUnits="userSpaceOnUse">
      <stop offset="0" stop-color="#d1d7d8"/>
      <stop offset="1" stop-color="#6a7c80"/>
    </linearGradient>
    <linearGradient id="linear-gradient9" x1="-290.3" y1="-82.9" x2="-290.3" y2="-78.1" gradientTransform="translate(211.1 8.5) scale(.6 -.7)" gradientUnits="userSpaceOnUse">
      <stop offset="0" stop-color="#d1d7d8"/>
      <stop offset="1" stop-color="#6a7c80"/>
    </linearGradient>
  </defs>
  <g class="st11">
    <g id="Layer_11" data-name="Layer_1">
      <g>
        <path class="st1" d="M108.4,71c-.3,0-.7,0-1,0-2.4-.2-4.9-.9-7.8-2.3-1.4-.7-3.2-1.6-4.6-3-2.7-2.6-3.9-6.4-3.2-10.1,1-5.2,5.4-8.8,8.7-11,2.1-1.5,4.3-2.8,6.5-4.2,3.5-2.2,7.1-4.4,10.2-7.1.2-1.4.6-2.7,1.4-3.9.7-1,1.7-1.8,2.6-2.5.5-.4.9-.7,1.4-1.1.1-1.1,0-2.2-.6-3.1-.4-.6-1.1-1.1-1.8-1.3-.2,0-.4.1-.7.2-.3.1-.6.2-.9.3v-.4c-.1,0-1-1.8-1-1.8.8-.4,1.6-.5,2.5-.4.4-.1.8-.2,1.2-.3,1.6-.2,3,.2,3.9,1.1,1.7,1.8,1,4.7-.7,6.5,0,.3-.2.7-.3,1-.7,2-2.2,3.6-3.3,4.8-.6.6-1.2,1.2-1.8,1.7,0,1.7.3,3.7.8,5.7.8,3.6,1.5,7.2,2.1,10.8.3,1.7.5,3.4.3,5.1-.2,1.9-.9,3.6-1.6,5.3-1.2,2.7-2.7,5.8-5.3,7.8-1.9,1.4-4.4,2.1-7,2.1h0ZM117.1,35.9c-2.9,2.3-6.1,4.3-9.2,6.2-2.1,1.3-4.3,2.7-6.4,4.1-3,2.1-7,5.3-7.8,9.8-.6,3,.5,6.2,2.6,8.3,1.2,1.2,2.8,2,4.1,2.6,2.7,1.3,4.9,1.9,7.1,2.1,2.6.2,5-.4,6.7-1.7,2.2-1.6,3.5-4.3,4.6-6.9.7-1.6,1.3-3.2,1.5-4.8.2-1.5,0-2.9-.3-4.6-.6-3.5-1.3-7.1-2.1-10.6-.3-1.3-.7-2.9-.8-4.4ZM123.6,21.5s0,0,0,0c.2.3.3.5.4.8,0-.3-.2-.6-.4-.8,0,0,0,0,0,0h0Z"/>
        <path class="st15" d="M118,20.7c1.6-.8,3.8,0,4.8,1.5s1,3.5.4,5.3-1.8,3.2-3.1,4.5c-5.5,5.6-12.7,9-19.1,13.5-3.7,2.6-7.4,6-8.2,10.4-.6,3.3.5,6.9,2.9,9.2,1.2,1.2,2.8,2.1,4.3,2.8,2.3,1.1,4.8,2,7.4,2.2s5.3-.4,7.4-1.9c2.4-1.8,3.8-4.6,5-7.3.7-1.6,1.4-3.3,1.6-5.1.2-1.6,0-3.2-.3-4.9-.6-3.6-1.3-7.2-2.1-10.7-.8-3.4-1.6-7.3.5-10.2,1.1-1.6,2.9-2.5,4.3-3.9s2.1-3.8.7-5.2c-.8-.8-1.9-1-3-.8s-2.1.6-3.1.9"/>
        <path class="st10" d="M43.2,66.9c.3-1.4,1.4-1.4,2.2-3.7,0-.2,1-3,0-3.6-.5-.4-1.4,0-2.1-.8-.3-.3-.3-.6-.6-2-.5-2.5-.5-2.7-.7-2.9-.6-.7-1.2-.3-2.5-1.2-.2-.2-1-.7-1.7-1.6-.3-.4-.4-.7-1.2-2.6-.9-2.1-1-2.3-1.2-2.6-.3-.5-1.1-1.5-2.5-1.6-1.2-.2-2.2.4-2.5.6-1.4.9-1.1,1.8-2.5,2.8-.5.4-1.5.7-3.3,1.1-2.8.7-3,.5-3.8,1-.5.3-.5.5-2.6,3.1-1.6,2-1.7,2.1-2,2.3-1.3.8-1.9.1-4.2.7-1.1.3-2,.7-3.7,1.6-1.6.8-2.4,1.2-2.9,2-.7,1-.3,1.3-1,2.4-.9,1.3-1.8,1.1-2.6,2.4-.7,1.1-.7,2.2-.7,2.6s0,2.7,1.6,3.7c1.3.8,2.2,0,3.3.8.4.3.4.6,1.3,3.1.8,2.3,1,2.6,1.1,2.8.9,1.2,1.4.9,2.3,2.1.8,1,.6,1.5,1.4,3.3.1.3.3.6.4.8,0,0,.5.9,1,1.6.8,1.1,2.6,1.4,3.8,1.8,2.5,1,5,3.7,5.1,6.2,0,2.3-1.9,3.4-1.1,4.6.6,1,2.2.8,3.9,2.7.2.2.3.4.4.5,1.2,1.6,1.2,3.1,1.4,4.3.1.7,1.2,2.2,3.3,5.2,1.2,1.8,1.9,2.7,2.5,3.3,1.3,1.3,2.5,2.4,4.4,2.7,1.7.2,4.1-.2,5.4-1.7,1.3-1.4.5-2.7,2-4,1.1-1,2.5-1.2,3.5-1.3,2.5-.3,3.2.7,4.5,0,.9-.4,1.4-1.5,2.4-3.7,1.2-2.7,1-3.3,1.9-4.1,0,0,.2-.2.3-.2,1.5-1,3.7-1.2,3.7-1.2,2-.2,2.1.3,2.8,0,1-.6.5-1.9,1.6-2.9,1.3-1.3,3.1-.3,3.7-1.3.6-1-.9-3.5-2.9-4.9-1.7-1.2-3-1.1-3.3-2.1-.3-1.2,1.6-2,1.4-3.3-.1-.5-.8-1-2.2-2-1.4-1-2-1.1-2.2-1.8-.3-.8.2-1,0-2.1-.3-1.5-1.6-2.7-3-3.1,0,0-.2,0-.2,0-1.5-.3-2.6.2-3.1.3-1.3.3-2.7-.8-4.6-2.5-2.8-2.4-6-5.1-5.4-7.7h0Z"/>
        <path class="st9" d="M47.2,74.9c.2-.1,2.6-1.3,4.9,0,1.1.6,2.7,1.9,2.5,3.2,0,.4-.3,1.3,0,2.1.2.4.4.5,1.5,1.2,2,1.3,2.2,1.4,2.3,1.6.5.8,0,1.1.3,2.6,0,.3.3,1.1.9,2.1.3.4.5.6,1.9,2,1.6,1.5,1.7,1.6,1.9,1.9.3.5.9,1.5.7,2.7,0,.3-.3,1.4-1.2,1.9-1.3.7-2.2-.7-3.6-.1-1.2.5-1.9,2.2-2.1,3.5,0,.8.1,1.4-.3,1.9-.4.4-.9.2-1.7.4-1.3.3-1.3,1-2.9,2-1.7,1-2.2.5-3,1.3-1,1.1-.4,2-1.3,2.9-1,1-2.1.3-3.2,1.3-1.3,1.1-.7,2.6-1.8,3.1-1,.5-1.6-.6-3-.2-1.1.4-1.1,1.2-2.2,1.6-1,.3-1.9,0-2.4-.3-.2,0-2.3-.9-2.8-2.7-.3-1.3.6-1.9.2-3.1-.3-1-1-1-2.3-2.2-2-1.9-1.3-2.9-3.3-4.7-1.2-1.1-2.2-1.3-2.4-2.4-.1-.7,0-1.1.4-2.1,0,0,.5-1.6.9-4.2.5-2.9-2.2-6.9-5.4-8.6-3.2-1.7-6.5-.8-7.4-2.8-.3-.8,0-1.2-.5-2.2-.7-1.4-1.6-1.4-2.5-2.7-.8-1.2-.2-1.6-.8-2.8-1-1.9-2.7-1.5-4.8-3.8-.8-.8-1.9-2-1.8-3.5,0-1.5,1.3-2.5,1.8-3,2-1.7,3.4-.7,5.2-2.4.5-.4.2-.4,2.1-2.5,1-1.1,1.5-1.7,1.8-1.9,1.6-1.1,2.6-.1,4.2-1.1,1.3-.8,1.1-1.7,2.3-2,1.3-.4,1.9.7,3,.3,1.4-.5.9-2.3,2.6-3.3,1-.6,1.5,0,2.4-.8.9-.7.8-1.4,1.8-2,.2-.1,1-.5,1.8-.3.9.2.9,1,2,2,1.2,1,1.6.5,2.2,1.3,1,1.2.2,2.4,1.2,3.5.5.6.8.3,1.4.9,1.3,1.1.4,2.3,1.5,4,1,1.6,2.5,2,2.5,3.6v.2c-.1,2.6-.3,3.6-.3,4.4,0,1.4.6,2.5,2,4.8.9,1.5,1.9,2.7,2.6,3.4h0Z"/>
        <path class="st2" d="M31.5,48.9c.4,0,.8.2,1.1.6l29,41.9c.4.6.3,1.4-.3,1.8l-23.3,16.1c-.2.2-.5.2-.8.2-.4,0-.8-.2-1.1-.6L7.2,67.1c-.4-.6-.3-1.4.3-1.8l23.3-16.1c.2-.2.5-.2.8-.2M31.5,48.4c-.4,0-.7.1-1,.3l-23.3,16.1c-.4.3-.7.7-.8,1.2,0,.5,0,1,.3,1.4l29,41.9c.3.5.9.8,1.5.8s.7-.1,1-.3l23.3-16.1c.4-.3.7-.7.8-1.2,0-.5,0-1-.3-1.4l-29-41.9c-.3-.5-.9-.8-1.5-.8h0Z"/>
        <path class="st16" d="M120.6,24l-8.3,5.8-4.2-6.1,8.3-5.8c.5.2,1.9.8,3,2.2,1.2,1.6,1.2,3.3,1.2,3.8h0Z"/>
        <path class="st3" d="M117.4,26.6l-73.2,50.7-4.5-6.6L112.9,20c1,.3,2.6.9,3.6,2.4,1,1.5,1,3.1.9,4.2h0Z"/>
        <path class="st0" d="M118.7,25.8l-58.6,40.5c-.1-.8-.5-2.4-1.6-3.9-1-1.4-2.2-2.2-2.9-2.6,19.5-13.5,39-27,58.6-40.5.7.4,2.1,1.2,3.2,2.8,1,1.5,1.3,3,1.3,3.7h0Z"/>
        <rect class="st14" x="18.8" y="83" width="8.8" height="7.9" rx="1.4" ry="1.4" transform="translate(-45.4 28.7) rotate(-34.7)"/>
        <g>
          <rect class="st12" x="18.9" y="52.4" width="30.9" height="53.6" rx="1.3" ry="1.3" transform="translate(-39 33.6) rotate(-34.7)"/>
          <path class="st13" d="M31.5,49.9s.2,0,.3.1l29,41.9c0,0,0,.2,0,.2,0,0,0,.1-.1.2l-23.3,16.1s-.1,0-.2,0-.2,0-.3-.1l-29-41.9c0,0,0-.2,0-.2,0,0,0-.1.1-.2l23.3-16.1s.1,0,.2,0M31.5,48.9c-.3,0-.5,0-.8.2l-23.3,16.1c-.6.4-.8,1.2-.3,1.8l29,41.9c.3.4.7.6,1.1.6s.5,0,.8-.2l23.3-16.1c.6-.4.8-1.2.3-1.8l-29-41.9c-.3-.4-.7-.6-1.1-.6h0Z"/>
        </g>
        <g>
          <g>
            <rect class="st6" x="36.3" y="95.6" width="20.3" height="2.7" rx="1" ry="1" transform="translate(-46.9 43.6) rotate(-34.7)"/>
            <rect class="st4" x="35" y="90.9" width="16.2" height="2.7" rx="1" ry="1" transform="translate(-44.8 40.9) rotate(-34.7)"/>
          </g>
          <g>
            <rect class="st5" x="11.9" y="60.4" width="20.3" height="2.7" rx="1" ry="1" transform="translate(-31.2 23.5) rotate(-34.7)"/>
            <rect class="st7" x="17.2" y="65.1" width="16.2" height="2.7" rx="1" ry="1" transform="translate(-33.3 26.2) rotate(-34.7)"/>
          </g>
          <line class="st8" x1="40" y1="101.4" x2="52.5" y2="92.7"/>
          <line class="st8" x1="15.6" y1="66.2" x2="28.1" y2="57.5"/>
          <line class="st8" x1="38.2" y1="95.6" x2="47.7" y2="89.1"/>
          <line class="st8" x1="20.4" y1="69.8" x2="29.9" y2="63.3"/>
        </g>
      </g>
    </g>
  </g>
</svg>