<?xml version="1.0" encoding="UTF-8"?>
<svg id="f" data-name="Layer 5" xmlns="http://www.w3.org/2000/svg" xmlns:xlink="http://www.w3.org/1999/xlink" viewBox="0 0 128 128">
  <defs>
    <linearGradient id="g" data-name="zugcat gradient dark" x1="107.32" y1="73.41" x2="107.32" y2="62.88" gradientUnits="userSpaceOnUse">
      <stop offset="0" stop-color="#534e56"/>
      <stop offset=".14" stop-color="#565159"/>
      <stop offset=".25" stop-color="#605b63"/>
      <stop offset=".36" stop-color="#716c74"/>
      <stop offset=".46" stop-color="#8a848c"/>
      <stop offset=".56" stop-color="#a9a3ab"/>
      <stop offset=".58" stop-color="#afa9b1"/>
      <stop offset="1" stop-color="#534e56"/>
    </linearGradient>
    <linearGradient id="h" x1="113.27" y1="69.97" x2="112.61" y2="90.89" gradientTransform="translate(-10.45 -7.24) rotate(-2.22)" gradientUnits="userSpaceOnUse">
      <stop offset="0" stop-color="#afa9b1"/>
      <stop offset=".2" stop-color="#dcdadd"/>
      <stop offset=".3" stop-color="#887f8c"/>
      <stop offset=".3" stop-color="#8c8390"/>
      <stop offset=".31" stop-color="#9c949f"/>
      <stop offset=".33" stop-color="#a6a0a9"/>
      <stop offset=".35" stop-color="#ada7af"/>
      <stop offset=".4" stop-color="#afa9b1"/>
      <stop offset=".5" stop-color="#c6c1c7"/>
      <stop offset=".6" stop-color="#dcdadd"/>
      <stop offset=".6" stop-color="#d1d8d9"/>
      <stop offset=".7" stop-color="#99919c"/>
      <stop offset=".8" stop-color="#6b636e"/>
      <stop offset=".81" stop-color="#887f8c"/>
      <stop offset=".9" stop-color="#afa9b1"/>
      <stop offset="1" stop-color="#c6c1c7"/>
    </linearGradient>
    <linearGradient id="i" data-name="zugcat gradient dark" x1="20.68" y1="73.41" x2="20.68" y2="62.88" xlink:href="#g"/>
    <linearGradient id="j" x1="-397.02" y1="70.5" x2="-396.21" y2="49.3" gradientTransform="translate(-371.51 -7.24) rotate(-177.78) scale(1 -1)" xlink:href="#h"/>
    <linearGradient id="k" x1="15.79" y1="45.39" x2="111.97" y2="82.66" gradientTransform="matrix(1,0,0,1,0,0)" xlink:href="#h"/>
    <linearGradient id="l" x1="81.38" y1="70.9" x2="98.59" y2="72.15" gradientUnits="userSpaceOnUse">
      <stop offset="0" stop-color="#fff" stop-opacity="0"/>
      <stop offset="1" stop-color="#011916" stop-opacity=".3"/>
    </linearGradient>
    <linearGradient id="m" x1="45.8" y1="86.5" x2="60.77" y2="87.54" gradientUnits="userSpaceOnUse">
      <stop offset="0" stop-color="#fff"/>
      <stop offset=".78" stop-color="#fff" stop-opacity="0"/>
    </linearGradient>
    <linearGradient id="n" x1="91.15" y1="27.02" x2="81.43" y2="35.72" xlink:href="#m"/>
    <radialGradient id="o" data-name="Zugcat Eyes" cx="62.48" cy="67.39" fx="62.48" fy="67.39" r="20.76" gradientUnits="userSpaceOnUse">
      <stop offset="0" stop-color="#18fc0a"/>
      <stop offset=".35" stop-color="#1afc0a"/>
      <stop offset=".5" stop-color="#21fc0b"/>
      <stop offset=".61" stop-color="#2dfc0e"/>
      <stop offset=".7" stop-color="#3ffc12"/>
      <stop offset=".78" stop-color="#56fc17"/>
      <stop offset=".85" stop-color="#73fc1d"/>
      <stop offset=".92" stop-color="#94fc24"/>
      <stop offset=".98" stop-color="#bbfc2c"/>
      <stop offset="1" stop-color="#cafd30"/>
    </radialGradient>
    <linearGradient id="p" data-name="New Gradient Swatch 2" x1="62.48" y1="76.39" x2="62.48" y2="58.38" gradientUnits="userSpaceOnUse">
      <stop offset="0" stop-color="#dde3e4"/>
      <stop offset="1" stop-color="#507174"/>
    </linearGradient>
    <linearGradient id="q" x1="43.7" y1="87.9" x2="41.37" y2="74.7" gradientUnits="userSpaceOnUse">
      <stop offset="0" stop-color="#dde3e4"/>
      <stop offset="1" stop-color="#6b636e"/>
    </linearGradient>
    <linearGradient id="r" x1="45.35" y1="95.53" x2="43.28" y2="83.83" xlink:href="#q"/>
    <linearGradient id="s" x1="46.99" y1="103.17" x2="45.19" y2="92.96" xlink:href="#q"/>
    <linearGradient id="t" x1="86.54" y1="84.72" x2="85.33" y2="77.87" xlink:href="#q"/>
    <linearGradient id="u" x1="84.73" y1="92.97" x2="83.58" y2="86.4" xlink:href="#q"/>
    <linearGradient id="v" x1="82.93" y1="101.22" x2="81.82" y2="94.92" xlink:href="#q"/>
    <linearGradient id="w" x1="38.78" y1="21.74" x2="45.91" y2="34.33" xlink:href="#m"/>
    <linearGradient id="x" x1="829.93" y1="63.87" x2="824.74" y2="63.8" gradientTransform="translate(-734.83 127.68) scale(.96 -1)" gradientUnits="userSpaceOnUse">
      <stop offset="0" stop-color="#dcdadd"/>
      <stop offset="1" stop-color="#6b636e"/>
    </linearGradient>
    <linearGradient id="y" x1="-669.07" y1="44.48" x2="-708.53" y2="83.93" gradientTransform="translate(752.41 128) scale(1 -1)" xlink:href="#h"/>
  </defs>
  <g>
    <ellipse cx="107.32" cy="68.14" rx="3.04" ry="5.27" style="fill: url(#g);"/>
    <ellipse cx="105.52" cy="68.31" rx="1.89" ry="13.03" style="fill: url(#h);"/>
    <path d="M105.08,80.14h-2.52v-23.67h2.52c.43,3.41.74,7.28.75,11.53.01,4.49-.3,8.57-.75,12.13Z" style="fill: #34f9df;"/>
  </g>
  <g>
    <ellipse cx="20.68" cy="68.14" rx="3.04" ry="5.27" style="fill: url(#i);"/>
    <ellipse cx="22.48" cy="68.31" rx="1.89" ry="13.03" style="fill: url(#j);"/>
    <path d="M22.92,80.14h2.52s0-23.67,0-23.67h-2.52c-.43,3.41-.74,7.28-.75,11.53-.01,4.49.3,8.57.75,12.13Z" style="fill: #34f9df;"/>
  </g>
  <g>
    <path d="M63.51,2.26S24.6,9.81,24.6,51.8s2.08,49.12,7.62,53.2c5.54,4.08,27.66,22.42,31.7,21.61,4.04-.82,34.61-22.02,37.15-34.45,2.54-12.43,2.77-34.86,2.31-42.19-.46-7.34-7.87-43.62-39.87-47.7Z" style="fill: url(#k);"/>
    <path d="M95.45,28.87c1.59-.26,4.61,8.44,6.06,16,.99,5.13,1.04,8.93,1.16,16.52.14,9.4-.48,14.79-1.55,24.13-.33,2.88-.61,4.82-1.55,7.23-1.23,3.15-3,5.6-8.13,10.84-2.78,2.84-6.44,6.4-10.97,10.32,3.04-2.95,7.32-7.82,10.45-14.84,3.66-8.19,4.06-15.52,4.39-22.45.23-4.98-.1-9.9-.77-19.74-.3-4.36-.76-9.99-.52-17.68.18-5.78.32-10.15,1.42-10.32Z" style="fill: url(#l);"/>
    <path d="M71.56,72.69s-5.05-.28-11.94-3.22v27.61c0,8.79-1.9,19.18,3.34,22.85,0,0-14.81-7.9-14.81-17s1.05-48.44,1.05-48.44l22.35,18.19Z" style="fill: url(#m); opacity: .49;"/>
    <g style="opacity: .69;">
      <path d="M79.25,48.43c1.4-3.53,1.13-7.38.85-11.12-.35-4.69-.71-9.37-1.06-14.06-.07-.95-.13-1.96.37-2.81.5-.85,1.78-1.41,2.7-.91.44.24.71.66.95,1.06,3.83,6.36,6.49,13.28,7.83,20.39.2,1.06.36,2.17-.08,3.17-.76,1.72-2.98,2.49-4.97,3.07-2.74.8-5.48,1.6-8.22,2.4" style="fill: url(#n);"/>
    </g>
    <g>
      <path d="M34.25,61.98c1.26,1.54,11.63,13.78,28.96,13.48,16.39-.29,26.1-11.57,27.49-13.25-.55-.96-1.11-1.92-1.66-2.89-3.77,2.37-13.06,7.51-25.99,7.65-13.26.14-22.85-5.08-26.63-7.41-.72.81-1.45,1.61-2.17,2.42Z" style="fill: url(#o);"/>
      <path d="M89.04,59.32c.55.96,1.11,1.92,1.66,2.89-1.39,1.68-11.1,12.96-27.49,13.25-.21,0-.42,0-.63,0-16.94,0-27.08-11.96-28.33-13.48.72-.81,1.45-1.61,2.17-2.42,3.73,2.3,13.12,7.41,26.12,7.41.17,0,.34,0,.51,0,12.93-.13,22.22-5.28,25.99-7.65M89.04,58.38c-.17,0-.35.05-.5.14-5.34,3.36-14.09,7.39-25.5,7.51-.17,0-.34,0-.5,0-11.43,0-20.25-3.95-25.63-7.27-.15-.09-.32-.14-.49-.14-.26,0-.51.11-.69.31l-1.08,1.21-1.08,1.21c-.31.34-.32.86-.03,1.21,1.89,2.31,12.17,13.82,29.05,13.82.21,0,.43,0,.65,0,16.32-.29,26.35-11.37,28.19-13.59.25-.3.29-.72.09-1.06l-1.66-2.89c-.13-.22-.34-.38-.58-.44-.07-.02-.15-.03-.22-.03h0Z" style="fill: url(#p);"/>
    </g>
    <g>
      <g>
        <path d="M33.65,80.57l17.78,4.57c.86.22,1.55-.3,1.55-1.15s-.69-1.73-1.55-1.95l-17.78-4.57c-.86-.22-1.55.3-1.55,1.15s.69,1.73,1.55,1.95Z" style="fill: #242225;"/>
        <path d="M33.26,77.41c.12,0,.25.02.39.05l17.78,4.57c.86.22,1.55,1.09,1.55,1.95,0,.72-.49,1.2-1.16,1.2-.12,0-.25-.02-.39-.05l-17.78-4.57c-.86-.22-1.55-1.09-1.55-1.95,0-.72.49-1.2,1.16-1.2M33.26,76.17c-1.37,0-2.41,1.05-2.41,2.45s1.07,2.79,2.48,3.15l17.78,4.57c.23.06.47.09.7.09,1.37,0,2.41-1.05,2.41-2.45s-1.07-2.79-2.48-3.15l-17.78-4.57c-.23-.06-.47-.09-.7-.09h0Z" style="fill: url(#q);"/>
      </g>
      <g>
        <path d="M37.2,89.41l14.22,3.65c.86.22,1.55-.3,1.55-1.15,0-.86-.69-1.73-1.55-1.95l-14.22-3.65c-.86-.22-1.55.3-1.55,1.15s.69,1.73,1.55,1.95Z" style="fill: #3c383e;"/>
        <path d="M36.82,86.25c.12,0,.25.02.39.05l14.22,3.65c.86.22,1.55,1.09,1.55,1.95,0,.72-.49,1.2-1.16,1.2-.12,0-.25-.02-.39-.05l-14.22-3.65c-.86-.22-1.55-1.09-1.55-1.95,0-.72.49-1.2,1.16-1.2M36.82,85.01c-1.37,0-2.41,1.05-2.41,2.45s1.07,2.79,2.48,3.15l14.22,3.65c.23.06.47.09.7.09,1.37,0,2.41-1.05,2.41-2.45s-1.07-2.79-2.48-3.15l-14.22-3.65c-.23-.06-.47-.09-.7-.09h0Z" style="fill: url(#r);"/>
      </g>
      <g>
        <path d="M40.76,98.25l10.67,2.74c.86.22,1.55-.3,1.55-1.15s-.69-1.73-1.55-1.95l-10.67-2.74c-.86-.22-1.55.3-1.55,1.15,0,.86.69,1.73,1.55,1.95Z" style="fill: #3c383e;"/>
        <path d="M40.37,95.1c.12,0,.25.02.39.05l10.67,2.74c.86.22,1.55,1.09,1.55,1.95,0,.72-.49,1.2-1.16,1.2-.12,0-.25-.02-.39-.05l-10.67-2.74c-.86-.22-1.55-1.09-1.55-1.95,0-.72.49-1.2,1.16-1.2M40.37,93.86c-1.37,0-2.41,1.05-2.41,2.45s1.07,2.79,2.48,3.15l10.67,2.74c.23.06.47.09.7.09,1.37,0,2.41-1.05,2.41-2.45s-1.07-2.79-2.48-3.15l-10.67-2.74c-.23-.06-.47-.09-.7-.09h0Z" style="fill: url(#s);"/>
      </g>
    </g>
    <g>
      <g>
        <path d="M94.82,80.57l-17.78,4.57c-.86.22-1.55-.3-1.55-1.15s.69-1.73,1.55-1.95l17.78-4.57c.86-.22,1.55.3,1.55,1.15s-.69,1.73-1.55,1.95Z" style="fill: #3c383e;"/>
        <path d="M95.21,77.41c.67,0,1.16.48,1.16,1.2,0,.86-.69,1.73-1.55,1.95l-17.78,4.57c-.13.03-.26.05-.39.05-.67,0-1.16-.48-1.16-1.2,0-.86.69-1.73,1.55-1.95l17.78-4.57c.13-.03.26-.05.39-.05M95.21,76.17h0c-.23,0-.46.03-.7.09l-17.78,4.57c-1.42.36-2.48,1.72-2.48,3.15s1.03,2.45,2.41,2.45c.23,0,.46-.03.7-.09l17.78-4.57c1.42-.36,2.48-1.72,2.48-3.15s-1.03-2.45-2.41-2.45h0Z" style="fill: url(#t);"/>
      </g>
      <g>
        <path d="M91.27,89.41l-14.22,3.65c-.86.22-1.55-.3-1.55-1.15s.69-1.73,1.55-1.95l14.22-3.65c.86-.22,1.55.3,1.55,1.15s-.69,1.73-1.55,1.95Z" style="fill: #3c383e;"/>
        <path d="M91.65,86.25c.67,0,1.16.48,1.16,1.2,0,.86-.69,1.73-1.55,1.95l-14.22,3.65c-.13.03-.26.05-.39.05-.67,0-1.16-.48-1.16-1.2,0-.86.69-1.73,1.55-1.95l14.22-3.65c.13-.03.26-.05.39-.05M91.65,85.01h0c-.23,0-.46.03-.7.09l-14.22,3.65c-1.42.36-2.48,1.72-2.48,3.15s1.03,2.45,2.41,2.45c.23,0,.46-.03.7-.09l14.22-3.65c1.42-.36,2.48-1.72,2.48-3.15s-1.03-2.45-2.41-2.45h0Z" style="fill: url(#u);"/>
      </g>
      <g>
        <path d="M87.71,98.25l-10.67,2.74c-.86.22-1.55-.3-1.55-1.15s.69-1.73,1.55-1.95l10.67-2.74c.86-.22,1.55.3,1.55,1.15s-.69,1.73-1.55,1.95Z" style="fill: #3c383e;"/>
        <path d="M88.1,95.1c.67,0,1.16.48,1.16,1.2,0,.86-.69,1.73-1.55,1.95l-10.67,2.74c-.13.03-.26.05-.39.05-.67,0-1.16-.48-1.16-1.2,0-.86.69-1.73,1.55-1.95l10.67-2.74c.13-.03.26-.05.39-.05M88.1,93.86h0c-.23,0-.46.03-.7.09l-10.67,2.74c-1.42.36-2.48,1.72-2.48,3.15s1.03,2.45,2.41,2.45c.23,0,.46-.03.7-.09l10.67-2.74c1.42-.36,2.48-1.72,2.48-3.15s-1.03-2.45-2.41-2.45h0Z" style="fill: url(#v);"/>
      </g>
    </g>
    <g style="opacity: .57;">
      <path d="M47.48,29.09c.57-1.13,1.45-2.9,1.43-5.32,0-.5-.04-5-2.32-5.96-2.52-1.06-6.15,2.88-7.69,4.55-2.63,2.86-3.38,5.45-4.2,8.34-.22.78-.39,1.52-.11,2.32.67,1.88,3.45,2.9,5.59,2.73,4.09-.34,6.44-4.97,7.3-6.66Z" style="fill: url(#w);"/>
    </g>
  </g>
  <rect x="60.7" y="1.26" width="6.23" height="125.17" rx="2.74" ry="2.74" transform="translate(127.64 127.68) rotate(180)" style="fill: url(#x);"/>
  <rect x="61.73" y=".85" width="4.19" height="126.29" rx="2.02" ry="2.02" transform="translate(127.64 128) rotate(180)" style="fill: url(#y);"/>
</svg>