<?xml version="1.0" encoding="UTF-8"?>
<svg xmlns="http://www.w3.org/2000/svg" viewBox="0 0 512 512">
  <path d="M222.82,321c0,2.98,1,5.47,3,7.46,2,2,5,3.85,9,5.55l7.66,3.49v-30.88c-4.95.67-8.95,1.82-12,3.47-5.1,2.77-7.66,6.4-7.66,10.91Z"/>
  <path d="M276.67,383.27l-6.63-2.7v32.52c3.41-.29,6.34-.78,8.74-1.49,4.04-1.19,6.95-2.87,8.74-5.04,1.79-2.17,2.68-4.66,2.68-7.46,0-3.23-1.17-6.21-3.51-8.93-2.34-2.72-5.68-5.02-10.02-6.89Z"/>
  <path d="M451.29,215.11h-52.77v-71.65h-.01C397.96,65.33,334.25,1.94,256,1.94S113.48,65.88,113.48,144.46v70.65h-52.77c-6.6,0-12,5.4-12,12v272.27c0,6.6,5.4,12,12,12h390.58c6.6,0,12-5.4,12-12V227.11c0-6.6-5.4-12-12-12ZM153.48,144.46c0-56.53,45.99-102.52,102.52-102.52s102.52,45.99,102.52,102.52v70.65h-205.03v-70.65ZM328.22,424.42c-5.28,7.7-13.51,13.97-24.69,18.82-9.02,3.91-20.19,6.24-33.5,7v24.65h-27.56v-25.36c-4.82-.55-9.54-1.32-14.16-2.33-10.12-2.21-19.12-5.7-26.99-10.46-7.87-4.76-14.08-10.95-18.63-18.57-4.55-7.61-6.83-16.82-6.83-27.63h40.32c0,5.61,1.64,10.1,4.91,13.46,3.27,3.36,8.34,5.76,15.18,7.21,1.91.4,3.99.75,6.19,1.04v-38.53l-17.61-6.14c-14.55-5.1-25.95-11.27-34.2-18.5-8.25-7.23-12.38-17.01-12.38-29.35,0-14.46,6.51-26.14,19.52-35.03,10.81-7.38,25.7-11.69,44.66-12.94v-20.17h27.56v20.61c15.94,1.79,28.47,6.53,37.58,14.23,11.87,10.04,19.33,23.95,22.39,41.73h-40.32c-1.28-5.61-4.89-10.72-10.85-15.31-2.51-1.93-5.46-3.43-8.8-4.55v37.07l27.31,10.1c13.95,5.1,23.9,11.15,29.86,18.12,5.95,6.98,8.93,15.82,8.93,26.54,0,8.51-2.64,16.61-7.91,24.31Z"/>
</svg>