<?xml version="1.0" encoding="UTF-8"?>
<svg id="Layer_2" data-name="Layer 2" xmlns="http://www.w3.org/2000/svg" viewBox="0 0 32 32">
  <defs>
    <style>
      .cls-1 {
        opacity: .32;
      }
    </style>
  </defs>
  <g id="Layer_1-2" data-name="Layer 1">
    <g>
      <path d="M12.76,6.64c-.38.61-.6,1.33-.6,2.1,0,.34.05.66.13.97,1.03-.92,2.25-1.45,3.55-1.45s2.52.54,3.55,1.45c.08-.31.13-.63.13-.97,0-.65-.17-1.25-.44-1.79l1.75-2.02c.21-.24.19-.61-.05-.82-.24-.21-.6-.19-.81.05l-1.57,1.81c-.66-.68-1.57-1.1-2.57-1.1-.89,0-1.69.34-2.33.89l-1.86-1.65c-.24-.21-.6-.19-.81.05-.21.24-.19.61.05.82l1.86,1.65Z"/>
      <path d="M27.14,18.93c.1.07.21.1.32.1.19,0,.37-.09.48-.26.18-.27.11-.63-.16-.81l-3.78-2.56-1.65,1.11c-.16-.97-.43-1.88-.78-2.71l2.43-1.64,3.14,2.13c.1.07.21.1.32.1.19,0,.37-.09.48-.26.18-.27.11-.63-.16-.81l-3.78-2.56-2.95,1.99c-1.22-2.14-3.1-3.51-5.2-3.51s-3.89,1.31-5.11,3.37l-2.73-1.84-3.78,2.56c-.26.18-.33.54-.16.81.11.17.29.26.48.26.11,0,.22-.03.32-.1l3.14-2.13,2.19,1.48c-.37.82-.64,1.72-.82,2.69l-1.38-.93-3.78,2.56c-.26.18-.33.54-.16.81.11.17.29.26.48.26.11,0,.22-.03.32-.1l3.14-2.13,1.21.82c-.03.33-.04.67-.04,1.01,0,.81.08,1.59.22,2.34l-1.39-.94-3.78,2.56c-.26.18-.33.54-.16.81.11.17.29.26.48.26.11,0,.22-.03.32-.1l3.14-2.13,1.82,1.23c1.07,3.17,3.36,5.36,6.02,5.36s4.82-2.07,5.93-5.09l2.22-1.49,3.14,2.13c.1.07.21.1.32.1.19,0,.37-.09.48-.26.18-.27.11-.63-.16-.81l-3.78-2.56-1.73,1.17c.17-.82.26-1.68.26-2.58,0-.28-.01-.55-.03-.82l1.5-1.01,3.14,2.13ZM16.76,23.54c0,.51-.41.92-.91.92s-.91-.41-.91-.92v-9.82c0-.51.41-.92.91-.92s.91.41.91.92v9.82Z"/>
    </g>
    <polygon class="cls-1" points="32 30.68 32 .45 19.17 .45 18.52 1.32 4.58 1.32 3.58 0 0 0 0 32 3.97 32 3.97 30.65 7.29 30.65 7.29 32 32 32 32 32 22.9 32 23.9 30.68 32 30.68"/>
  </g>
</svg>