<?xml version="1.0" encoding="UTF-8"?>
<svg id="a" data-name="Layer 1" xmlns="http://www.w3.org/2000/svg" xmlns:xlink="http://www.w3.org/1999/xlink" viewBox="0 0 1128.8 549.18">
  <defs>
    <linearGradient id="b" x1="699.94" y1="339.77" x2="1016.07" y2="655.9" gradientUnits="userSpaceOnUse">
      <stop offset=".02" stop-color="#59555c"/>
      <stop offset=".18" stop-color="#887f8c"/>
      <stop offset=".3" stop-color="#6b636e"/>
      <stop offset=".4" stop-color="#afa9b1"/>
      <stop offset=".5" stop-color="#c6c1c7"/>
      <stop offset=".6" stop-color="#dcdadd"/>
      <stop offset=".6" stop-color="#d1d8d9"/>
      <stop offset=".7" stop-color="#99919c"/>
      <stop offset=".8" stop-color="#6b636e"/>
      <stop offset=".81" stop-color="#887f8c"/>
      <stop offset=".9" stop-color="#afa9b1"/>
      <stop offset=".98" stop-color="#c6c1c7"/>
    </linearGradient>
    <linearGradient id="c" x1="842.69" y1="310.88" x2="842.69" y2="549.18" gradientUnits="userSpaceOnUse">
      <stop offset="0" stop-color="#fff"/>
      <stop offset="1" stop-color="#565259"/>
    </linearGradient>
    <linearGradient id="d" x1="153.28" y1="265.77" x2="498.44" y2="610.93" gradientUnits="userSpaceOnUse">
      <stop offset=".02" stop-color="#dcdadd"/>
      <stop offset=".18" stop-color="#887f8c"/>
      <stop offset=".3" stop-color="#6b636e"/>
      <stop offset=".4" stop-color="#afa9b1"/>
      <stop offset=".5" stop-color="#c6c1c7"/>
      <stop offset=".6" stop-color="#dcdadd"/>
      <stop offset=".6" stop-color="#d1d8d9"/>
      <stop offset=".7" stop-color="#99919c"/>
      <stop offset=".8" stop-color="#6b636e"/>
      <stop offset=".81" stop-color="#887f8c"/>
      <stop offset=".9" stop-color="#afa9b1"/>
      <stop offset=".98" stop-color="#c6c1c7"/>
    </linearGradient>
    <linearGradient id="e" x1="281.69" x2="281.69" y2="549.18" xlink:href="#c"/>
    <linearGradient id="f" x1="306.94" y1="83.98" x2="476.04" y2="253.08" xlink:href="#d"/>
    <linearGradient id="g" x1="305.78" y1="178.58" x2="460.29" y2="178.58" xlink:href="#c"/>
    <linearGradient id="h" x1="466.24" y1="118.33" x2="587.63" y2="239.73" xlink:href="#d"/>
    <linearGradient id="i" x1="498.37" y1="178.23" x2="555.68" y2="178.23" xlink:href="#c"/>
    <linearGradient id="j" x1="545.62" y1="64.22" x2="702.26" y2="220.86" xlink:href="#d"/>
    <linearGradient id="k" x1="590.92" y1="137.29" x2="651.44" y2="137.29" xlink:href="#c"/>
    <linearGradient id="l" x1="638.18" y1="64.22" x2="794.82" y2="220.86" xlink:href="#d"/>
    <linearGradient id="m" x1="683.48" y1="137.29" x2="744" y2="137.29" xlink:href="#c"/>
    <linearGradient id="n" x1="798.01" y1="115.72" x2="924.64" y2="242.35" xlink:href="#d"/>
    <linearGradient id="o" x1="775.18" y1="178.73" x2="948.9" y2="178.73" xlink:href="#c"/>
    <linearGradient id="p" x1="958.27" y1="103.74" x2="1126.13" y2="271.6" xlink:href="#d"/>
    <linearGradient id="q" x1="972.97" y1="177.52" x2="1126.04" y2="177.52" xlink:href="#c"/>
    <linearGradient id="r" x1="47.44" y1="39.68" x2="288.54" y2="280.78" xlink:href="#d"/>
    <linearGradient id="s" x1="2.75" y1="155.56" x2="281.85" y2="155.56" xlink:href="#c"/>
    <radialGradient id="t" cx="527.03" cy="32.2" fx="527.03" fy="32.2" r="26.69" gradientTransform="translate(177.13 -363.23) rotate(45)" gradientUnits="userSpaceOnUse">
      <stop offset="0" stop-color="#e6fefb"/>
      <stop offset=".5" stop-color="#34f9df"/>
      <stop offset=".6" stop-color="#31f4da"/>
      <stop offset=".71" stop-color="#2ae6cd"/>
      <stop offset=".83" stop-color="#1eceb7"/>
      <stop offset=".95" stop-color="#0dae99"/>
      <stop offset="1" stop-color="#059e8a"/>
    </radialGradient>
    <linearGradient id="u" x1="507.55" y1="12.72" x2="546.51" y2="51.68" gradientUnits="userSpaceOnUse">
      <stop offset="0" stop-color="#dcdadd"/>
      <stop offset="1" stop-color="#534e56"/>
    </linearGradient>
  </defs>
  <g>
    <path d="M562.19,547.18c5.43,0,10.87-2.32,14.59-6.95,31.28-38.98,109.69-118.41,232.81-133.1,153.6-18.31,256.58,79.31,269.42,91.91,7.21-.33,14.42-.67,21.63-1.01l19.81-69c2.76-9.62-2.25-19.73-11.7-23.04-123.39-43.3-312.41-93.12-546.55-93.12" style="fill: url(#b); stroke: url(#c); stroke-miterlimit: 10; stroke-width: 4px;"/>
    <path d="M562.19,312.88c-234.13,0-423.16,49.82-546.55,93.12-9.44,3.31-14.46,13.43-11.7,23.04l19.81,69c7.21.34,14.42.67,21.63,1.01,12.83-12.6,115.82-110.22,269.42-91.91,123.12,14.68,201.53,94.12,232.81,133.1,3.72,4.63,9.15,6.95,14.58,6.95" style="fill: url(#d); stroke: url(#e); stroke-miterlimit: 10; stroke-width: 4px;"/>
  </g>
  <g>
    <g>
      <path d="M359.89,85.14c-6.41,10.32-8.9,14.24-8.9,30.97v102.53c4.98,24.57,25.28,24.57,29.19,24.57,15.31,0,26.7-7.12,34.89-12.82v-101.46c0-18.51-.36-27.77-7.12-43.08l52.33-.71c-5.34,11.39-9.26,19.94-9.26,34.53v108.22c0,24.56,3.92,37.02,6.41,43.79h-43.79c1.42-17.09,1.42-20.29,1.42-37.74l-28.12,30.62c-5.34,2.85-15.66,7.48-26.7,7.48-6.41,0-30.62-2.85-45.57-34.18l.71-105.37c.36-26.34-3.56-35.6-9.61-47.35h54.11Z" style="fill: url(#f);"/>
      <path d="M352.16,89.51c-3.78,6.81-5.54,12.8-5.54,26.59v102.97l.09.43c3.62,17.84,15.82,28.07,33.48,28.07,7.45,0,14.06-1.54,19.98-3.88l-15.93,17.34c-5.05,2.62-14.34,6.62-23.99,6.62-4.38,0-26.77-1.5-41.18-30.79l.7-104.32c.3-22.28-2.45-33.04-6.97-43.03h39.36M453.41,89.61c-3.85,8.68-6.76,17.36-6.76,30.06v108.22c0,19.07,2.34,31.27,4.72,39.41h-32.98c1.05-13.3,1.05-17.46,1.05-33.36v-105.02c0-15.94-.25-25.82-5.03-38.78l38.98-.53M460.29,85.14l-52.33.71c6.76,15.31,7.12,24.56,7.12,43.08v101.46c-8.19,5.7-19.58,12.82-34.89,12.82-3.92,0-24.21,0-29.19-24.57v-102.53c0-16.73,2.49-20.65,8.9-30.97h-54.11c6.05,11.75,9.97,21,9.61,47.35l-.71,105.37c14.95,31.33,39.16,34.18,45.57,34.18,11.04,0,21.36-4.63,26.7-7.48l28.12-30.62c0,17.44,0,20.65-1.42,37.74h43.79c-2.49-6.76-6.41-19.22-6.41-43.79v-108.22c0-14.6,3.92-23.14,9.26-34.53h0Z" style="fill: url(#g);"/>
    </g>
    <g>
      <path d="M553.9,84.78c-4.63,8.9-8.9,16.73-8.9,46.64v88.64c0,33.82,5.7,43.43,10.68,51.62h-57.31c8.19-12.46,11.04-17.09,11.04-53.75v-86.15c0-23.85-2.49-32.39-9.61-46.99h54.11Z" style="fill: url(#h);"/>
      <path d="M546.85,89.16c-3.47,7.8-6.23,18.27-6.23,42.26v88.64c0,26.8,3.62,39.2,7.57,47.24h-41.94c5.63-9.94,7.53-19.38,7.53-49.38v-86.15c0-20.76-1.85-30.5-7.13-42.61h40.2M553.9,84.78h-54.11c7.12,14.6,9.61,23.14,9.61,46.99v86.15c0,36.67-2.85,41.3-11.04,53.75h57.31c-4.98-8.19-10.68-17.8-10.68-51.62v-88.64c0-29.9,4.27-37.74,8.9-46.64h0Z" style="fill: url(#i);"/>
    </g>
    <g>
      <path d="M646.46,2.9c-4.63,23.5-6.41,44.86-6.41,60.52v153.08c0,26.34,1.78,33.82,11.39,55.18h-60.52c3.92-7.12,13.53-24.92,13.53-42.36l.36-174.79c0-17.09-2.85-26.34-7.83-41.65l49.48-9.97Z" style="fill: url(#j);"/>
      <path d="M640.96,8.48c-4.56,25.54-5.28,45.14-5.28,54.94v153.08c0,23.91,1.35,32.75,9.06,50.8h-46.55c5.27-10.51,10.65-24.12,10.65-37.98l.36-174.8c0-15.65-2.34-25.14-6.54-38.33l38.31-7.72M646.46,2.9l-49.48,9.97c4.98,15.31,7.83,24.56,7.83,41.65l-.36,174.79c0,17.44-9.61,35.24-13.53,42.36h60.52c-9.61-21.36-11.39-28.84-11.39-55.18V63.42c0-15.66,1.78-37.02,6.41-60.52h0Z" style="fill: url(#k);"/>
    </g>
    <g>
      <path d="M739.01,2.9c-4.63,23.5-6.41,44.86-6.41,60.52v153.08c0,26.34,1.78,33.82,11.39,55.18h-60.52c3.92-7.12,13.53-24.92,13.53-42.36l.36-174.79c0-17.09-2.85-26.34-7.83-41.65l49.48-9.97Z" style="fill: url(#l);"/>
      <path d="M733.51,8.48c-4.56,25.54-5.28,45.14-5.28,54.94v153.08c0,23.91,1.35,32.75,9.06,50.8h-46.55c5.27-10.5,10.65-24.11,10.65-37.98l.36-174.8c0-15.66-2.34-25.14-6.54-38.33l38.31-7.72M739.01,2.9l-49.48,9.97c4.98,15.31,7.83,24.56,7.83,41.65l-.36,174.79c0,17.44-9.61,35.24-13.53,42.36h60.52c-9.61-21.36-11.39-28.84-11.39-55.18V63.42c0-15.66,1.78-37.02,6.41-60.52h0Z" style="fill: url(#m);"/>
    </g>
    <g>
      <path d="M948.9,172.36c0,81.17-68,102.17-90.78,102.17-36.31,0-82.95-23.85-82.95-88.64,0-77.61,52.33-93.63,82.95-102.88,50.91-1.78,90.78,34.18,90.78,89.36ZM915.44,179.83c0-37.74-23.85-71.55-56.96-71.55-24.21,0-45.21,23.5-45.21,62.66,0,53.4,35.6,79.74,69.78,76.9,12.46-9.97,32.4-27.77,32.4-68Z" style="fill: url(#n);"/>
      <path d="M861.73,87.32c23,0,43.93,8.25,58.93,23.23,15.61,15.58,23.86,36.96,23.86,61.81,0,18.14-3.54,34.37-10.51,48.24-5.86,11.65-14.15,21.69-24.64,29.82-20.12,15.61-42.32,19.73-51.25,19.73-19.31,0-38.35-6.91-52.22-18.95-17.24-14.96-26.35-37.55-26.35-65.31,0-32.79,9.32-56.93,28.5-73.78,16.08-14.13,36.04-20.28,50.78-24.74.96-.03,1.93-.04,2.89-.04h0M878.03,252.41c1.79,0,3.6-.08,5.38-.22l1.33-.11,1.04-.83c10.19-8.15,34.04-27.23,34.04-71.41,0-41.87-27.52-75.93-61.34-75.93-24.64,0-49.59,23.03-49.59,67.03,0,53.49,34.78,81.48,69.14,81.48M861.73,82.94c-1.19,0-2.4.02-3.6.06-30.62,9.26-82.95,25.28-82.95,102.88,0,64.79,46.64,88.64,82.95,88.64,22.78,0,90.78-21,90.78-102.17,0-53.87-38-89.42-87.18-89.42h0ZM878.03,248.03c-32.55,0-64.76-26.32-64.76-77.1,0-39.16,21-62.66,45.21-62.66,33.11,0,56.96,33.82,56.96,71.55,0,40.23-19.94,58.03-32.4,68-1.67.14-3.34.21-5.02.21h0Z" style="fill: url(#o);"/>
    </g>
    <g>
      <path d="M1043.81,91.9c7.48-3.92,16.38-8.54,28.48-8.54,16.73,0,46.99,13.88,46.99,48.77v107.51c0,14.95,1.42,19.58,6.76,32.04h-47.7c5.7-14.95,5.7-21.72,5.7-30.97v-102.88c0-6.41-6.41-24.21-33.82-24.21-17.44,0-24.56,4.98-33.11,10.68v106.09c0,19.58.71,25.63,3.2,41.3h-47.35c7.83-17.8,9.25-37.74,9.25-56.96v-100.03c0-4.98-3.2-21-4.98-29.9h40.23l-.36,36.31,26.7-29.19Z" style="fill: url(#p);"/>
      <path d="M1072.29,87.73c13.35,0,42.61,11.18,42.61,44.39v107.51c0,13.02,1.18,18.97,4.59,27.66h-34.94c3.87-11.81,3.87-18.46,3.87-26.59v-102.88c0-7.42-7.02-28.59-38.2-28.59-7.78,0-13.71.96-18.62,2.5l14.92-16.31c7.03-3.68,15.03-7.69,25.77-7.69M1013.04,89.16l-.31,31.89-.11,11.44.11-.12v98.02c0,17.25.52,24.11,2.47,36.92h-35.78c6.27-17.57,7.19-36.28,7.19-52.58v-100.03c0-4.31-1.87-14.55-4.03-25.53h30.47M1072.29,83.36c-12.1,0-21,4.63-28.48,8.54l-26.7,29.19.36-36.31h-40.23c1.78,8.9,4.98,24.92,4.98,29.9v100.03c0,19.22-1.42,39.16-9.26,56.96h47.35c-2.49-15.66-3.2-21.72-3.2-41.3v-106.09c8.54-5.7,15.66-10.68,33.11-10.68,27.41,0,33.82,17.8,33.82,24.21v102.88c0,9.26,0,16.02-5.7,30.97h47.7c-5.34-12.46-6.76-17.09-6.76-32.04v-107.51c0-34.89-30.26-48.77-46.99-48.77h0Z" style="fill: url(#q);"/>
    </g>
    <g>
      <path d="M261.96,307.36c-9.61,1.42-19.91,1.56-27.11,1.56-33.05,0-50.72-20.06-68.34-37.25-3.2.36-7.12,1.07-11.75,1.42-4.27,0-9.26.36-14.95.36C64.34,273.46,2.75,209.02,2.75,137.82,2.75,62.71,67.55,2.19,149.78,2.19s132.07,60.16,132.07,134.92c0,31.33-9.61,58.74-25.28,80.46-13.53,19.22-26.34,27.77-36.31,34.53,9.2,12.47,27.67,37.89,41.69,51.35v3.92ZM47.25,131.77c0,58.74,45.92,112.5,105.73,112.5s87.22-58.03,87.22-96.12c0-60.16-44.5-117.12-102.17-117.12-17.8,0-48.41,5.7-67.28,29.9-17.8,22.78-23.5,51.62-23.5,70.84Z" style="fill: url(#r);"/>
      <path d="M149.78,6.57c37.81,0,70.11,13.15,93.41,38.04,22.11,23.62,34.28,56.47,34.28,92.5,0,28.79-8.45,55.72-24.45,77.89v.02s-.03.02-.03.02c-12.87,18.29-25,26.52-34.75,33.13l-.44.3-3.77,2.56,2.71,3.67,1.8,2.44c9.36,12.7,24.57,33.34,37.44,46.55-7.46.75-15.04.86-21.14.86-28.8,0-45.34-16.33-61.34-32.13-1.32-1.3-2.63-2.6-3.94-3.88l-1.48-1.45-2.06.23c-1.22.14-2.51.32-3.87.51-2.26.32-4.81.67-7.56.89-2.01,0-4.14.08-6.39.16-2.66.1-5.41.19-8.39.19-17.74,0-35.06-3.64-51.5-10.81-15.71-6.86-29.92-16.62-42.22-29.01-24.76-24.93-38.96-58.26-38.96-91.43,0-35.18,14.66-68.13,41.27-92.77C75.2,20.23,111.2,6.57,149.78,6.57M152.98,248.64c63.18,0,91.6-58.77,91.6-100.5,0-65.86-48.79-121.5-106.55-121.5-10.82,0-47.89,2.28-70.73,31.59-22.66,29.01-24.42,63.62-24.42,73.54,0,63.35,50.42,116.87,110.11,116.87M149.78,2.19C67.55,2.19,2.75,62.71,2.75,137.82c0,71.2,61.59,135.63,137.06,135.63,5.7,0,10.68-.36,14.95-.36,4.63-.36,8.54-1.07,11.75-1.42,17.61,17.19,35.28,37.25,68.34,37.25,7.2,0,17.5-.14,27.11-1.56v-3.92c-14.02-13.46-32.49-38.88-41.69-51.35,9.97-6.76,22.78-15.31,36.31-34.53,15.66-21.72,25.28-49.13,25.28-80.46C281.85,62.35,231.3,2.19,149.78,2.19h0ZM152.98,244.27c-59.81,0-105.73-53.76-105.73-112.5,0-19.22,5.7-48.06,23.5-70.84,18.87-24.21,49.48-29.9,67.28-29.9,57.67,0,102.17,56.96,102.17,117.12,0,38.09-25.99,96.12-87.22,96.12h0Z" style="fill: url(#s);"/>
    </g>
    <g>
      <rect x="499.48" y="4.65" width="55.09" height="55.09" rx="16.32" ry="16.32" transform="translate(131.6 382.09) rotate(-45)" style="fill: url(#t);"/>
      <path d="M527.03,4c3.29,0,6.39,1.28,8.71,3.61l15.87,15.87c2.33,2.33,3.61,5.42,3.61,8.71s-1.28,6.39-3.61,8.71l-15.87,15.87c-2.33,2.33-5.42,3.61-8.71,3.61s-6.39-1.28-8.71-3.61l-15.87-15.87c-4.8-4.8-4.8-12.62,0-17.43l15.87-15.87c2.33-2.33,5.42-3.61,8.71-3.61M527.03,0C522.85,0,518.67,1.59,515.48,4.78l-15.87,15.87c-6.37,6.37-6.37,16.71,0,23.08l15.87,15.87c3.19,3.19,7.36,4.78,11.54,4.78s8.35-1.59,11.54-4.78l15.87-15.87c6.37-6.37,6.37-16.71,0-23.08l-15.87-15.87C535.38,1.59,531.2,0,527.03,0h0Z" style="fill: url(#u);"/>
    </g>
  </g>
</svg>