<?xml version="1.0" encoding="UTF-8"?>
<svg id="uuid-950379f3-854b-462d-a2af-2ffc8ca9e643" data-name="Layer 2" xmlns="http://www.w3.org/2000/svg" xmlns:xlink="http://www.w3.org/1999/xlink" viewBox="0 0 527 139.96">
  <defs>
    <style>
      .uuid-5aadbb42-f790-412d-898f-56d9fd319477 {
        clip-path: url(#uuid-5da6e0de-ce9b-480c-a325-cbaea67629a6);
      }

      .uuid-49d73309-7cad-4570-9e3b-aad641dde22c {
        clip-path: url(#uuid-932ef79e-83b2-4702-b235-57c8aae628fc);
      }

      .uuid-c285c6e9-0d90-4be3-81bf-b5ae7c4d83a6 {
        fill: none;
      }

      .uuid-4b4dd468-d0aa-4931-8269-de879cd3d779 {
        clip-path: url(#uuid-d1845ad4-0e82-4d68-82dd-9d347ab5fbc2);
      }

      .uuid-5fb5cd8d-a303-408f-b137-a4db69319298 {
        fill: url(#uuid-d060cf73-e8c6-4ff7-8a4d-4e5b74949f1e);
      }

      .uuid-c51a3539-73ef-48b1-85e3-b7bbc0225029 {
        fill: url(#uuid-59541ba2-c0e0-4f99-9e0d-c97ce7fe499b);
      }

      .uuid-d9cfbfdb-b54d-4b56-aa82-dbb14209650a {
        fill: #b00bfd;
      }
    </style>
    <radialGradient id="uuid-59541ba2-c0e0-4f99-9e0d-c97ce7fe499b" cx="329.92" cy="56.65" fx="329.92" fy="56.65" r="18.61" gradientUnits="userSpaceOnUse">
      <stop offset=".45" stop-color="#18fc0a"/>
      <stop offset=".54" stop-color="#1afc0a"/>
      <stop offset=".61" stop-color="#24fc0a"/>
      <stop offset=".66" stop-color="#34fc0a"/>
      <stop offset=".72" stop-color="#4afc0a"/>
      <stop offset=".76" stop-color="#67fc0a"/>
      <stop offset=".81" stop-color="#8bfc0a"/>
      <stop offset=".86" stop-color="#b4fc0a"/>
      <stop offset=".87" stop-color="#c1fc0a"/>
    </radialGradient>
    <clipPath id="uuid-932ef79e-83b2-4702-b235-57c8aae628fc">
      <path class="uuid-c285c6e9-0d90-4be3-81bf-b5ae7c4d83a6" d="M320.25,47.79h-6.62c-.24,1.46-.36,2.97-.36,4.52,0,12.14,7.66,21.98,17.11,21.98,5.56,0,10.49-3.43,13.62-8.71-3.58-13.76-12.84-17.79-23.74-17.79Z"/>
    </clipPath>
    <radialGradient id="uuid-d060cf73-e8c6-4ff7-8a4d-4e5b74949f1e" cx="371.02" cy="55.49" fx="371.02" fy="55.49" r="19.03" gradientUnits="userSpaceOnUse">
      <stop offset=".45" stop-color="#18fc0a"/>
      <stop offset=".55" stop-color="#1afc0a"/>
      <stop offset=".61" stop-color="#24fc0a"/>
      <stop offset=".67" stop-color="#34fc0a"/>
      <stop offset=".73" stop-color="#4afc0a"/>
      <stop offset=".78" stop-color="#67fc0a"/>
      <stop offset=".83" stop-color="#8bfc0a"/>
      <stop offset=".88" stop-color="#b4fc0a"/>
      <stop offset=".89" stop-color="#c1fc0a"/>
    </radialGradient>
    <clipPath id="uuid-5da6e0de-ce9b-480c-a325-cbaea67629a6">
      <path class="uuid-5fb5cd8d-a303-408f-b137-a4db69319298" d="M380.1,47.79c-10.62,0-19.69,3.8-23.47,16.7,3.07,5.9,8.3,9.8,14.24,9.8,9.45,0,17.11-9.84,17.11-21.98,0-1.55-.13-3.06-.36-4.52h-7.52Z"/>
    </clipPath>
    <clipPath id="uuid-d1845ad4-0e82-4d68-82dd-9d347ab5fbc2">
      <path class="uuid-c285c6e9-0d90-4be3-81bf-b5ae7c4d83a6" d="M380.1,47.79c-10.62,0-19.69,3.8-23.47,16.7,3.07,5.9,8.3,9.8,14.24,9.8,9.45,0,17.11-9.84,17.11-21.98,0-1.55-.13-3.06-.36-4.52h-7.52Z"/>
    </clipPath>
  </defs>
  <g id="uuid-e9fef7c8-fac8-4da5-9e55-1dd5d949c260" data-name="Layer 1">
    <g>
      <g>
        <path class="uuid-d9cfbfdb-b54d-4b56-aa82-dbb14209650a" d="M85.39.05l-14.85,26.85L30.88,103.14c3.04.31,5.74.46,10.12.46,31.39,0,43.54-5.83,51.3-9.51l-9.11,21.02H0C19.07,83.5,38.64,48.22,56.87,12.32c-2.02-.31-7.59-.61-11.47-.61-21.26,0-35.44,6.14-43.71,9.82L9.79.05h75.6Z"/>
        <path class="uuid-d9cfbfdb-b54d-4b56-aa82-dbb14209650a" d="M133.14,34.72c-3.04,4.45-4.22,6.14-4.22,13.35v44.18c2.36,10.58,11.98,10.58,13.84,10.58,7.26,0,12.66-3.07,16.54-5.52v-43.72c0-7.98-.17-11.97-3.37-18.56l24.81-.31c-2.53,4.91-4.39,8.59-4.39,14.88v46.64c0,10.58,1.86,15.95,3.04,18.87h-20.76c.68-7.36.68-8.74.68-16.26l-13.33,13.19c-2.53,1.23-7.43,3.22-12.66,3.22-3.04,0-14.51-1.23-21.6-14.73l.34-45.41c.17-11.35-1.69-15.34-4.56-20.4h25.65Z"/>
        <path class="uuid-d9cfbfdb-b54d-4b56-aa82-dbb14209650a" d="M273.37,49.29h-15.86c2.19,3.84,5.06,8.59,5.06,15.19,0,13.81-12.99,23.01-34.09,23.01-4.05,0-6.75-.31-9.62-.61-2.53,3.07-3.88,5.22-3.88,7.06,0,1.07.51,3.22,1.69,4.14,1.18,1.07,11.64,1.07,15.36,1.07,19.41,0,22.61,0,27.17,2.3,5.23,2.61,8.27,7.98,8.27,13.5,0,10.43-9.96,17.64-15.52,20.71-7.76,4.14-15.86,4.3-25.65,4.3h-17.55l-9.62-5.06c-2.36-1.23-3.04-2.61-3.04-4.6v-6.44c11.48-6.29,13.67-8.59,17.89-13.04-8.94-1.53-17.89-3.07-17.89-9.51,0-3.07,3.21-5.83,10.97-9.2,3.88-1.53,6.41-3.53,9.11-5.68-10.8-2.76-18.56-10.59-18.56-21.94,0-25.62,23.29-30.53,34.42-30.53,9.28,0,13.16,2.15,17.38,4.6h23.96v10.74ZM216.67,111.12c-1.69,1.99-3.88,4.45-3.88,8.44,0,2.3,1.35,9.05,15.02,9.05,6.92,0,22.44-.92,22.44-10.28,0-7.21-8.1-7.67-14.17-7.67l-19.41.46ZM236.59,79.05c3.88-2.45,9.79-6.14,9.79-14.57,0-9.66-7.26-21.63-18.06-21.63-7.76,0-14.01,5.68-14.01,16.26s6.24,20.56,18.56,20.1l3.71-.15Z"/>
        <path class="uuid-d9cfbfdb-b54d-4b56-aa82-dbb14209650a" d="M417.99,37.78l11.14-2.15c3.04-.61,6.58-.61,7.76-.61,16.37,0,23.29,8.44,25.14,11.35,2.53,4.14,2.53,6.29,2.53,11.66l.68,45.87c0,1.84,1.52,6.44,3.21,11.2h-19.91v-11.2c-6.41,4.3-8.27,5.68-14.51,10.43-1.01.15-4.39.77-7.09.77-6.92,0-22.28-5.52-22.28-18.56,0-13.81,19.58-21.63,31.05-25.77,8.44-2.91,9.28-3.53,12.82-5.83v-4.14c0-3.99-.34-5.22-1.01-6.44-2.36-3.99-9.45-7.67-17.55-7.67-6.58,0-11.31,2.3-16.71,5.22l4.72-14.11ZM448.53,79.97h-22.61c-1.86,3.99-3.21,7.36-3.21,12.12,0,8.9,7.93,11.81,16.71,11.81,4.05,0,6.24-.61,9.11-1.38v-22.55Z"/>
        <path class="uuid-d9cfbfdb-b54d-4b56-aa82-dbb14209650a" d="M525.99,36.56v10.12h-22.44v28.84c0,18.1,0,20.1.84,22.24,1.01,2.76,5.57,6.6,11.14,6.6,2.87,0,5.4-.46,11.48-1.69l-9.62,11.2c-5.74,1.07-9.62,1.69-14.51,1.69-13.33,0-16.88-8.9-16.88-13.19,0-3.37.51-6.14.51-11.2v-44.49h-11.48c2.53-2.76,5.23-5.22,28.52-27v16.88h22.44Z"/>
        <g>
          <path class="uuid-d9cfbfdb-b54d-4b56-aa82-dbb14209650a" d="M304.42,58.19c0-1.73-.07-2.79,0-5.8.18-8.02.41-19.62.62-34.69-12.26,11.01-20.51,26.12-20.69,42.33-.25,22.45,15.05,37.82,17.07,39.74,9.89,9.42,24.77,16.26,46.38,16.26,19.91,0,31.39-5.06,39.49-8.75l1.01-17.8c-6.92,4.76-17.89,12.43-37.29,12.43-29.7,0-46.57-20.25-46.57-43.72Z"/>
          <path class="uuid-d9cfbfdb-b54d-4b56-aa82-dbb14209650a" d="M324.52,26.62c4.91-4.06,13.85-9.56,25.97-9.1,17.43.67,27.34,13.13,28.66,14.85,3.46-6.04,6.92-12.09,10.38-18.13-5.71-4.28-23.02-16.06-45.69-13.99-11.87,1.08-23.5,5.82-33.28,13l13.98,13.38Z"/>
        </g>
      </g>
      <g>
        <path class="uuid-c51a3539-73ef-48b1-85e3-b7bbc0225029" d="M320.25,47.79h-6.62c-.24,1.46-.36,2.97-.36,4.52,0,12.14,7.66,21.98,17.11,21.98,5.56,0,10.49-3.43,13.62-8.71-3.58-13.76-12.84-17.79-23.74-17.79Z"/>
        <g class="uuid-49d73309-7cad-4570-9e3b-aad641dde22c">
          <path d="M322.74,47.79c-.25,1.4-.39,2.89-.39,4.44,0,7.92,3.55,14.33,7.93,14.33,4,0,7.3-5.37,7.84-12.34-4.02-4.25-9.39-6.05-15.38-6.44Z"/>
        </g>
        <g>
          <path class="uuid-5fb5cd8d-a303-408f-b137-a4db69319298" d="M380.1,47.79c-10.62,0-19.69,3.8-23.47,16.7,3.07,5.9,8.3,9.8,14.24,9.8,9.45,0,17.11-9.84,17.11-21.98,0-1.55-.13-3.06-.36-4.52h-7.52Z"/>
          <g class="uuid-5aadbb42-f790-412d-898f-56d9fd319477">
            <g class="uuid-4b4dd468-d0aa-4931-8269-de879cd3d779">
              <path d="M362.98,53.46c.34,7.35,3.74,13.13,7.9,13.13,4.38,0,7.93-6.42,7.93-14.33,0-1.56-.14-3.06-.4-4.47-5.94.24-11.31,1.81-15.43,5.67Z"/>
            </g>
          </g>
        </g>
      </g>
    </g>
  </g>
</svg>