<?xml version="1.0" encoding="UTF-8"?>
<svg id="uuid-47f65ae0-4535-4c80-852e-35ff44e21682" data-name="Layer 2" xmlns="http://www.w3.org/2000/svg" xmlns:xlink="http://www.w3.org/1999/xlink" viewBox="0 0 255.31 138.2">
  <defs>
    <style>
      .uuid-8b014dc3-9cbc-4dfa-954a-c6727f9bb84c {
        fill: url(#uuid-d224e225-baaf-43fd-84e7-20f9c282fde2);
      }

      .uuid-8b014dc3-9cbc-4dfa-954a-c6727f9bb84c, .uuid-c35aca8e-4942-4cf4-84a2-844a88dc486d {
        stroke: #090a0a;
        stroke-miterlimit: 10;
        stroke-width: 2.06px;
      }

      .uuid-4dec61e3-1316-4a21-a979-a1b6ca53e6b9 {
        fill: #c1fc0a;
      }

      .uuid-c35aca8e-4942-4cf4-84a2-844a88dc486d {
        fill: url(#uuid-01c47b89-bef1-45b4-a43f-2d2c7e20a06b);
      }

      .uuid-6b69e13c-62f2-4877-92a8-eca01b3ca3c6 {
        clip-path: url(#uuid-32b3d86d-0afe-40a5-b33f-122b10880346);
      }

      .uuid-5eb3ce6f-855a-4dc3-a47d-c40b5b69a8be {
        fill: #090a0a;
      }

      .uuid-087eb0cd-538f-4233-81f5-7f296fb01499 {
        fill: none;
      }

      .uuid-61c40519-dfed-44b6-a8cf-b4a2a1ffa55c {
        clip-path: url(#uuid-d9018ace-65bf-4e41-a687-b945301d4af1);
      }

      .uuid-322a7da0-e27d-46dc-aebd-14a6ffbda1d2 {
        fill: #b00bfd;
      }
    </style>
    <radialGradient id="uuid-d224e225-baaf-43fd-84e7-20f9c282fde2" cx="49.48" cy="29.47" fx="49.48" fy="29.47" r="60.43" gradientTransform="translate(38.24 -24.87) rotate(51.41) scale(1 .85)" gradientUnits="userSpaceOnUse">
      <stop offset=".45" stop-color="#18fc0a"/>
      <stop offset=".55" stop-color="#1afc0a"/>
      <stop offset=".61" stop-color="#24fc0a"/>
      <stop offset=".67" stop-color="#34fc0a"/>
      <stop offset=".73" stop-color="#4afc0a"/>
      <stop offset=".78" stop-color="#67fc0a"/>
      <stop offset=".83" stop-color="#8bfc0a"/>
      <stop offset=".88" stop-color="#b4fc0a"/>
      <stop offset=".89" stop-color="#c1fc0a"/>
    </radialGradient>
    <clipPath id="uuid-d9018ace-65bf-4e41-a687-b945301d4af1">
      <path class="uuid-087eb0cd-538f-4233-81f5-7f296fb01499" d="M22.58,1.03H2.16c-.73,4.51-1.13,9.16-1.13,13.94,0,37.46,23.64,67.83,52.81,67.83,17.17,0,32.38-10.58,42.03-26.88C84.83,13.46,56.23,1.03,22.58,1.03Z"/>
    </clipPath>
    <radialGradient id="uuid-01c47b89-bef1-45b4-a43f-2d2c7e20a06b" cx="204.16" cy="29.92" fx="211.54" fy="29.92" r="55.67" gradientTransform="translate(-.8 9.4) rotate(-1.92) scale(1 .92)" xlink:href="#uuid-d224e225-baaf-43fd-84e7-20f9c282fde2"/>
    <clipPath id="uuid-32b3d86d-0afe-40a5-b33f-122b10880346">
      <path class="uuid-087eb0cd-538f-4233-81f5-7f296fb01499" d="M229.95,1.03c-32.76,0-60.78,11.72-72.42,51.54,9.47,18.22,25.61,30.23,43.94,30.23,29.16,0,52.81-30.37,52.81-67.83,0-4.78-.39-9.44-1.13-13.94h-23.2Z"/>
    </clipPath>
  </defs>
  <g id="uuid-7acdee27-1de2-45b6-ae38-b1a0e454c4fa" data-name="Artboard 10">
    <g>
      <g>
        <path class="uuid-8b014dc3-9cbc-4dfa-954a-c6727f9bb84c" d="M22.58,1.03H2.16c-.73,4.51-1.13,9.16-1.13,13.94,0,37.46,23.64,67.83,52.81,67.83,17.17,0,32.38-10.58,42.03-26.88C84.83,13.46,56.23,1.03,22.58,1.03Z"/>
        <g class="uuid-61c40519-dfed-44b6-a8cf-b4a2a1ffa55c">
          <path class="uuid-5eb3ce6f-855a-4dc3-a47d-c40b5b69a8be" d="M30.28.19c-.78,4.31-1.21,8.91-1.21,13.69,0,24.43,10.96,44.24,24.47,44.24,12.35,0,22.54-16.57,24.21-38.07C65.34,6.92,48.76,1.37,30.28.19Z"/>
        </g>
        <path class="uuid-c35aca8e-4942-4cf4-84a2-844a88dc486d" d="M229.95,1.03c-32.76,0-60.78,11.72-72.42,51.54,9.47,18.22,25.61,30.23,43.94,30.23,29.16,0,52.81-30.37,52.81-67.83,0-4.78-.39-9.44-1.13-13.94h-23.2Z"/>
        <g class="uuid-6b69e13c-62f2-4877-92a8-eca01b3ca3c6">
          <path class="uuid-5eb3ce6f-855a-4dc3-a47d-c40b5b69a8be" d="M217.07,31.68c-5.84,0-10.57-4.73-10.57-10.57s4.73-10.57,10.57-10.57c3.71,0,6.96,1.91,8.85,4.8,0-.45.02-.91.02-1.36,0-4.82-.44-9.44-1.23-13.78-18.33.74-34.89,5.59-47.61,17.49,1.05,22.69,11.55,40.53,24.37,40.53,10.69,0,19.78-12.4,23.11-29.68-1.92,1.93-4.57,3.13-7.51,3.13Z"/>
        </g>
      </g>
      <g>
        <path class="uuid-322a7da0-e27d-46dc-aebd-14a6ffbda1d2" d="M31.79,96.37l-5.35,9.67-14.28,27.46c1.09.11,2.07.17,3.65.17,11.31,0,15.68-2.1,18.48-3.43l-3.28,7.57H1.03c6.87-11.38,13.92-24.09,20.48-37.02-.73-.11-2.74-.22-4.13-.22-7.66,0-12.76,2.21-15.74,3.54l2.92-7.73h27.23Z"/>
        <path class="uuid-322a7da0-e27d-46dc-aebd-14a6ffbda1d2" d="M49.17,96.37c-1.03,2.71-1.46,4.2-1.46,9.94v15.08c0,2.6.24,4.14.91,5.69,2.25,5.03,7.54,6.52,10.45,6.52,4.92,0,9.18-3.37,10.45-7.24.24-.83.36-1.55.36-4.14v-16.35c0-1.88,0-6.35-1.64-9.5h9.72c-.73,1.77-1.22,3.04-1.22,8.45v22.1c0,2.87,0,5.3,1.22,10.88h-8.08c.3-2.38.36-2.87.3-4.09-2.67,1.49-7.96,4.48-14.47,4.48-9.42,0-14.83-6.52-14.83-15.97v-16.35c0-6.3-.67-7.73-1.46-9.5h9.72Z"/>
        <path class="uuid-322a7da0-e27d-46dc-aebd-14a6ffbda1d2" d="M122.89,104.22c-3.04-1.44-7.96-3.76-14.47-3.76-7.72,0-16.41,5.14-16.41,16.24,0,9.06,6.75,16.35,18.48,16.35,4.13,0,5.9-.66,8.02-1.44v-4.58c0-6.41-1.34-8.07-3.04-10.17h11.12c-.49,1.27-1.28,3.15-1.28,7.18v4.92c0,2.76,0,3.59.85,6.41-3.1,1.11-7.6,2.71-15.98,2.71-20.48,0-25.16-12.26-25.16-20.11,0-5.25,1.94-10.61,5.71-14.7,4.86-5.3,10.64-7.35,20.3-7.35,5.53,0,9.06.77,11.85,1.38v6.91Z"/>
        <path class="uuid-322a7da0-e27d-46dc-aebd-14a6ffbda1d2" d="M170.05,104.22c-2.67-1.27-6.44-2.98-11.85-2.98-10.15,0-17.26,6.85-17.26,16.08,0,8.45,6.08,15.75,16.77,15.75,6.99,0,10.94-2.76,13.43-4.48l-.36,6.41c-2.92,1.33-7.05,3.15-14.22,3.15-17.69,0-22.85-12.71-22.85-20.17,0-11.05,10.21-21.99,26.56-21.99,4.74,0,7.54.88,9.78,1.6v6.63Z"/>
        <path class="uuid-322a7da0-e27d-46dc-aebd-14a6ffbda1d2" d="M216.23,126.48c3.28,6.46,5.41,9.12,7.11,11.22l-10.82.11c0-1.82-.24-3.92-1.88-7.29l-2.67-5.58h-15.99l-2.31,4.48c-.79,1.55-2.55,5.14-2.31,8.4h-11.12c1.52-1.6,2.86-3.09,6.63-9.89l17.56-31.71h.36l15.44,30.28ZM194.53,120.07h11.06l-5.29-11.1-5.77,11.1Z"/>
        <path class="uuid-322a7da0-e27d-46dc-aebd-14a6ffbda1d2" d="M254.28,96.43l-3.16,6.35c-4.98-1.82-6.63-2.21-11.91-2.21v27.35c0,3.32.3,6.69,1.28,9.89h-9.3c.67-2.6,1.28-5.64,1.28-10.55v-26.68c-3.04-.06-5.71-.06-14.53,2.82l2.43-6.96h33.91Z"/>
      </g>
      <circle class="uuid-4dec61e3-1316-4a21-a979-a1b6ca53e6b9" cx="216.96" cy="20.97" r="10.39"/>
    </g>
  </g>
</svg>